<svg viewBox="0 0 160 22" xmlns="http://www.w3.org/2000/svg"><path d="M91.148 10.208c-.007.064-.042.157-.07.257-.05.079-.106.15-.17.222a.843.843 0 0 1-.493.293c-.261 0-.515-.021-.769-.064a6.416 6.416 0 0 1-.515-.136l.021-.215c.021-.186.106-.58.127-.643a10.1 10.1 0 0 1 .275-.637c.106-.214.205-.379.388-.536.155-.129.339-.2.55-.122.064.022.177.065.247.115.148.114.254.243.318.507.134.508.134.551.091.959zm2.117-1.238c-.043-.25-.184-.9-.438-1.172-.303-.315-.712-.68-1.848-.873-.451-.028-.733-.007-.811-.007-.205 0-.212.022-.423.036-.17.014-.325.071-.487.114-.162.036-.31.122-.459.186-.211.1-.719.415-.881.658-.162.243-.31.486-.41.615-.112.15-.197.315-.274.48-.07.142-.282.528-.332.686-.028.1-.127.314-.155.379l-.29-.1-.07-.008c-.12.13-.148.28-.19.43a.945.945 0 0 0-.043.371c.014.122-.049.15-.042.272.007.086.07-.107.042-.021-.049.143-.084.293-.127.443-.028.093-.084.036-.077.136.007.079.007.157.007.214.092.23-.05.13.162.222l.43.165-.02.522.006.171c.057 1.044.212 1.495.261 1.638.07.2.155.393.24.586.198.487.522.887.896 1.259.183.179.416.286.614.45l.042.015c.6.286.783.279.783.279s.275.043.409.043c.353 0 .48-.008.889-.086.233-.065.465-.136.684-.229l.155-.05c.43-.157.833-.358 1.164-.665.099-.093.198-.186.282-.293a.675.675 0 0 0 .12-.222c.064-.179.014-.329-.148-.45l-.183-.13c-.078-.064-.141-.135-.226-.207l-.085-.007c-.05-.071-.106-.136-.155-.207l-.064-.129c-.035-.186-.14-.336-.218-.486-.078-.05-.127-.115-.205-.129-.155.25-.155.25-.402.43l-.183.135c-.078.05-.423.272-.6.358l-.084.035c-.064.029-.127.057-.198.093-.296.129-.578.165-.79.036-.494-.3-.628-.851-.649-1.337v-.014c-.014-.072.043-.866.05-1.03l-.007-.057c.338.057.846.135.93.178l.106.022c.198.021.395.05.586.064.12.007.247-.007.367-.014.296-.014.578-.107.853-.208.078-.028.155-.071.226-.114.317-.207.585-.465.804-.772.24-.336.233-.35.38-.723.008-.021.064-.164.128-.45.021-.1.035-.286.028-.5v-.037a4.442 4.442 0 0 0-.07-.994zm55.534.258c.127-.308.31-.594.642-.68-.057.008-.12.022.042-.014.099.007.19.057.282.093a.78.78 0 0 1 .212.33c.035.135.077.27.112.4.064.271.078.865.008 1.137-.057.214-.388.336-.642.407a2.648 2.648 0 0 0-.233.05c-.296.05-.691.036-.917-.007.049-.4.338-1.359.494-1.716zm3.273 4.727c-.043-.065-.092-.136-.12-.207-.036-.1-.099-.18-.148-.265-.022-.079-.015-.157-.064-.229-.042-.064-.063-.15-.085-.222-.028-.078-.042-.157-.07-.229l-.042-.05-.057.015c-.042.086-.028.178-.035.271-.021.465-.184.873-.43 1.252a.948.948 0 0 1-.156.179c-.197.157-.395.314-.634.386-.085.028-.17.064-.254.1l-.099.029-.169.064a2.154 2.154 0 0 1-.247.057c-.304.065-.727-.064-.868-.271-.712-.587-.592-1.731-.55-2.039.219 0 .458-.007.515-.014 0 0 .557-.043.621-.043a3.306 3.306 0 0 0 1.022-.179c.812-.329 1.256-.836 1.404-1.044.085-.114.162-.236.24-.35.106-.157.19-.322.226-.508.035-.164.07-.322.098-.486.043-.193.036-.4.029-.594a3.66 3.66 0 0 0-.099-.722c-.064-.236-.092-.365-.155-.6l-.092-.165c-.057-.107-.106-.2-.183-.293l-.071-.086-.056-.072c-.332-.321-.84-.672-1.277-.793-.24-.065-.43.007-.677-.008-.191-.007-.374-.021-.565-.028-.105-.007-.282 0-.388.014-.444.064-.677.186-1.022.465a4.2 4.2 0 0 0-.953 1.051c-.254.422-.613 1.359-.698 1.824-.162-.079.042.057-.24-.186-.12-.1-.07-.086-.183-.15l-.064.028c-.014.129-.077.158-.091.286-.014.122-.148.208-.212.308.028.178-.106.3-.176.457-.071.158-.55.651-.466.751.155.193.459.394.706.544.176.107.19.1.38.193.078.036.05.236.057.379.014.243.141.994.19 1.237.036.207.092.415.141.63.092.443.409.972.734 1.294.346.336.529.536.952.75.134.072.261.13.388.172.296.129.501.158.586.172.317.043.627.05.945-.029h.007c.113-.007.219-.021.282-.028.092-.022.19-.057.282-.093l.184-.065c.19-.035.296-.064.458-.143a1.95 1.95 0 0 0 .374-.214c.303-.236.571-.48.783-.722.099-.18.183-.365.247-.565.084-.287.134-.58.106-.88a3.475 3.475 0 0 1-.261-.336zm-52.621-1.03v.122c-.078.336-.219.536-.388.836-.163.28-.261.3-.501.53-.233.221-1.065.536-1.206.507l-.261-.014c-.134-.05-.205-.043-.282-.1-.22-.258-.31-.544-.388-.88-.043-.157-.233-1.244.148-3.096.077-.258.063-.286.282-.808.212-.522.585-1.245.917-1.38.367-.15.55-.065.726.014.198.093.346.214.48.393.127.179.536.858.53 1.187-.03.494-.057 2.69-.057 2.69zm2.617-10.219c-.036-.15-.007-.336-.007-.443l-.064-.15a.65.65 0 0 0-.197-.043c-.163 0-.466.2-.621.207-.162.007-.318.021-.48.029-.063 0-.134-.13-.197-.122l-.297-.05-.056.093c-.049.121-.049.071-.099.186l-.049.043c-.064.021-.113-.022-.177-.036l-.14.043c-.064.057-.177.179-.184.243v.093c0 .172.007.315 0 .508 0 .043 0 .171.007.3v.143c-.007.308-.021.608 0 .908.021.35 0 .701 0 1.051 0 .144-.007.18-.007.33v.536l.014 1.03c0-.093 0-.143-.091-.265-.24-.207-.325-.25-.635-.329a3.102 3.102 0 0 0-.917-.114c-.078 0-.155-.008-.233.007-.085.014-.656-.036-1.735.586-.29.186-.55.4-.77.665-.225.272-.366.572-.521.894-.07.15-.113.315-.184.472-.07.172-.126.35-.176.53-.099.35-.233 1.694-.26 2.059-.015.164 0 1.008.013 1.101.014.186.035.365.057.544.007.085.02.171.02.257 0 .043.177.708.227.88.049.143.07.286.133.429.064.164.466.686.55.822.34.372.833.65 1.108.765.282.122.395.2.706.222.67.036 1.17.029 1.784-.279.691-.343.854-.55.854-.55.028.078.014.164.014.25v.25l.014.057.056.165.099.021c.12.072.198-.107.325-.036.105.015.204-.028.317-.014.12-.029.226-.078.346-.014h.035c.261-.036.529-.015.811.007.148-.057.289.107.451.05a.18.18 0 0 0 .12-.136c0-.064-.007-.136-.007-.207v-.05c-.007-.086.029-.165.014-.25-.028-.18-.014-.365-.014-.544v-.6-1.073-1.717c0-.186-.021-.472.014-.65.015-.08-.028-.172 0-.237.029-.064-.021-.143-.021-.207v-.615-1.18-2.353c0-.164-.014-.336.014-.493.014-.1-.014-.215-.014-.315 0-.164.014-.214.014-.372.014-.457.022-.915.036-1.373.007-.286.021-.622.028-.965.007-.308.014-.615.014-.894l-.042-.1zM85.11 4.366a1.293 1.293 0 0 0-.451-.645c-.106-.078-.212-.157-.346-.193-.084-.021-.162-.057-.246-.085l-.064-.015c-.134 0-.268-.007-.395-.007a1.302 1.302 0 0 0-.698.222c-.184.121-.339.279-.402.508l-.007.021-.092.179c-.113.35.021.722.183 1.037l.099.15c.035.079.078.157.127.229.219.322.543.479.924.465.339-.015.656.2.945-.008a.758.758 0 0 0 .282-.407l.043-.1c.063-.172.098-.35.14-.537.022-.114.029-.229.022-.343l-.021-.186a.627.627 0 0 0-.043-.286zM160 16.307c0-.15-.021-2.503-.021-2.66v-1.009c0-.121.021-.243-.021-.357l.007-.036.014-.193v-.723c0-.107.007-.565.007-.672v-.665-.343c0-.107-.014-.215-.007-.322.007-.114-.035-.222-.042-.336 0-.129-.022-.25-.043-.38l-.042-.185c-.021-.1-.042-.207-.071-.308-.07-.257-.19-.479-.338-.7-.113-.165-.275-.265-.409-.387l-.022-.007c-.049-.007-.126-.078-.211-.093-.078-.014-.162-.05-.24-.071a5.645 5.645 0 0 0-.607-.043 2.696 2.696 0 0 0-.31.043c-.07.028-.12.036-.24.079l-.106.028c-1.044.358-1.368 1.144-1.403 1.194l-.007-.271v-.308c0-.1 0-.2-.007-.3 0-.057-.007-.165-.014-.272v-.036c0-.071-.05-.143-.099-.15l-.141-.021c-.163 0-.163 0-.466.035-.021 0-.261.058-.458.15-.127.122-.226.265-.402.28l-.12.035c-.12.05-.536.315-.72.458-.183.136-.282.322-.444.508-.057.064-.085.207-.071.3.05.15.071.179.092.179l.021.028c.071.058.078.029.184.05l.126.065.029.028c.07.058.084.25.105.35.029.144.043.466.043.616a132.23 132.23 0 0 0-.014 1.666v.129c.049.107 0 .207 0 .314.007.515 0 1.145 0 1.66v.128c.042.086 0 .165 0 .25v2.425l-.007.064a.22.22 0 0 0 .105.15c.163.086.325.172.466.244.466-.03.973.078 1.1.128.113 0 .24.086.346.007.141-.05.226-.164.353-.214l.106-.007.049-.115c-.099-.264-.12-.286-.12-.515v-.064c.007-.43.021-.865 0-1.294.007-.165.028-.33 0-.494-.035-.193.028-.393 0-.593-.021-.143.007-.286 0-.43-.007-.2.007-.514 0-.707 0-.108.007-.186 0-.315a2.468 2.468 0 0 1 0-.322c.007-.136 0-.3 0-.4v-.065c0-.164-.028-.557.007-.722.042-.2.141-.4.268-.565l.035-.05c.071-.114.29-.265.409-.329.254-.136.233-.107.304-.114a.49.49 0 0 1 .444.207c.106.193.078.329.078.536v4.799l-.007.129c-.007.143.014.207.014.286a2.566 2.566 0 0 0-.021.164v.258l.014.042V16.193l-.007.065c0 .071-.036.522.007.565.084.093.374-.03.486.042l.12.043c.163.05.318.057.48.008.085-.03.176-.03.233-.03.19.03.324.108.43.151.106.014.169-.029.233-.05.077-.029.169-.043.24-.086.084-.057.141-.057.218-.129.022-.064.043-.028.078-.114v-.35H160zm-23.023-2.174c-.064-.1-.205-.408-.268-.515-.092-.158-.085-.115-.071-.308l.007-.136c.007-.05-.021-.136-.049-.229a2.457 2.457 0 0 0-.297-.572l-.056-.028-.085.093c-.112.2-.247.386-.366.58-.156.242-.318.478-.522.686-.085.085-.149.2-.24.271-.148.129-.289.28-.452.394-.169.121-.324.25-.508.343-.183.093-.373.15-.571.214-.12.043-.247.05-.367.086-.098.029-.19-.014-.282-.05a.534.534 0 0 1-.211-.314 2.572 2.572 0 0 1-.092-.58v-.808c0-.043.035-.372.077-.794.015-.171.036-.35.057-.514.028-.194.07-.38.106-.573.042-.25.098-.493.148-.743.042-.23.12-.444.19-.665.043-.136.099-.272.134-.408.043-.15.127-.272.184-.415.063-.15.063-.121.155-.257.113-.172.303-.444.487-.522.127-.05.338-.043.451.064l.092.136c.084.243.106.558.098.822 0 .086-.028.158-.028.244-.035.264-.084.715-.141.872a1.257 1.257 0 0 0-.049.4l.31.086c.198-.071.423.05.6.086.268.05.945.329 1.03.272.134-.086.155-.165.197-.293.021-.072.056-.15.078-.222.035-.15.063-.3.091-.443l.036-.15c.021-.2.091-.537.091-.537-.007-.615.381-2.081-1.403-2.739-.254-.129-.501-.121-.769-.193a1.166 1.166 0 0 0-.275-.036c-.205.007-.409 0-.614 0-.169 0-.332.043-.494.079a3.22 3.22 0 0 0-.395.136 2.855 2.855 0 0 0-.649.343l-.07.05c-.078.115-.205.179-.297.272-.126.129-.253.25-.366.386-.078.093-.148.193-.226.293-.169.222-.339.444-.466.694-.155.322-.303.65-.423.994-.049.15-.07.307-.148.45l-.014.065c.007.093-.042.164-.056.25l-.029.107c-.007.208-.098.394-.105.594-.043.064-.022.143-.029.214-.014.072-.035.143-.035.215-.007.186-.063.372-.056.565l-.029 1.659c.05.093.022.2.064.293.035.093.035.2.056.293.043.15.085.308.148.451.071.15.156.293.261.415.219.236.431.479.671.693.225.208.465.394.712.573.078.05.155.107.247.121.07.007.134.036.197.072l.113.057c.191.036.374.121.572.1h.084c.141 0 .282.014.423-.007.113-.022.219-.029.332-.029l.085-.007c.112-.05.232-.021.345-.079a3.76 3.76 0 0 0 1.129-.379 6.08 6.08 0 0 0 .684-.422 1.92 1.92 0 0 0 .261-.214 7.42 7.42 0 0 0 .402-.415c.169-.179.296-.386.36-.63.035-.135.099-.178.07-.314-.021-.171-.148-.407-.232-.543zm-7.64-9.34c0-.186-.042-.372-.098-.543a1.27 1.27 0 0 0-.536-.73 1 1 0 0 0-.395-.157c-.078-.014-.163-.022-.247-.036a1.187 1.187 0 0 1-.282.079c-.085.014-.17.036-.254.064a1.431 1.431 0 0 0-.678.48c-.134.157-.218.35-.254.55a1.617 1.617 0 0 0 0 .486l.127.107c.191.05.339-.028.487-.014l.12.05c.092.05.162.129.162.243.007.065.043.13.036.2a.28.28 0 0 0 .063.194c.148.086.332.078.487.15l.063.007c.17.029.325.029.466.014.176-.05.345-.157.494-.293l.021-.036.113-.186.098-.193c.007-.064.014-.128.007-.2v-.236zm-11.927 7.452c-.057-.086-.071-.193-.085-.3-.028-.23-.134-.423-.24-.616-.035-.064-.092-.128-.127-.171a.6.6 0 0 1-.021-.365.85.85 0 0 0-.064-.586c-.091-.079-.19-.172-.303-.25-.077-.058-.268-.294-.324-.365l-.036-.065-.021-.121c-.07-.036-.134-.015-.19.043l-.085.078-.049.122-.085.157c-.063.143-.092.215-.148.322-.113.222-.169.422-.261.63-.014.056-.056.15-.092.228-.169.386-.268.715-.402 1.023l-.148.364c-.042.086-.077.165-.113.236l-.028.036-.007.014c-.12.25-.233.494-.353.737-.867 1.402-2.299 3.769-3.386 3.597-2.532-.393-1.657-4.634-1.001-6.922.12-.444.247-.88.395-1.316.741-2.16 1.686-4.176 3.287-5.807.282-.279.55-.493 1.128-.8 0 0 .092-.022.205 0 .106.02.212.207.24.328a.634.634 0 0 1 .007.343l-.007.036c-.049.179-.092.358-.155.53-.05.142-.106.278-.155.421-.106.28-.226.558-.353.823-.057.121-.127.243-.177.372-.07.193-.176.364-.253.557-.057.129-.134.25-.191.38-.049.1-.099.207-.155.307-.035.071-.092.136-.099.214l.141.036c.261-.007.473.107.649.279l.339.343a.703.703 0 0 0 .381.079h.105c.085.014.177.014.254.05.141.064.283.129.402.243l.071.036.106-.15c.099-.286.24-.55.331-.83.064-.171.134-.343.198-.515.099-.293.19-.593.261-.894.056-.207.12-.414.162-.629.049-.222.127-.429.141-.658.057-.086.042-.2.071-.293.035-.1.042-.215.063-.322.014-.079.028-.157.035-.243.007-.079.029-.164.029-.243.007-.086.007-.172.007-.25.12-.63-.212-1.252-.635-1.731-.233-.265-.621-.472-1.023-.594-.092-.093-.233-.121-.451-.157-.177-.028-.318-.014-.529-.007-.177.007-.304.036-.522.05h-.022c-.225.072-.373.1-.557.164-.176.058-.36.122-.529.208-.092.043-.176.107-.268.15-.374.258-.726.536-1.065.83-2.116 1.93-3.809 4.398-4.55 7.122-.105.386-.197.658-.275 1.059-.98 3.425-.67 8.417 3.823 9.575.445.122.642.072.939.05.176-.007.345.079.719.072.635-.129 1.376-.637 1.848-1.023.127-.107.261-.215.388-.329.12-.107.233-.229.346-.343.12-.122.24-.243.352-.372.078-.086.149-.179.226-.265l.078-.093c.098-.121.19-.25.275-.379.176-.243.345-.493.479-.765.071-.121.283-.465.339-.593.099-.236.233-.465.353-.687.091-.164.24-.58.367-.9l.028-.158c.035-.172.056-.336.113-.508.028-.072.028-.157.035-.222l-.057-.121c-.056-.093-.063-.2-.119-.286zM85.096 7.698v-.015a1.955 1.955 0 0 0-.077-.415l-.035-.071c-.064-.107-.247-.107-.388-.129-.135-.014-.24.036-.36.086-.212 0-.424.029-.642-.014-.106-.036-.17-.129-.261-.186l-.099-.036a.318.318 0 0 0-.197.086c-.156.129-.332.136-.452.307l-.056.186h-.007v.043c-.014.129-.007.258-.007.394-.007.228-.007.457-.007.686V13.82c0 .1.007.2-.007.3l-.022-.078v.264c-.007.572-.035 1.852-.035 2.01 0 .15-.007.386 0 .536l.021.136.007.014v.015h.014l.043-.008.162-.035.078-.015.056-.014.141-.021.092.043c.113-.008.225-.008.338-.008l.12.05a.45.45 0 0 0 .19.036.877.877 0 0 0 .191-.028c.078-.015.099-.015.219.021l.247-.007.31.086c.106-.029.092.035.212-.05l.042-.108.042-.057.05-.064v-.408c0-.071 0-.143.007-.221v-.13c.014-.092.014-.156.014-.214 0-.093 0-.179.007-.257l.007-.029.007-.05h-.007c.007-.164.007-.307.014-.522v-.85c0-.087-.021-.173.021-.251l-.007-.057-.014-.13c.007-.164-.021-.328.014-.485l.021-.136c0-.315.007-.637.007-.951V8.234c0-.172 0-.358-.014-.536zm40.715 9.074h-.043c-.176-.028-.317-.264-.367-.579-.014-.071-.028-.143-.028-.229-.007-.279-.014-.557.014-.836 0-.022-.014-.315-.021-.572 0-.2.007-.4.014-.587v-.043l-.021-.171c.007-.837 0-1.917 0-2.76l.007-.13c-.007-.164 0-.4 0-.521 0-.308.014-.687.014-.995l-.007-.128v-.193s.007-.315-.049-.673v-.014c-.028-.129-.064-.257-.085-.386-.014-.079-.056-.143-.084-.215a1.186 1.186 0 0 0-.233-.371c-.092-.1-.212-.18-.325-.265l-.141-.086a2.306 2.306 0 0 0-.204-.071c-.127-.036-.261-.05-.388-.072l-.205-.014c-.113 0-.219-.007-.331.014-.113.022-.29.05-.424.1-.112.036-.663.2-.874.35-.113.08-.226.158-.332.251-.268.25-.021-.014-.508.522l-.07.107-.05.122-.007-.2c-.007-.308-.007-.615-.007-.923 0-1.244.014-2.067.014-3.31l-.007-.773v-.022a1.74 1.74 0 0 0 .007-.271 6.392 6.392 0 0 0-.028-.365c-.021-.179-.148-.322-.458-.393l-.17-.072c-.07-.029-.134-.057-.246-.072-.149.03-.311.058-.473.086l-.099.007-.204-.035c-.12.014-.205.028-.29.035a.693.693 0 0 0-.296.065.861.861 0 0 0-.226.422l-.042.164-.007.043-.014 2.017v.322c0 .107-.064.221 0 .329V8.72c0 .079.021.157 0 .208.014.078-.007.135 0 .185.007.072 0 .144 0 .215 0 .093.035.186 0 .272v.121a.365.365 0 0 1 0 .23c-.028.092 0 .178 0 .27v3.877c0 .6-.014 1.13-.021 1.695v1.022l.007.015v.121l.007.072.12.05c.12-.065.247-.122.388-.15.077.014.148-.007.19.028l.071-.007h.077l.099-.043.085-.021c.021.021.592.114.684.085l.07.015.127.021.113.022c-.042.064.381.114.431-.022a.873.873 0 0 0 .007-.25l.035-.15-.007-.043-.021-.107.014-.058c.028-.078.014-.686.014-.965l.007-.007-.007-.122v-.057l.014-.186v-1.151c0-.365.007-.966.007-1.323l.014-.129c.007-.057.064-1.437.078-1.509.141-.75.409-1.266.677-1.552.127-.128.296-.364.571-.414.014 0 .127 0 .205.021.077.029.148.043.19.193.021.079.036.422.029.444-.015.221.021.307 0 .586-.008.064 0 0 0 .071v1.23c0 .072.014.158 0 .208V12.417c.007.072 0 .108 0 .165V13.633c-.036.079 0 .15 0 .229 0 .071-.008.143 0 .214a1.1 1.1 0 0 1 0 .215v.014c.042 1.295.077 1.51.098 1.624.028.143.057.293.12.429.057.128.113.286.184.379.07.1.239.221.373.307.134.093.297.2.417.229h.007c.127.036.458.072.592.036l.064.007c.141.036.522-.057.719-.143l.134-.114.141-.03.064-.092c.056-.043.162-.029.176-.129l-.07-.036zm3.294-2.31c0-.092-.036-.178-.036-.271.007-.587 0-1.173-.007-1.76V10.78l-.007-.172c-.035-.093-.028-.179-.028-.272 0-.486.014-1.258.014-1.923 0-.23.007-.45.007-.637a3.17 3.17 0 0 0-.021-.73l-.078-.135c-.049-.05-.197-.122-.282-.107-.077.035-.155.071-.211.1-.198-.015-.36.107-.522.1-.148.028-.297-.072-.445-.043a.62.62 0 0 1-.395-.036l-.225-.157a.196.196 0 0 0-.226.036c-.028.107-.057.186-.078.364-.014.108-.007.208-.007.308v.164c0 .086-.007.172-.007.25l-.007.165v.1c0 .658.007 1.552.007 2.21 0 .107-.014.214.035.3l-.042.136c.057.072.042.158.042.243v5.85l.085-.029.014.008.148.028.099.043.113-.014.169.043.078.107c.035.05.099.079.197.093.092.014.184.029.275.021.106 0 .212-.007.311-.007.127-.028.204-.071.24-.129l.056-.057a.503.503 0 0 1 .353-.021l.014.007.113-.021.049.014.092-.05.056-.014.021-.05.036-.058v-.493-1.852zm-82.769-.636l-.07-.079c-.127-.064-.142-.565-.156-.593-.05-.086-.148-.172-.176-.265a.828.828 0 0 0-.183-.329c-.071-.064-.268-.207-.276-.164-.007.036-.056.186-.077.279-.021.086-.028.136-.064.214-.028.072-.084.172-.091.193-.141.551-.77 1.195-1.912 1.702l-.106.036c-.331.122-.613 0-.698-.236-.028-.071-.092-.415-.106-.486a2.466 2.466 0 0 1-.035-.393c-.007-.236-.021-.28-.014-.43.007-.185.05-1.08.084-1.265.092-.515.106-.773.233-1.28a21.6 21.6 0 0 1 .205-.723c.05-.157.099-.314.155-.472.028-.078.028-.071.092-.236.063-.164.515-.865.84-.858.697.072.57.787.592.88.014.093-.014.393-.05.536-.05.193-.197.572-.254.765l.043.1c.049.015.24.065.324.058.155.057.275.1.36.229.084.128.762.35.987.436.085.028.163.035.247-.007.12-.215.198-.386.233-.63.007-.043.078-.336.099-.436.24-1.201.056-1.716.05-1.852-.015-.15-.24-.694-.438-.915-.24-.265-.868-.501-1.27-.623-.303-.093-.677-.107-.995-.128-.387-.029-.437 0-.648.021l-.388.057c-.092.008-.177.043-.261.072-.085.028-.163.079-.24.121-.127.072-.247.15-.367.244a2.6 2.6 0 0 0-.536.507l-.056.065c-.106.085-.184.2-.261.307-.135.179-.212.265-.31.465-.156.3-.304.594-.417.915-.035.108-.092.215-.12.322-.07.243-.134.487-.19.73a3.83 3.83 0 0 0-.12.565c-.036.336-.162.722-.155 1.058-.043.1 0 .2-.022.3-.028.1 0 .544.015.672.063.437.063.887.204 1.31.035.106.056.22.099.328.106.286.24.55.409.787.106.15.226.279.353.4l.014.022c.028.028.522.686 1.58.936h.02a3 3 0 0 0 .558.086l.064.008c.105-.008.31 0 .416-.03.451-.085 1.432-.5 1.63-.621.81-.4 1.248-.901 1.318-.987.141-.186.233-.308.304-.565.07-.258.098-.372.105-.544l-.035-.078c-.134-.25-.339-.386-.536-.5zm-20.653 1.345h-.036l-.007-.022.029-.129.028-.121-.007-.122-.029-.164v-.158h-.049l-.014-.157c-.007-.1 0-.2.007-.3.007-.1.021-.172.007-.28l-.035.065c-.007.086-.043.172-.078.258-.035.085-.084.164-.12.25-.049.107-.148.25-.197.315-.07.107-.155.2-.261.286a.85.85 0 0 1-.325.178.57.57 0 0 1-.31.015c-.021-.022-.07-.015-.12-.129-.021-.064-.05-.136-.07-.207l-.022-.079c-.035-.107-.049-.25-.07-.379-.021-.107-.028-.222-.035-.329l-.007-.05.007-.15c0-.537.014-.751.02-1.295v-.071c-.013-.2.008-.265 0-.472-.02-.1 0-.615 0-.7 0-.165.022-.33.022-.494 0-.515.007-1.023.007-1.538 0-.107-.014-.443-.021-.522 0-.05-.043-.415-.106-.63a1.047 1.047 0 0 0-.141-.393c-.29-.471-.734-.707-1.263-.758-.12-.014-.24 0-.36 0-.126 0-.155.008-.373.043l-.163.043c-.303.057-.55.136-.705.258-.106.071-.571.429-.818.708a2.588 2.588 0 0 0-.296.515l-.064.114v-.586c0-.286.014-.494 0-.78 0-.064.021-.272-.035-.286l-.014-.043v-.014l-.007-.05c-.19-.015-.522.093-.65.1-.077.007-.225.093-.324.136-.07.028-.148.121-.233.179l-.373.028-.064.014c-.282.115-.254.036-.691.35-.106.065-.17.108-.24.165l-.063.065-.07.035c-.389.28-.389.38-.509.508-.05.057-.084.28-.07.38l.014.02.042.094a.206.206 0 0 0 .134.107c.212.014.296-.086.353-.086.099 0 .204-.043.254.036l.056.086c.078.193.078.572.078.772v1.559c0 .072 0 .636-.007.758-.043.064-.029 2.746-.029 4.312l-.014.015c.022.071-.014.071.007.15.1.057.276.186.36.257.085.072.184.1.29.129.155.043.31.057.465.086l.106.007a.376.376 0 0 0 .303-.1l.12-.093c.099-.029.198 0 .303 0 .113 0 .226-.022.339-.036l.092-.079.049-.114v-.136c.021-.1.021-.207.028-.308v-.064l.007-.136c0-.55.007-1.101.007-1.645v-1.15c0-.48.064-1.503.057-1.982 0-.121 0-.164-.007-.329 0 0 .035-.15.056-.229.078-.257.148-.364.226-.543.24-.558.48-.88.67-1.008.127-.086.17-.143.296-.165h.085a.386.386 0 0 1 .352.229.906.906 0 0 1 .092.408c-.007.45-.021.9-.028 1.344 0 .343-.056 1.237-.064 1.573 0 .129.05.258 0 .38v.064c0 .214-.007.429 0 .643.008.215-.028.45 0 .637 0 .1.022.186.036.743l.007.03c.05.328.204.972.656 1.358.31.315.86.558.86.558.261.057.41.085.685.057.077 0 .162-.007.24-.022h.155c.091-.007.183-.014.275-.028.07-.007.134-.029.204-.05l.148-.05c.642-.33.685-.622.762-.73l.035-.064c.057-.079-.042-.022-.042-.043l.035-.086.029-.1c.063-.143.112-.286.19-.422l.021-.05c.007-.05.021-.064.021-.15l-.091-.014zM31.1 8.148c.042-.079-.05-.186-.056-.307-.008-.122-.05-.122-.057-.286.028-.13.113-.294.07-.451l-.077-.072a1.304 1.304 0 0 0-.444-.071l-.057-.014-.127-.022c-.204 0-.536-.007-.74 0-.113 0-.282.029-.374-.007l.007-.4c.014-.108.007-.272.007-.344.007-.093 0-.121 0-.214v-.98c0-.279.007-.322.007-.593v-.022h.007v-.043c.007-.279-.078-.543-.219-.8-.084-.158-.204-.33-.402-.43l-.162-.086c-.162-.035-.212-.028-.374-.028a.33.33 0 0 0-.282.136l-.064.171-.035.136c-.099.064-.254.15-.303.222l-.155.036-.113.057c-.064.014-.134 0-.198.036-.07.057-.105.128-.197.178l-.056.1-.008.008V6.918c-.26 0-.747-.007-1.001-.007l-.184.014c-.07.029-.134.029-.204.029-.064 0-.127 0-.19.007l-.05.014-.05.057c-.006.15-.07.294-.056.444l-.007.021c-.05.158-.05.322-.07.48-.014.092 0 .185 0 .25.035.143.14.207.197.3a.61.61 0 0 1-.028.3c-.064.15-.056.35-.035.501.042.086.105.15.169.207.423-.028 1.08-.014 1.432.008l.077-.008s0 .315.008.472v2.317c0 .172-.008.344 0 .508l.014.129c0 .121.014.164-.008.214.008.108.022.18.029.258.007.193 0 .386 0 .58.007.414-.021.836.035 1.25.014.108.028.208.05.315.056.28.162.537.324.773s.36.436.592.593c.24.165.508.236.783.265.17.014.346.014.522-.008h.036c.183 0 .289-.042.451-.092.085-.043.17-.086.254-.136l.183-.108.085-.057.063-.05a3.37 3.37 0 0 0 .247-.2l.1-.114.098-.1.028-.036.014-.015.092-.107.078-.1.014-.014.007-.008.098-.171.029-.057.014-.058c.077-.186.12-.364.091-.514l-.042.021c.085-.179.028-.193.064-.35l-.036-.065-.042-.05-.07-.1-.022-.007-.035-.022c.021-.093.007-.107.028-.2l-.014-.457-.063-.015-.029-.014-.063-.122-.042.05-.07.244a2.907 2.907 0 0 1-.332.615c-.106.15-.304.264-.43.336l-.029.007a.523.523 0 0 1-.296.007l-.07-.064c-.036-.058-.078-.18-.114-.28l-.02-.078c-.029-.107-.036-.264-.057-.4-.014-.115.007-.2-.007-.315v-.25c0-.108-.029-.136-.029-.244 0-.085 0-.164.008-.25l.007-.157v-.029l-.021.007c0-.193.006-.379.006-.607V9.829l.008-.244c.176-.057.536.058.705.03.17-.037.367-.03.543-.03.07-.035.12.022.198 0 .19-.05.352-.143.409-.357l.035-.079c-.028-.15-.085-.286-.12-.429.05-.079.014-.179.035-.264.029-.115.036-.215.078-.308zm-17.62 2.174s-.029.107-.078.258c-.05.114-.12.193-.19.3a.854.854 0 0 1-.438.357c-.247.029-.303.008-.557-.007a1.461 1.461 0 0 1-.487-.143l.014-.078c.078-.372.276-1.045.325-1.252.106-.4.353-1.044.458-1.123.085-.064.106-.121.297-.121.148.021.19.014.296.107.141.2.26.365.303.672.078.422.099.758.057 1.03zm2.073-1.802a2.596 2.596 0 0 0-.31-.608c-.106-.164-.38-.508-.578-.6-.17-.086-.24-.158-.423-.208-.417-.122-.741-.215-1.256-.2-.579-.065-.931.043-1.037.064-.219.05-.374.15-.578.236a2.465 2.465 0 0 0-.593.415c-.635.63-.79.98-1.114 1.623-.085.165-.205.637-.24.815a9.18 9.18 0 0 0-.07.48c-.078.092-.17-.05-.269-.093a2.143 2.143 0 0 0-.6-.172c-.028.086-.077.165-.12.243-.098.172-.352.114-.31.308.036.171-.148.214-.204.371-.064.158-.41.33-.402.508.007.165.063.222.225.293.205.093.917.422 1.136.487.092.028.247.071.339.114 0 0-.021.3.007.68.02.25.106.529.19.965.028.157.12.715.353 1.137.233.436.72 1.144 1.41 1.452a4.28 4.28 0 0 0 1.15.329c.24.028.755.007 1.298-.093h.007c.332-.065.67-.165.96-.308.183-.086.324-.171.472-.293a4.36 4.36 0 0 0 .332-.286.855.855 0 0 0 .155-.236c.092-.193.056-.365-.099-.515l-.176-.165c-.07-.078-.134-.164-.212-.257l-.091-.021c-.043-.086-.092-.165-.134-.25l-.05-.15c-.014-.208-.106-.387-.162-.566-.07-.064-.113-.136-.198-.164-.098.128-.24.286-.373.415-.339.293-.847.636-1.185.758-.092.014-.24.028-.403.021-.133-.029-.26-.057-.352-.143-.205-.186-.254-.494-.31-.737-.064-.293-.057-.55-.1-.85-.013-.086-.006-.237-.006-.365.289.05.705.121.959.107l.106.007c.19 0 .38.007.571 0 .12-.007.233-.036.353-.057.282-.05.543-.172.797-.308.07-.042.14-.085.204-.143.29-.25.515-.536.692-.88.077-.15.134-.307.176-.464.113-.372.113-.272.148-.586l.028-.13.007-.07v-.158c.029-.222.036-.4.022-.772.035-.072-.085-.83-.142-.98zm-5.255 9.54c-.056-.072-.12-.158-.19-.243-.141-.258-.515-.83-.628-1.016l-.106-.157c-.07-.107-.14-.222-.218-.33-.099-.142-.184-.3-.275-.443a2.89 2.89 0 0 0-.163-.243c-.049-.071-.105-.15-.148-.221-.05-.086-.091-.18-.155-.244-.07-.071-.092-.171-.148-.25-.092-.121-.17-.257-.254-.386-.148-.215-.275-.436-.43-.644-.092-.128-.17-.271-.254-.407-.198-.315-.402-.622-.593-.944-.063-.107-.14-.208-.204-.315a5.988 5.988 0 0 0-.219-.357c-.12-.2-.374-.687-.494-.887-.105-.172-.218-.344-.324-.508l-.254-.408c-.085-.135-.162-.278-.247-.414l-.106-.172c.29-.386.53-.715.522-.722.226-.265.811-1.137.995-1.466.042-.072 1.615-2.417 1.63-2.446.09-.143 1.227-1.802 1.255-1.852.162-.243.613-.887.755-1.087l.07-.115.127-.236.021-.035c.05-.093.078-.093.148-.286.043-.115-.12-.23-.14-.25l-.114-.03-.098.03-.141.078-.184-.143c-.148.014-.127.043-.268-.05L9.27.711a1.75 1.75 0 0 0-.381-.222C8.725.418 8.69.275 8.4.153l-.148-.05c-.078.014-.113.079-.212.186l-.056.028-.021.022-.036.029c-.07.1-.112.171-.148.236L7.773.61c-.07.093-.127.2-.19.3l-.021.036a1.56 1.56 0 0 1-.226.307l-.092.136c-.084.157-1.107 1.638-1.213 1.78-.141.208-2.151 3.176-2.243 3.333-.092.158-.212.293-.31.45-.135.208-.283.401-.43.602l-.092.107-.092.128v-.114c0-.1.014-.243 0-.343-.014-.086 0-.458 0-.515V5.459l.035-2.245c.007-.043-.021-.787-.007-.987h.007V2.19c.021-.107.021-.343 0-.386v-.05c0-.286-.021-.622-.028-.901.035-.186-.099-.286-.155-.394-.07-.121-.388-.157-.53-.193L1.87.124h-.056L1.65.132c-.071-.008-.127.021-.184.05l-.183.093-.177.057-.112.014C.832.31.19.267.078.39.049.41.035.625.042.718c-.007.079-.014.565-.028.665a.438.438 0 0 1 .014.286l-.02.143v.3L0 2.134v.007h.007C.007 2.534 0 3.4 0 3.686c0 .414.035.83.035 1.244 0 .272-.014.536 0 .801.014.293-.07.586 0 .88v.042c0 .2-.007.4 0 .601 0 .079-.035.165 0 .243v.215c-.007 1.359 0 2.71 0 4.069v.372c0 .071.014.35 0 .422-.007.021 0 1.165 0 1.251v2.775c0 .15.057.3 0 .443v.065c0 .679-.035 1.23-.035 1.916l.07.1c.064.05.142.036.198.079h.155c.155-.029.155-.064.254-.122l.028-.014.149-.079.091-.035c.127-.115.31.171.466.128.084-.021.183-.114.282-.071.063.028.127.043.197.064l.459.4h.212c.296.036.225-.242.26-.378l-.02-6.644c.013-.021.204-.3.394-.58.078.115.141.215.177.273.134.221.282.429.423.65.07.108.268.508.338.608.254.35.466.73.699 1.094.183.294.367.594.55.894l.508.816c.113.185.226.371.353.543.077.107.148.214.218.329.099.164.099.093.198.265.084.135.183.257.268.393.091.143.19.307.282.465.106.2.212.407.317.529.057.071.127.172.198.272l.028.035.12.143c.106.108.19.23.36.287.127-.015.296.028.43-.05.092-.05.106-.15.19-.23.029-.028.163-.142.184-.228l.042-.057c.113-.065.212-.122.31-.172.29-.072.332-.079.523-.086.02.014.084.014.162.021l.105.015c.135.028.113.028.24-.086.05-.2-.014-.257-.084-.5l-.035-.036zm134.536-3.018l-.014.007c-.395-.658-.825-1.359-.91-1.473-.091-.122-.169-.258-.246-.386-.12-.208-.318-.551-.431-.765-.098-.186-.211-.372-.317-.558l-.437-.708c.077-.093.169-.179.246-.272l.057-.064c.155-.208.36-.365.529-.565.155-.186.296-.38.48-.537l.007-.007c.112-.15.261-.272.388-.415l.105-.157c.014-.014.205-.2.438-.472l.014-.021.077-.086-.077-.107-.007-.043a.31.31 0 0 0-.106-.186c-.085-.072-.219-.165-.254-.236a6.113 6.113 0 0 0-.473-.773l-.098-.15c.014-.071-.007-.114.014-.171.021-.065.042-.093 0-.143l-.17.007-.183.157c-.099.072-.346.35-.529.536-.035.036-.085.1-.148.172-.296.308-.557.58-.586.6-.155.172-.338.358-.493.53l-.029.029c-.112.171-.246.243-.38.4-.17.2-.346.358-.508.558-.106.136-.29.336-.29.336V8.513c0-.765.015-1.466.015-2.231l-.015-.193-.021-.186v-.558-.394c0-.4.029-1.28.043-1.866v-.286l-.022-.172c0-.064.022-.128-.028-.157-.113-.057-.43-.215-.508-.172l-.063.022a.257.257 0 0 0-.148.057c-.057.036-.141.043-.233.029l-.127.007-.113.05c-.374.064-.635.214-.875.365l-.042.05c-.035.078-.19-.122-.254-.115l-.035.093-.007.007-.007.015-.007.05-.007.028c-.007 1.48 0 3.683 0 5.07V11.974c.007.243 0 .486 0 .73V16.25l.014.043c.014.244.035.4.063.551.014.086.099.222.198.229.063.007.127 0 .183 0 .05.05.296-.065.402-.093.113-.029.233.014.332.107l.049.007c.064-.078.247-.014.367.029.064-.043.042 0 .155-.007.085.028.254.071.36.071.106 0 .204-.064.317-.1l.022-.186c.021-.143-.008-.221.007-.364.007-.072 0-.1 0-.23.007-.07.007-.135.007-.185l-.007-.108c-.029-.064.007-1.43.007-1.501v-.558l.007-.343c-.021-.043-.007-.265-.007-.33l.091-.128c.078-.072.029-.029.12-.143.254.415.494.83.536.894.071.121.155.236.219.365.049.107.113.2.176.3.085.143.163.293.247.436.078.122.134.265.233.38.071.078.134.164.183.25.184.336.367.672.586.986l.021.029a1.7 1.7 0 0 0 .141.229l.028.043c.071.121.155.229.24.343a.207.207 0 0 0 .169.093c.134-.086.254-.186.395-.25.191-.086.381-.172.579-.244.296-.1.578-.221.874-.321a.32.32 0 0 0 .24-.265c-.127-.2-.261-.408-.381-.622-.141-.207-.261-.415-.388-.615zM75.546 3.507h.994c.07 0 .134 0 .198-.007l.48-.444c-.015-.085-.057-.15-.142-.164a.223.223 0 0 1-.155-.122s-.028-.186 0-.271c.028-.086.19-.35.205-.365l-.014-.129-.113-.279c-.021-.05-.127-.243-.127-.314l.02-.05c.015-.143-.077-.2.015-.308l.092-.136c.007-.064-.1-.35-.113-.372l-.05-.05H73.141c-.12-.078-.234.015-.353 0l-.1-.007c-.084-.043-.175-.029-.26-.029h-1.22c-.247 0-.487-.007-.734-.007-.085 0-.17-.014-.24.015-.084.028-.17.028-.26.028h-3.972l-.106.043c-.007.143-.021.3.014.45.021.1.035.2.113.28.064.064.12.135.19.186.106.064.184.157.269.25.127.136.176.3.225.472 0 .207.036.407-.02.615l-.008.179c.021.071.028.15.042.221.022.086.05.172.078.25l.085.115c.063 0 .126.007.19.007.092-.007.317-.021.41-.007.253.036.394 0 .394 0l-.007.672v1.967c0 .307-.007-.15-.007.157v1.459c0 .114.014.229-.028.343V9.78l.021.143a.482.482 0 0 1 .007.264c-.021.072-.021.136-.021.2 0 .608-.007 1.81-.007 2.625l-.021.029v.629c0 .186.007.372.007.55V14.255c.007.23.007.465.014.694l.028.157c.028.107.042.215-.007.322l-.021.107c-.007.1-.007.2-.007.308 0 .271-.007.55-.007.822l.02 1.073c.008.307 0 .608 0 .915l-.013.108c-.078.107-.05.214-.05.314l.043.036.084.036c.07 0 .134 0 .205.007l.12-.107.099-.036a.474.474 0 0 1 .437.028l.134.05.05-.014.133-.05.127-.05a.837.837 0 0 1 .36-.172l.07-.007a.316.316 0 0 1 .254.029h.057l.085-.086h.007c.098.072.218.086.331.114l.148-.064c.05-.1.085-.2.085-.315 0-.357.007-.457.007-.815v-.972c0-.086.028-1.145.014-1.195l.014-.178v-.4-1.166c0-.25.007-.172.007-.408l.014-.129c.036-.164.022-.493.022-.558v-2.13l.007-.065.07-.05h.162l.141-.007.156.007.12-.007c.077-.036.416-.029.493-.029H73l.254-.007.014-.064v-.18c0-.07.007-.135.014-.192.184-.2.212-.2.261-.336v-.1c-.05-.115-.098-.294-.148-.394-.014-.114.035-.121.078-.186.092-.071.162-.128.24-.186l.077-.164v-.229c0-.129.043-.243.099-.35l.063-.086c.022-.293.015-.487-.014-.537l-.056-.042h-2.864c-.078 0-.162 0-.233-.008l-.106.008c0-.065.008-.222.008-.287 0-.278.007-.965.007-1.244 0-.45.035-1.945.035-2.117v-.135H74.29l.247-.008c.218-.035.218-.035.437 0h.064c.084-.043.423-.021.508-.021zM62.757 7.41c-.007-.171.007-.143-.056-.25a.346.346 0 0 0-.156-.129l-.098-.05c-.07-.05-.177-.057-.29-.064-.084.007-.14.1-.24.086-.07-.022-.14-.05-.204-.072l-.148.13c-.176-.072-.374-.044-.508-.173h-.042l-.134.1-.473.022-.07.072c0 .128-.007.25-.007.379a6.987 6.987 0 0 0-.007.543c-.029.165-.008.265-.008.393 0 .136 0 .265.008.4v.795c0 .186.014.371-.008.557-.014.165-.035.315-.035.48 0 .343.029 1.38-.042 1.716-.035.179-.035.372-.07.55-.036.18-.057.365-.092.544-.07.35-.19.458-.332.787-.07.157-.17.3-.289.421a1.265 1.265 0 0 1-.367.208c-.233.064-.458-.079-.472-.086-.212-.357-.22-.794-.24-1.201-.007-.1 0-.2 0-.294v-.386c0-.236.007-.228 0-.464v-.294c0-.128.014-.908.014-1.037-.007-.228 0-.457 0-.686v-.65c0-.18-.042-.387 0-.566.028-.114 0-.257 0-.372-.007-.243.007-.486 0-.73-.007-.2-.014-.278-.014-.45v.007-.078a1.078 1.078 0 0 0-.134-.486l-.163-.13-.133-.056a.601.601 0 0 0-.389-.022c-.169.05-.331.1-.514.15a1.817 1.817 0 0 0-.621.007c-.085.043-.296.08-.416.136-.036.072-.092.143-.099.215-.014.1.014.357.007.508l-.007.071c-.007.172 0 .336 0 .508v.722c0 .086.007.157 0 .243-.05.487-.014 1.002 0 1.488.007.243.035.493 0 .736-.028.193.007.365 0 .558-.021.93.07 1.86.296 2.76.198.801.536 1.745 1.397 2.039.12.028.6.107.712.085.162-.028.586-.078.734-.143.204-.093.487-.178.656-.321.092-.072.176-.158.254-.236.084-.08.345-.465.331-.501l.022.372c.042.844-.156 1.487-.149 1.502-.19.7-.67 1.587-1.241 1.995 0 0-.155.121-.233.171.035.08.064.158.092.236l.084.1c.106.144.226.28.36.394.134.129.212.336.339.522.197.293.176.686.585.787l.127.021.106-.064c.388-.25.762-.68 1.016-1.066.113-.172.254-.322.38-.486.1-.129.17-.258.24-.393.19-.401.417-1.08.494-1.517.205-.772.268-2.202.254-2.975v-.843c0-.122-.007-.236 0-.358.007-.086-.007-.164 0-.25.007-.079-.021-.136 0-.215v-.143c-.014-.114 0-.221 0-.336v-.75c0-.144.007-.287 0-.43-.007-.121 0-.243 0-.364 0-.23-.07-.494 0-.709v-.193c-.063-.178-.007-.336 0-.514.007-.08 0-.136 0-.215v-.2a3.972 3.972 0 0 1 .007-.58c.014-.1-.007-.214-.007-.314v-.336c0-.215.014-.708.014-.758-.028-.129-.014-.444-.02-.58zm18.904.537c-.07-.208-.38-.6-.515-.737-.084-.086-.19-.143-.289-.207a.895.895 0 0 0-.268-.115c-.099-.028-.212-.028-.31-.057-.106-.028-.212-.021-.31-.021a.877.877 0 0 0-.332.036c-1.566.178-1.707 1.137-1.764 1.2l-.084.23.014-.3v-.094l.007-.064c-.021-.086.014-.393-.007-.508v-.014c-.043-.136-.021-.186-.113-.279-.085-.086-.19-.078-.31-.071-.339.021-.29.093-.452.057l-.127.036c-.127-.008-.233.043-.409.114l-.275.093c-.099.036-.205-.007-.303 0-.106 0-.254-.071-.367-.071l-.043.021-.084.093c-.007.071 0 .329 0 .329v5.628c0 .965.007 1.466.007 2.431 0 .28.007.594.007.901-.007.208-.007.408.028.422.035.015.543-.057.882 0 .12.015.226.065.317.129.085.057.536.207.607.265a.242.242 0 0 0 .233-.022l.07-.079c.226-.121.247-.128.318-.207.049-.093.014-.214.014-.329.014-.114.02-.164 0-.543V16.1c.007-.028-.014-.293-.014-.407v-.05c0-.794.007-1.36.007-2.253v-1.352c.007-.25.02-1.101.02-1.101v-.293c.163-.772.452-1.28.495-1.345.19-.307.557-.557.797-.522.24.036.204.608.204.694v.415c0 .05-.035.357-.035.465v.135c.296.043.783-.092.966-.057.536.1 1.235-.3 1.362-.286l.091.015.142-.015v-.8c.02-.015-.071-1.138-.177-1.395zm-42.767.028V7.57l-.007-.1c0-.079 0-.158-.007-.23-.007-.078.021-.2-.042-.242l-.261.028-.155.086-.057.05c-.105-.028-.204-.036-.303-.05a3.14 3.14 0 0 0-.24-.079l-.085-.007-.155-.043c-.07-.014-.12-.093-.169-.085-.078.014-.141-.008-.219-.029l-.176.036c-.078.014-.141-.043-.226-.022l-.183.05a.295.295 0 0 0-.19.244l-.008.1V7.383c-.007.279-.014.608-.02.951v.05c-.008.493-.022.994-.022 1.366-.007.522-.014 1.044-.014 1.566 0 .057-.05 1.752-.05 1.902 0 .1 0 .18-.007.243-.063.18-.091.35-.204.494-.17.214-.6.415-.882.4H35.1a.24.24 0 0 1-.183-.093 1.048 1.048 0 0 1-.247-.679V9.821c0-.271.007-.593.014-.886v-.007l.021-.165c-.007-.172.029-.58-.028-.744.064-.164.007-.457.028-.6-.035-.143-.063-.28-.127-.387l-.014-.035c-.049-.122-.275-.158-.416-.072l-.113.057-.148-.035-.14.014-.086.036c-.169.078-.317.114-.458.121h-.014l-.035.007c-.177.008-.346-.028-.536-.05l-.127-.028-.085.007a.428.428 0 0 0-.212.207c-.014.33-.007.622-.035.916-.028.25.021 1.101 0 1.351h.014c-.007.744-.014 1.588-.014 2.382l.021.171v.036l-.014.164c-.007.608-.007 1.209-.007 1.817 0 .314-.014.622.042.937.021.107.014.221.043.336.035.15.049.307.091.457.1.394.282.737.586 1.016.183.172.402.25.628.322.105-.007.197.057.31.05.113-.007.226 0 .339 0 .098 0 .19-.015.289-.043.183-.05.55-.172.72-.257.147-.08.295-.165.437-.244.225-.128.352-.207.613-.414l.064-.058.028-.007v.036l.014.072.007.185v.08c.028.085.064.17.099.264l.021.035v.008l.028.043c.099.05.17.193.339.171.19-.05.31-.043.486-.029l.142-.007c.077.008.155-.021.232 0 .036.008.1.029.17.008h.028c.127.014.29.05.416.107l.346-.043.091-.043.007-.014.022-.015c.028-.064.056-.135.077-.221l.007-.072c-.007-.136-.007-.272-.014-.407l.007-.13-.014-.107-.007-.014.007-.05v-.028l-.007-.029h.014v-.043c-.014-.436.007-.894 0-1.33-.007-.48-.014-.958-.014-1.43 0-.558 0-1.109.007-1.667 0-.572 0-1.144.007-1.709 0-.264.007-.643.014-1.008v-.193c.007-.25.014-.465.014-.637zm15.01 5.192l-.084-.121c-.219-.3-.451-.694-.67-.994-.063-.093-.268-.465-.332-.558l-.084-.122-.007-.014c-.057-.079-.085-.129-.155-.222l-.163-.3c.078-.129.078-.072.163-.186.19-.257.324-.329.543-.572.232-.258.155-.122.296-.322l.127-.172c.099-.128.219-.243.317-.371l.036-.05.042-.058c.092-.121.197-.229.303-.343l.416-.508c.029-.028.05-.021.029-.121-.022-.1-.12 0-.163-.057.036-.165-.14-.272-.105-.444-.12-.136-.339-.286-.438-.465l-.028-.021-.155-.122v-.007l-.014-.014c-.092-.122-.141-.272-.226-.4l-.162-.044c-.113.03-.17.15-.233.215l-.014.014-.07.036c-.156.107-.374.38-.494.522-.198.229-.318.322-.522.587-.184.236-.254.25-.438.486-.07.086-.155.164-.218.257-.085.129-.177.179-.276.293-.098.115-.211.172-.303.287-.155.193-.296.386-.451.579-.021.021-.092.143-.07.007l-.015-.036c0-.229-.007-.45-.007-.68v-.915c0-1.008.021-2.781.021-3.761l.021-.186c.022-.129-.02-.472 0-.586l.022-.53c-.008-.364-.015-.73-.008-1.094 0-.1-.007-.207-.049-.286-.063-.079-.141-.107-.212-.079-.26.086-.493.015-.726-.1l-.113-.071a.288.288 0 0 0-.233-.022c-.07.058-.14.122-.225.18a.797.797 0 0 1-.31.128c-.325.05-.502.143-.586.443-.028.1-.05.322-.085.422a.345.345 0 0 0-.021.222l-.007.694v6.057c0 .078 0 .157.014.236.014.071-.014.15-.014.229v2.116c0 .057.007.05.014.172.007.121-.007.264-.014.307v.508s.014 2.081.021 2.796V16.293l.007.029.021.186.007.1.029.114.007.029h.007l.014.043c.042.122.113.2.247.243l.077-.029c.113-.114.325-.143.487-.178l.07.007c.205.086.466.229.6.25l.642.022c.261-.065.176-.186.268-.415l.007-.093h.007c.028-.15.035-.415.035-.544 0-.1 0-.2-.007-.3a72.096 72.096 0 0 1-.014-1.216l.007-.229v-.157l-.007-.1v-.515c0-.093-.014-.35.007-.536l.353-.35c.12.178.141.235.254.407.24.357.472.722.705 1.08.184.279.804 1.316.98 1.595.085.128.269.371.36.5.142.207.374.515.508.722.07.029.127.143.205.136.021 0-.035.036.183-.093.106-.064.212.007.261-.028.113-.1.219-.2.367-.236.141-.036.268-.28.381-.272.113.007.882-.343.84-.408-.029-.05-.988-1.594-1.094-1.745-.134-.2-.614-1-.705-1.144z"/></svg>