<svg xmlns="http://www.w3.org/2000/svg" viewBox="0 0 28.5 28.8"><path d="M21.7 28.8H3.3c-1 0-1.8-.4-2.4-1.1-.6-.6-1-1.6-.8-2.5l1.2-22C1.3 1.4 2.8 0 4.5 0H23c1 0 1.8.4 2.4 1.1.6.6 1 1.6.8 2.5l-1.2 22c0 1.7-1.5 3.2-3.3 3.2z" fill="#FFF"/><path d="M5.2 27H.8L2.2 2.6l.2-1.4.8-.4h3.4L5.2 27zM27.6 26l-4.2 1h-4.3L20.7.9H25L27.6 26z" fill="#E52E2A"/><path d="M21.8 28.8H3.3c-1 0-1.8-.4-2.4-1.1-.6-.6-1-1.6-.8-2.5l1.2-22C1.4 1.4 2.8 0 4.5 0H23c1 0 1.8.4 2.4 1.1.6.6 1 1.6.8 2.5l-1.2 22c0 1.7-1.4 3.2-3.2 3.2zM4.5 1.7c-.9 0-1.5.6-1.5 1.5l-1.2 22c0 .4.1.9.4 1.1.2.4.7.5 1.1.5h18.5c.8 0 1.4-.6 1.4-1.5l1.2-22c0-.4-.1-.9-.4-1.1-.2-.4-.7-.5-1.1-.5H4.5z"/><path d="M13.6 6.4c-2.8 0-4.9-2.2-4.9-4.9h1.8c0 1.7 1.4 3.1 3.1 3.1 1.7 0 3.1-1.4 3.1-3.1h1.8c0 2.7-2.1 4.9-4.9 4.9zM21 27l.2 1.8h.6c.2 0 .4 0 .6-.1 1.1-.2 3.2-.7 4.5-1.1 1.4-.5 1.6-1.8 1.5-2.4L26.2 2.7l-.6.3 1.1 22.5c.1.5-.3.7-.5.7L21 27z"/></svg>