<svg viewBox="0 0 11 11" xmlns="http://www.w3.org/2000/svg"><path d="M8.25 6.05c0-.303.248-.55.55-.55.302 0 .55.247.55.55v3.3c0 .913-.737 1.65-1.65 1.65H1.65C.737 11 0 10.263 0 9.35V3.3c0-.913.737-1.65 1.65-1.65h3.3c.303 0 .55.247.55.55 0 .302-.247.55-.55.55h-3.3a.552.552 0 0 0-.55.55v6.05c0 .302.247.55.55.55H7.7c.302 0 .55-.248.55-.55v-3.3zM9.9 1.1H7.15A.552.552 0 0 1 6.6.55c0-.303.247-.55.55-.55h3.3c.303 0 .55.247.55.55v3.3c0 .302-.248.55-.55.55a.552.552 0 0 1-.55-.55V1.1z"/><path d="M4.79 6.99a.548.548 0 1 1-.775-.775l6.05-6.05a.548.548 0 1 1 .776.775L4.79 6.99z"/></svg>