<svg viewBox="0 0 150 111" xmlns="http://www.w3.org/2000/svg">
<path 
d="M87.861 69.186c-.07 1.612.043 2.765-.13 2.99a.397.397 0 0 1-.2.139c-.259.087-1.463.104-7.144-.693-.165-.061-.563-.096-1.118-.14.503 1.041 1.369 3.035 1.456 4.595.095 1.569.632 7.429.84 9.787.216 2.357.978 15.299 1.126 16.547.346 2.965-.079 4.889.233 5.938a.29.29 0 0 1-.164.347c-2.079.858-3.17.52-3.837 1.803-.052.095-.208.052-.234-.061l-.277-1.56c-1.091-3.892-1.464-19.582-1.464-19.582s-.762-11.555-.762-14.294v-.147c0-.182.078-.624.113-.754l.026-.087c.121-.45.294-.97.459-1.474-.58.113-1.265.07-1.499.052-.207.035-1.039.14-1.662-.208.199.616.398 1.283.502 1.96.017.103.043.554.026.866-.208 4.421-2.408 32.211-2.711 32.792-.26.971-.511 1.188-.797 1.56-.286.373-.753 1.543-1.256.971-.857-.971-.805-1.109-2.814-2.002a.286.286 0 0 1-.174-.277c.018-2.012.364-3.208.72-6.302.146-1.249 1.463-13.965 1.67-16.323.217-2.357.745-8.217.84-9.786.087-1.456.84-3.285 1.352-4.377-.615.06-1.187.112-1.403.156-4.443.52-6.938.485-7.137.485-.303.052-.26-.737-.338-2.575-.078-1.846-.147-2.678-.069-2.973.078-.303.33-.476 1.698-.433 1.368.043 5.785.217 6.963.485 1.542.364 1.923.746 1.923.746s.355-.902 1.178-.902c.744 0 .935.139 1.195.165h.45c.26-.026.45-.165 1.195-.165.823 0 1.178.902 1.178.902s.382-.382 1.923-.746c1.178-.277 5.127-.563 6.496-.606 1.368-.035 1.62.13 1.697.433.078.303.009.91-.069 2.748zM133.897 14.645c-.01.093-.062.228-.103.373a2.487 2.487 0 0 1-.249.321 1.242 1.242 0 0 1-.725.425c-.384 0-.757-.03-1.13-.093a9.493 9.493 0 0 1-.756-.197l.031-.31c.031-.27.155-.84.187-.934.082-.228.3-.704.404-.922.155-.31.3-.55.57-.777.228-.187.497-.29.808-.177.093.032.259.094.362.166.218.166.374.353.467.736.197.736.197.798.134 1.39zm3.109-1.793c-.062-.363-.269-1.306-.642-1.7-.446-.456-1.047-.984-2.715-1.264-.663-.042-1.078-.01-1.192-.01-.3 0-.311.03-.622.051-.248.02-.476.104-.715.166-.238.052-.455.176-.673.27-.311.145-1.057.6-1.295.953-.239.353-.456.705-.601.891a3.9 3.9 0 0 0-.404.695c-.104.207-.415.767-.487.995-.042.145-.187.456-.228.55l-.425-.146-.104-.01c-.176.186-.217.404-.28.622a1.363 1.363 0 0 0-.062.539c.021.176-.072.217-.062.393.01.125.104-.155.062-.03-.072.207-.124.424-.186.642-.042.135-.125.052-.114.197.01.114.01.228.01.31.135.332-.072.187.238.322l.632.238-.031.757.011.249c.083 1.513.311 2.166.383 2.373.104.29.228.57.352.85.291.705.767 1.285 1.316 1.824.27.26.612.415.902.653l.062.021c.881.415 1.15.404 1.15.404s.404.062.601.062c.518 0 .705-.01 1.306-.124a8.126 8.126 0 0 0 1.005-.332l.228-.072c.632-.228 1.223-.518 1.71-.964.145-.135.29-.27.414-.425a.965.965 0 0 0 .176-.321c.094-.26.021-.477-.217-.653l-.27-.187c-.114-.093-.207-.197-.331-.3l-.125-.01c-.072-.104-.155-.198-.228-.301l-.093-.187c-.052-.27-.207-.487-.321-.705-.114-.072-.187-.166-.301-.186-.228.362-.228.362-.59.622l-.27.196c-.114.073-.621.394-.88.519l-.125.052a7.096 7.096 0 0 0-.29.134c-.435.187-.85.239-1.16.052-.726-.435-.923-1.233-.954-1.938v-.02c-.02-.104.062-1.255.073-1.493l-.011-.083c.498.083 1.244.197 1.368.259l.156.031c.29.031.58.073.86.093.176.01.362-.01.539-.02.435-.021.849-.156 1.253-.301.114-.041.228-.104.332-.166.466-.3.86-.674 1.181-1.12.352-.486.342-.507.56-1.046.01-.031.093-.238.186-.653.031-.145.052-.415.042-.726v-.051c.02-.518-.031-1.14-.104-1.441zM97.6 45.655c.186-.446.455-.86.942-.985-.082.01-.176.032.063-.02.145.01.28.083.414.134.135.135.26.29.31.477.053.197.115.394.167.58.093.394.114 1.255.01 1.648-.083.312-.57.488-.943.591-.114.021-.228.042-.342.073a4.475 4.475 0 0 1-1.347-.01c.073-.58.498-1.97.726-2.488zm4.807 6.851c-.062-.093-.134-.197-.176-.3-.052-.146-.145-.26-.217-.384-.031-.114-.021-.228-.094-.332-.062-.093-.093-.217-.124-.321-.041-.114-.062-.228-.104-.332l-.062-.072-.083.02c-.062.125-.041.26-.051.394-.031.674-.27 1.265-.632 1.814a1.423 1.423 0 0 1-.228.26c-.291.227-.581.455-.933.559-.124.041-.249.093-.373.145l-.145.041-.249.094c-.114.03-.228.062-.363.083-.445.093-1.067-.094-1.274-.394-1.047-.85-.87-2.508-.808-2.954.321 0 .673-.01.756-.02 0 0 .819-.063.912-.063a4.92 4.92 0 0 0 1.502-.26c1.192-.476 1.845-1.212 2.063-1.512.124-.166.238-.342.352-.508.155-.228.28-.467.331-.736.052-.239.104-.467.146-.705.062-.28.051-.58.041-.86a5.131 5.131 0 0 0-.145-1.047c-.093-.342-.135-.529-.228-.87l-.135-.239a2.267 2.267 0 0 0-.269-.425l-.104-.124-.083-.104c-.487-.466-1.233-.974-1.875-1.15-.352-.094-.632.01-.995-.01-.28-.011-.55-.032-.829-.042-.155-.01-.414 0-.57.02-.653.094-.995.27-1.502.674a6.114 6.114 0 0 0-1.4 1.524c-.372.611-.9 1.97-1.025 2.643-.238-.114.062.083-.352-.27-.176-.145-.104-.124-.27-.217l-.093.041c-.02.187-.114.228-.135.415-.02.176-.217.3-.31.445.04.26-.156.436-.26.664-.103.228-.808.943-.683 1.088.227.28.673.57 1.036.788.259.155.28.145.56.28.113.051.072.342.082.549.02.352.207 1.44.28 1.793.052.3.135.601.207.912.135.643.601 1.41 1.078 1.876.508.487.777.777 1.399 1.088.197.104.383.187.57.249.435.187.735.228.86.249.466.062.922.072 1.388-.042h.01c.166-.01.322-.03.415-.041.135-.031.28-.083.414-.135l.27-.093c.28-.052.435-.093.673-.208.208-.093.363-.176.55-.31a8.243 8.243 0 0 0 1.15-1.047c.145-.26.269-.529.362-.82.125-.414.197-.839.156-1.274a5.27 5.27 0 0 1-.384-.487zm43.687-33.922v.176c-.114.487-.322.777-.57 1.212-.239.405-.384.436-.736.767-.342.322-1.565.778-1.772.736l-.383-.02c-.197-.073-.301-.063-.415-.145-.321-.374-.456-.788-.57-1.275-.062-.228-.342-1.804.218-4.488.114-.373.093-.415.414-1.171.311-.757.86-1.804 1.347-2 .539-.218.809-.094 1.068.02.29.135.507.31.704.57.187.26.788 1.244.777 1.72-.041.716-.082 3.898-.082 3.898zm3.844-14.811c-.052-.218-.011-.487-.011-.643l-.093-.218a.97.97 0 0 0-.29-.062c-.238 0-.684.29-.912.3-.238.011-.466.032-.704.042-.094 0-.197-.186-.291-.176l-.435-.072-.083.134c-.072.176-.072.104-.145.27l-.072.062c-.093.031-.166-.031-.259-.052l-.207.062c-.094.083-.26.26-.27.353v.134c0 .25.01.456 0 .736 0 .063 0 .25.01.436v.207c-.01.446-.031.88 0 1.316.032.508 0 1.016 0 1.524 0 .207-.01.259-.01.477v.777c0 .093.021 1.503.021 1.492 0-.134 0-.207-.135-.383-.352-.3-.477-.363-.932-.477a4.624 4.624 0 0 0-1.348-.166c-.114 0-.228-.01-.341.01-.125.021-.964-.051-2.55.85a4.81 4.81 0 0 0-1.129.965c-.332.393-.539.829-.767 1.295-.103.218-.166.456-.269.684a6.5 6.5 0 0 0-.259.767c-.145.508-.342 2.457-.384 2.985-.02.238 0 1.461.021 1.596.021.27.052.529.083.788.01.124.031.249.031.373 0 .062.259 1.026.332 1.275.072.207.103.414.197.622.093.238.683.995.808 1.192.497.539 1.222.943 1.627 1.109.414.176.58.29 1.036.32.984.053 1.72.042 2.621-.403 1.016-.498 1.254-.798 1.254-.798.042.114.021.238.021.362v.364l.021.082.083.239.145.03c.176.104.29-.155.476-.051.156.02.301-.042.467-.021.176-.041.331-.114.507-.02h.052c.383-.052.777-.021 1.192.01.217-.083.425.155.663.072a.264.264 0 0 0 .176-.197c0-.093-.01-.197-.01-.3V23.974c-.011-.125.041-.24.02-.364-.041-.259-.02-.528-.02-.787v-.87-1.556-2.487c0-.27-.031-.684.02-.943.021-.114-.041-.249 0-.342.042-.094-.031-.208-.031-.3v-.892-1.71-3.41c0-.239-.02-.487.021-.715.021-.146-.021-.311-.021-.456 0-.239.021-.311.021-.54.021-.663.031-1.326.052-1.99.01-.414.031-.901.041-1.399.011-.445.021-.891.021-1.295l-.062-.145zm-24.91 2.404a1.876 1.876 0 0 0-.664-.933c-.155-.114-.31-.228-.507-.28-.125-.03-.239-.082-.363-.124l-.093-.02c-.197 0-.394-.01-.58-.01-.363.01-.715.113-1.026.32-.27.177-.498.405-.591.736l-.01.031-.135.26c-.166.507.031 1.046.269 1.502l.145.218c.052.114.114.228.187.332.321.466.798.694 1.357.673.498-.02.964.29 1.389-.01.176-.124.342-.332.414-.59l.063-.146c.093-.249.145-.508.207-.777.031-.166.041-.332.031-.498l-.031-.27a.9.9 0 0 0-.062-.414zm-10.974 49.739c0-.218-.031-3.628-.031-3.856V50.6c0-.176.031-.352-.031-.518l.011-.052.02-.28v-1.047c0-.155.011-.819.011-.974v-.964-.498c0-.155-.021-.31-.011-.466.011-.166-.052-.321-.062-.487 0-.187-.031-.363-.062-.55l-.062-.269c-.031-.145-.062-.3-.104-.446-.104-.373-.28-.694-.497-1.015-.166-.239-.404-.384-.601-.56l-.031-.01c-.073-.01-.187-.114-.311-.135-.114-.02-.239-.073-.353-.104a8.339 8.339 0 0 0-.891-.062 4 4 0 0 0-.456.062c-.103.042-.176.052-.352.114l-.155.042c-1.534.518-2.011 1.658-2.062 1.73l-.011-.393v-.446c0-.145 0-.29-.01-.435 0-.083-.01-.239-.021-.394v-.052c0-.104-.072-.207-.145-.218l-.207-.03c-.238 0-.238 0-.684.051-.031 0-.383.083-.674.218-.186.176-.331.383-.59.404l-.176.052c-.176.073-.788.456-1.057.663-.27.197-.415.467-.653.736-.083.093-.124.3-.104.436.073.217.104.259.135.259l.031.041c.104.083.114.041.27.073l.186.093.041.041c.104.083.125.363.156.508.041.208.062.674.062.892-.01.684-.021 1.73-.021 2.414v.187c.073.155 0 .3 0 .456.011.746 0 1.658 0 2.405v.186c.063.125 0 .239 0 .363v3.514l-.01.093a.32.32 0 0 0 .155.218c.239.124.477.248.684.352.684-.042 1.43.114 1.617.186.166 0 .352.125.508.01.207-.072.331-.238.518-.31l.155-.01.073-.166c-.145-.384-.177-.415-.177-.747v-.093c.011-.622.032-1.254 0-1.876.011-.238.042-.477 0-.715-.051-.28.042-.57 0-.86-.031-.208.011-.415 0-.622-.01-.29.011-.746 0-1.026 0-.156.011-.27 0-.456a3.628 3.628 0 0 1 0-.467c.011-.197 0-.435 0-.58v-.093c0-.239-.041-.809.011-1.047.062-.29.207-.58.394-.819l.051-.073c.104-.165.425-.383.601-.476.373-.197.342-.156.446-.166.249-.042.559.135.653.3.155.28.114.477.114.778v6.954l-.011.187c-.01.207.021.3.021.415a3.414 3.414 0 0 0-.031.238v.373l.021.062V55.75l-.011.093c0 .104-.051.757.011.82.124.134.549-.042.715.061l.176.063c.238.072.466.082.704.01.125-.042.26-.042.342-.042.28.042.477.156.633.218.155.02.248-.041.341-.072.114-.042.249-.063.353-.125.124-.083.207-.083.321-.186.031-.094.062-.042.114-.166v-.508h.01zm-33.821-3.15c-.093-.146-.3-.592-.394-.747-.135-.228-.124-.166-.103-.446l.01-.197c.01-.072-.031-.197-.073-.331-.103-.301-.259-.57-.435-.83l-.083-.041-.124.135c-.166.29-.363.56-.539.84-.228.352-.466.694-.767.994-.124.125-.217.29-.352.394-.218.187-.425.404-.663.57-.249.176-.477.363-.746.498-.27.134-.55.217-.84.31-.176.063-.362.073-.538.125-.145.041-.28-.02-.415-.073-.166-.103-.259-.28-.31-.456a3.742 3.742 0 0 1-.136-.84v-1.17c0-.063.052-.54.115-1.15.02-.25.051-.509.082-.747.042-.28.104-.55.156-.83.062-.362.145-.714.217-1.077.063-.332.177-.643.28-.964.062-.197.145-.394.197-.59.062-.218.187-.395.27-.602.093-.218.093-.176.227-.373.166-.249.446-.643.715-.757.187-.072.498-.062.664.093l.134.198c.125.352.156.808.145 1.191 0 .125-.041.228-.041.353-.052.383-.124 1.036-.207 1.264-.063.177-.073.384-.073.58l.456.125c.29-.104.622.073.88.124.395.073 1.39.477 1.514.394.197-.124.228-.238.29-.425.03-.103.083-.217.114-.321.052-.218.093-.435.135-.643l.051-.217c.031-.29.135-.778.135-.778-.01-.89.56-3.016-2.062-3.97-.373-.186-.736-.175-1.13-.279a1.726 1.726 0 0 0-.404-.052c-.3.01-.6 0-.901 0-.249 0-.487.062-.725.114a4.749 4.749 0 0 0-.58.197c-.332.135-.664.28-.954.498l-.104.072c-.114.166-.3.26-.435.394-.186.187-.373.363-.539.56-.114.134-.217.28-.331.425-.249.32-.498.642-.684 1.005-.228.466-.446.943-.622 1.44-.072.218-.103.446-.217.654l-.021.093c.01.135-.062.238-.083.363l-.041.155c-.01.3-.146.57-.156.86-.062.094-.031.208-.041.311-.021.104-.052.208-.052.311-.01.27-.093.54-.083.82l-.042 2.404c.073.134.031.29.094.425.052.134.052.29.083.425.062.217.124.445.217.653.104.217.228.424.384.6.32.343.632.695.984 1.006.332.3.684.57 1.047.83.114.072.227.155.362.175.104.01.197.052.29.104l.166.083c.28.052.55.176.84.145h.124c.207 0 .414.02.621-.01.166-.031.322-.042.487-.042l.125-.01c.166-.073.342-.031.508-.114.58-.093 1.13-.28 1.657-.55a8.973 8.973 0 0 0 1.006-.611c.134-.093.27-.197.383-.311.207-.197.404-.394.59-.601.25-.26.436-.56.53-.912.051-.197.144-.26.103-.456-.031-.249-.218-.591-.342-.788zM69.01 39.228c0-.27-.062-.539-.145-.788a1.841 1.841 0 0 0-.788-1.057 1.48 1.48 0 0 0-.58-.228c-.114-.02-.238-.031-.363-.052-.124.052-.27.094-.414.114-.125.021-.249.052-.373.094-.404.124-.726.373-.995.694a1.669 1.669 0 0 0-.373.798 2.293 2.293 0 0 0 0 .705l.186.155c.28.073.498-.041.716-.02l.176.072c.134.073.238.187.238.352.01.094.062.187.052.29a.4.4 0 0 0 .093.28c.218.125.487.115.715.218l.093.01c.249.042.477.042.684.021a1.86 1.86 0 0 0 .725-.425l.032-.051.165-.27.145-.28c.01-.093.021-.186.01-.29v-.342zm-17.522 10.8c-.083-.125-.104-.28-.125-.436-.041-.331-.197-.611-.352-.89-.052-.094-.135-.187-.187-.25-.062-.197-.082-.362-.03-.528.072-.29.04-.57-.094-.85-.135-.114-.28-.249-.445-.363-.114-.083-.394-.425-.477-.528l-.052-.094-.03-.176c-.105-.052-.198-.02-.28.062l-.125.114-.073.176-.124.229c-.093.207-.135.31-.218.466-.165.321-.248.611-.383.912-.02.083-.083.218-.135.332-.248.56-.393 1.036-.59 1.482l-.218.528c-.062.125-.114.239-.166.342l-.041.052-.01.021c-.177.363-.342.715-.519 1.067-1.274 2.032-3.378 5.463-4.973 5.214-3.72-.57-2.435-6.716-1.472-10.033.176-.643.363-1.275.58-1.907 1.089-3.13 2.477-6.053 4.83-8.416.414-.404.807-.715 1.657-1.16 0 0 .135-.032.3 0 .156.03.311.3.353.476.041.176.062.31.01.497l-.01.052c-.073.26-.135.518-.228.767-.073.208-.155.404-.228.612-.155.404-.332.808-.518 1.192-.083.176-.187.352-.26.539-.103.28-.258.528-.372.808-.083.187-.197.363-.28.55-.072.144-.145.3-.228.445-.052.104-.135.197-.145.31l.207.053c.384-.01.695.155.954.404l.497.497c.207.104.383.125.56.114h.155c.124.021.259.021.373.073.207.093.414.187.59.352l.104.052.156-.217c.145-.415.352-.798.487-1.203.093-.248.197-.497.29-.746.145-.425.28-.86.383-1.295.083-.301.176-.602.238-.913.073-.32.187-.621.208-.953.083-.124.062-.29.103-.425.052-.145.063-.311.094-.467.02-.114.041-.227.051-.352.01-.114.042-.238.042-.352.01-.125.01-.249.01-.363.176-.912-.31-1.814-.932-2.508-.342-.384-.912-.684-1.503-.86-.135-.135-.342-.177-.663-.228-.259-.042-.466-.021-.777-.01-.26.01-.446.051-.767.072h-.031c-.332.103-.55.145-.819.238a5.47 5.47 0 0 0-.777.3c-.134.063-.259.156-.394.218-.549.373-1.067.778-1.564 1.203-3.109 2.798-5.596 6.374-6.684 10.323-.155.56-.29.953-.404 1.534-1.44 4.964-.984 12.199 5.616 13.878.653.176.943.103 1.379.072.259-.01.507.114 1.056.104.933-.187 2.021-.922 2.715-1.482.187-.156.384-.311.57-.477.176-.156.342-.332.508-.498.176-.176.352-.352.518-.538.114-.125.218-.26.332-.384l.114-.135c.145-.176.28-.362.404-.549a7.72 7.72 0 0 0 .704-1.109c.104-.176.415-.674.498-.86.145-.342.342-.674.518-.995.135-.239.352-.84.539-1.306l.041-.228c.052-.249.083-.487.166-.736.041-.104.041-.228.052-.321l-.083-.177c-.083-.134-.093-.29-.176-.414zm73.518-39.022v-.02a2.833 2.833 0 0 0-.114-.602l-.052-.103c-.093-.156-.363-.156-.57-.187-.197-.02-.352.052-.528.124-.311 0-.622.042-.943-.02-.156-.052-.249-.187-.384-.27l-.145-.052a.473.473 0 0 0-.29.125c-.228.186-.487.197-.663.445l-.083.27h-.01v.062c-.021.187-.011.373-.011.57-.01.332-.01.663-.01.995v7.535c0 .145.01.29-.01.435l-.031-.113v.383c-.011.83-.052 2.684-.052 2.912 0 .218-.011.56 0 .778l.031.197.01.02v.021h.021l.062-.01.238-.052.114-.02.083-.021.208-.032.134.063c.166-.01.332-.01.498-.01l.176.072a.668.668 0 0 0 .28.052c.093 0 .186-.021.279-.042.114-.02.145-.02.322.031l.362-.01.456.124c.156-.041.135.052.311-.072l.062-.156.062-.083.073-.093v-.59c0-.104 0-.208.01-.322v-.187c.021-.134.021-.228.021-.31 0-.135 0-.26.01-.374l.011-.041.01-.073h-.01c.01-.238.01-.445.02-.756v-1.234c0-.124-.031-.248.032-.363l-.011-.082-.021-.187c.011-.238-.031-.477.021-.705l.031-.197c0-.456.011-.922.011-1.378v-5.67c0-.248 0-.518-.021-.777zM63.83 56.59h-.062c-.26-.042-.467-.384-.54-.84-.02-.104-.04-.207-.04-.332a9.46 9.46 0 0 1 .02-1.212c0-.031-.02-.456-.031-.83 0-.29.01-.58.02-.85v-.062l-.03-.248c.01-1.213 0-2.778 0-4.001l.01-.187c-.01-.238 0-.58 0-.756 0-.446.02-.995.02-1.44l-.01-.187v-.28s.01-.456-.072-.974v-.021c-.042-.187-.093-.373-.125-.56-.02-.114-.082-.207-.124-.31a1.707 1.707 0 0 0-.342-.54c-.135-.145-.31-.259-.477-.383l-.207-.125a3.428 3.428 0 0 0-.3-.103c-.187-.052-.384-.073-.57-.104l-.3-.02c-.166 0-.322-.011-.488.02-.165.031-.425.073-.621.145-.166.052-.974.29-1.285.508-.166.114-.332.228-.487.363-.394.363-.031-.02-.746.756l-.104.156-.072.176-.01-.29c-.011-.446-.011-.892-.011-1.337 0-1.804.02-2.995.02-4.799l-.01-1.12v-.03c.01-.125.02-.26.01-.394a9.128 9.128 0 0 0-.04-.529c-.032-.259-.218-.466-.674-.57l-.25-.104c-.103-.041-.196-.082-.362-.103-.217.041-.456.083-.694.124l-.145.01-.3-.051c-.177.02-.301.041-.425.052-.156.01-.3.02-.436.093-.176.186-.29.394-.331.611l-.062.239-.01.062-.022 2.923v.466c0 .156-.093.321 0 .477v4.84c0 .114.032.228 0 .3.021.115-.01.198 0 .27.01.104 0 .208 0 .311 0 .135.052.27 0 .394v.176a.518.518 0 0 1 0 .332c-.04.135 0 .259 0 .394V52.713c0 .87-.02 1.638-.03 2.457v1.482l.01.02v.177l.01.103.176.073c.177-.093.363-.176.57-.218.114.021.218-.01.28.042l.104-.01h.114l.145-.063.124-.03c.031.03.87.165 1.005.123l.104.021.186.031.166.031c-.062.094.56.166.632-.03.02-.063.02-.198.01-.363l.052-.218-.01-.062-.031-.156.02-.083c.042-.114.021-.995.021-1.399l.01-.01-.01-.176v-.083l.021-.27v-1.669c0-.528.01-1.399.01-1.917l.021-.187c.01-.083.093-2.083.114-2.187.207-1.088.601-1.834.995-2.249.186-.186.435-.528.84-.6.02 0 .186 0 .3.03.114.042.217.063.28.28.03.114.051.612.04.643-.02.321.032.445 0 .85-.01.093 0 0 0 .103v1.783c0 .104.022.228 0 .3v.996c.011.103 0 .155 0 .238v1.524c-.05.114 0 .217 0 .331 0 .104-.01.207 0 .311.011.104.011.207 0 .311v.02c.063 1.877.115 2.188.146 2.354.041.207.083.425.176.621.083.187.166.415.27.55.103.145.352.321.549.445.197.135.435.29.611.332h.01c.187.052.674.104.87.052l.094.01c.207.052.767-.083 1.057-.207l.197-.166.207-.041.093-.135c.083-.062.239-.042.26-.187l-.104-.051zm4.839-3.348c0-.135-.052-.26-.052-.394.01-.85 0-1.7-.01-2.55v-2.394l-.01-.249c-.052-.134-.042-.259-.042-.394 0-.704.02-1.824.02-2.788 0-.331.011-.652.011-.922.031-.384.02-.684-.031-1.057l-.114-.197c-.073-.073-.29-.176-.415-.156-.114.052-.228.104-.31.145-.29-.02-.529.156-.767.146-.218.041-.435-.104-.653-.063a.923.923 0 0 1-.58-.051l-.332-.228a.29.29 0 0 0-.332.051c-.04.156-.082.27-.114.529-.02.155-.01.3-.01.446v.238c0 .124-.01.249-.01.363l-.01.238v.145c0 .954.01 2.25.01 3.203 0 .155-.02.31.052.435l-.063.197c.083.104.063.228.063.353v8.478l.124-.042.02.01.218.042.145.062.166-.02.249.062.114.155c.052.073.145.114.29.135.135.02.27.041.404.031.156 0 .31-.01.456-.01.186-.042.3-.104.352-.187l.083-.083a.746.746 0 0 1 .518-.03l.021.01.166-.032.072.021.135-.072.083-.021.031-.073.052-.083v-.715-2.684zm-.601-33.352l-.104-.114c-.186-.094-.207-.82-.228-.86-.072-.125-.217-.25-.259-.384a1.195 1.195 0 0 0-.27-.477c-.103-.093-.393-.3-.403-.238-.01.052-.083.27-.114.404-.031.124-.042.197-.094.31-.041.104-.124.25-.134.28-.208.799-1.13 1.732-2.808 2.467l-.156.052c-.487.176-.901 0-1.026-.342-.041-.104-.134-.601-.155-.705a3.544 3.544 0 0 1-.052-.57c-.01-.342-.031-.404-.02-.622.01-.269.072-1.565.124-1.834.135-.746.155-1.12.342-1.855.093-.353.197-.705.3-1.047.073-.228.145-.456.228-.684.042-.114.042-.104.135-.342.093-.239.756-1.254 1.233-1.244 1.026.104.84 1.14.87 1.275.021.135-.02.57-.072.777-.073.28-.29.83-.373 1.11l.062.144c.073.021.352.094.477.083.228.083.404.145.528.332.124.187 1.12.508 1.45.632.125.042.24.052.363-.01.177-.311.29-.56.342-.912.01-.063.114-.487.145-.633.353-1.74.083-2.487.073-2.684-.02-.218-.352-1.005-.642-1.327-.353-.383-1.275-.725-1.866-.901-.445-.135-.994-.156-1.46-.187-.57-.041-.643 0-.954.031l-.57.083c-.135.01-.259.062-.383.104-.125.041-.239.114-.353.176a4.35 4.35 0 0 0-.538.352c-.29.218-.57.446-.788.736l-.083.094c-.155.124-.27.29-.383.445-.197.26-.311.384-.456.674-.228.435-.446.86-.611 1.327-.052.155-.135.31-.177.466a19.92 19.92 0 0 0-.28 1.057 5.48 5.48 0 0 0-.176.819c-.051.487-.238 1.047-.227 1.534-.063.145 0 .29-.032.435-.041.145 0 .788.021.974.093.633.093 1.286.3 1.897.052.156.084.322.146.477.155.415.352.798.6 1.14.156.218.332.404.519.58l.02.032c.042.041.767.995 2.322 1.357h.03c.27.073.55.104.82.125l.093.01c.155-.01.455 0 .61-.041.664-.125 2.104-.726 2.395-.902 1.191-.58 1.834-1.306 1.937-1.43.207-.27.342-.446.446-.82.103-.372.145-.538.155-.787l-.052-.114c-.197-.363-.497-.56-.787-.725zm-30.34 1.948h-.052l-.01-.031.041-.187.042-.176-.01-.176-.042-.238v-.228h-.073l-.02-.228c-.01-.146 0-.29.01-.436.01-.145.031-.248.01-.404l-.052.093c-.01.125-.062.25-.113.373-.052.125-.125.239-.177.363a2.908 2.908 0 0 1-.29.456c-.103.156-.228.29-.383.415-.135.114-.29.207-.477.259a.85.85 0 0 1-.456.02c-.03-.03-.103-.02-.176-.186-.03-.093-.072-.197-.103-.3l-.032-.114c-.051-.156-.072-.363-.103-.55-.031-.155-.042-.321-.052-.476l-.01-.073.01-.218c0-.777.02-1.088.031-1.876v-.103c-.02-.29.01-.384 0-.684-.031-.145 0-.892 0-1.016 
0-.239.031-.477.031-.715 0-.747.01-1.482.01-2.229 0-.155-.02-.642-.03-.756 0-.073-.063-.601-.156-.912-.041-.208-.093-.405-.207-.57-.425-.684-1.078-1.027-1.855-1.1-.176-.02-.352 0-.529 0-.186 0-.227.011-.549.063l-.238.062c-.445.083-.808.197-1.036.373-.156.104-.84.622-1.202 1.027-.135.155-.311.476-.435.746l-.094.166v-.85c0-.415.021-.715 0-1.13 0-.093.032-.394-.051-.415l-.021-.062v-.02l-.01-.073c-.28-.02-.767.135-.954.145-.114.01-.331.135-.476.197-.104.041-.218.176-.342.26l-.55.04-.093.021c-.414.166-.373.052-1.015.508a2.938 2.938 0 0 0-.353.239l-.093.093-.103.052c-.57.404-.57.549-.747.736-.072.082-.124.404-.103.549l.02.03.063.136a.302.302 0 0 0 .197.155c.31.02.435-.124.518-.124.145 0 .3-.062.373.052l.083.124c.114.28.114.83.114 1.12v2.259c0 .103 0 .922-.01 1.098-.063.094-.042 3.98-.042 6.25l-.021.021c.031.104-.02.104.01.218.146.082.405.27.529.373.124.103.27.145.425.186.228.063.456.083.684.125l.155.01c.176.01.332-.031.446-.145l.176-.135c.145-.041.29 0 .445 0 .166 0 .332-.03.498-.052l.134-.114.073-.166v-.196c.031-.145.031-.301.041-.446v-.093l.01-.197c0-.798.011-1.596.011-2.384v-1.669c0-.694.093-2.176.083-2.87 0-.177 0-.24-.01-.478 0 0 .051-.217.082-.331.114-.373.218-.529.332-.788.352-.808.705-1.275.985-1.461.186-.125.248-.208.435-.239h.124c.228.01.415.114.518.332.093.187.135.383.135.59-.01.654-.031 1.307-.042 1.95 0 .497-.082 1.792-.093 2.28 0 .186.073.373 0 .549v.093c0 .311-.01.622 0 .933.01.31-.041.653 0 .922 0 .145.031.27.052 1.078l.01.042c.073.476.3 1.41.964 1.969.456.456 1.264.808 1.264.808.383.083.601.125 1.005.083.114 0 .239-.01.353-.03h.228c.134-.011.269-.021.404-.042.103-.01.197-.042.3-.073l.218-.072c.943-.477 1.005-.902 1.119-1.057l.052-.094c.082-.114-.063-.03-.063-.062l.052-.124.042-.145c.093-.208.166-.415.28-.612l.03-.073c.01-.072.032-.093.032-.217l-.135-.02zm7.958-10.178c.062-.114-.073-.27-.083-.446-.01-.176-.072-.176-.083-.414.042-.187.166-.425.104-.653l-.114-.104a1.94 1.94 0 0 0-.653-.103l-.083-.021-.186-.031c-.3 0-.788-.01-1.088 0-.166 0-.415.041-.55-.01l.01-.581c.021-.155.011-.394.011-.498.01-.134 0-.176 0-.31v-1.42c0-.405.01-.467.01-.86v-.032h.01v-.062c.011-.404-.113-.788-.32-1.16-.125-.229-.3-.478-.591-.623l-.238-.124c-.239-.052-.311-.041-.55-.041a.488.488 0 0 0-.414.196l-.093.25-.052.196c-.145.093-.373.218-.446.321l-.228.052-.165.083c-.094.02-.197 0-.29.052-.104.083-.156.187-.29.26l-.084.144-.01.01v4.146c-.383 0-1.098-.01-1.471-.01l-.27.02c-.103.042-.197.042-.3.042-.093 0-.187 0-.28.01l-.072.021-.073.083c-.01.218-.104.425-.083.643l-.01.03c-.073.229-.073.467-.104.695-.02.135 0 .27 0 .363.052.207.207.3.29.435.02.156.01.301-.041.436-.093.217-.083.508-.052.725.062.125.155.218.249.3.621-.04 1.585-.02 2.103.011l.114-.01s0 .456.01.684v3.358c0 .249-.01.497 0 .736l.021.186c0 .177.02.239-.01.311.01.156.03.26.041.373.01.28 0 .56 0 .84.01.601-.03 1.213.052 1.814.02.155.041.3.073.456.083.404.238.777.476 1.12.239.341.529.631.87.86.353.238.747.341 1.15.383.25.02.509.02.768-.01h.051c.27 0 .425-.063.664-.135.124-.062.248-.124.373-.197l.269-.155.124-.084.094-.072c.124-.093.248-.187.362-.29l.145-.166.145-.145.042-.052.02-.02.135-.156.114-.145.021-.021.01-.01.145-.25.042-.082.02-.083c.115-.27.177-.529.135-.746l-.062.03c.124-.258.042-.279.093-.507l-.051-.093-.063-.073-.103-.145-.031-.01-.052-.031c.031-.135.01-.156.041-.29l-.02-.664-.094-.02-.041-.021-.093-.177-.063.073-.103.352a4.192 4.192 0 0 1-.487.892c-.156.217-.446.383-.632.487l-.042.01a.777.777 0 0 1-.435.01l-.104-.093c-.051-.083-.113-.259-.165-.404l-.031-.114c-.042-.155-.052-.383-.083-.58-.021-.166.01-.29-.01-.456v-.363c0-.156-.042-.197-.042-.353 0-.124 0-.238.01-.362l.01-.228V18.8l-.03.01c0-.28.01-.549.01-.88v-3.835l.01-.353c.26-.082.788.083 1.037.042.248-.052.538-.042.797-.042.104-.052.176.031.29 0 .28-.072.519-.207.602-.518l.051-.114c-.041-.218-.124-.414-.176-.622.073-.114.02-.259.052-.383.041-.166.052-.311.114-.446zm-25.884 3.15s-.042.156-.114.374c-.073.166-.176.28-.28.435a1.251 1.251 0 0 1-.643.519c-.362.041-.445.01-.818-.01a2.174 2.174 0 0 1-.715-.208l.02-.114c.115-.539.405-1.513.477-1.814.156-.58.518-1.513.674-1.627.124-.093.155-.176.435-.176.218.03.28.02.435.155.207.29.384.529.446.974.114.612.145 1.1.083 1.493zm3.046-2.61a3.745 3.745 0 0 0-.456-.882c-.155-.238-.56-.736-.85-.87-.248-.125-.352-.229-.621-.301-.611-.176-1.088-.311-1.845-.29-.85-.094-1.367.062-1.523.093-.321.073-.549.218-.85.342-.269.114-.663.404-.87.601-.933.912-1.16 1.42-1.637 2.353-.124.238-.3.922-.352 1.181-.042.197-.104.695-.104.695-.114.135-.249-.073-.394-.135a3.177 3.177 0 0 0-.88-.249c-.042.125-.114.239-.177.353-.145.248-.518.166-.456.445.052.25-.217.311-.3.54-.093.227-.601.476-.59.735.01.239.093.322.33.425.301.135 1.348.612 1.67.705.134.042.362.104.497.166 0 0-.032.435.01.985.03.362.155.766.28 1.399.041.228.176 1.036.518 1.648.342.632 1.057 1.658 2.072 2.104.55.238 1.13.404 1.69.476.351.042 1.108.01 1.906-.134h.01a5.736 5.736 0 0 0 1.41-.446c.269-.124.476-.249.694-.425.176-.135.331-.27.487-.415.103-.103.165-.217.227-.342.135-.28.083-.528-.145-.746l-.259-.238c-.103-.114-.197-.239-.31-.373l-.135-.031c-.062-.125-.135-.239-.197-.363l-.073-.218c-.02-.3-.155-.56-.238-.819-.104-.093-.166-.197-.29-.238a5.77 5.77 0 0 1-.55.601c-.497.425-1.243.923-1.74 1.099-.135.02-.352.041-.59.03-.197-.04-.384-.082-.519-.206-.3-.27-.373-.716-.456-1.068-.093-.425-.083-.798-.145-1.233-.02-.125-.01-.342-.01-.529.425.073 1.036.176 1.41.155l.155.01c.28 0 .56.011.839 0 .176-.01.342-.05.518-.082.415-.073.798-.249 1.17-.446.105-.062.208-.124.301-.207a4.186 4.186 0 0 0 1.016-1.275c.114-.218.197-.446.259-.674.166-.539.166-.393.218-.85l.041-.186.01-.104v-.228c.042-.32.052-.58.031-1.119.052-.104-.124-1.202-.207-1.42zm-7.72 13.825c-.082-.103-.176-.228-.28-.352-.207-.373-.756-1.202-.921-1.472l-.156-.228c-.104-.155-.207-.321-.321-.477-.145-.207-.27-.435-.404-.642-.073-.125-.156-.239-.239-.353-.072-.103-.155-.217-.217-.32-.073-.125-.135-.26-.228-.353-.104-.104-.135-.249-.218-.363-.135-.176-.248-.373-.373-.56-.217-.31-.404-.632-.632-.933-.135-.186-.249-.393-.373-.59-.29-.456-.59-.902-.87-1.368-.094-.156-.208-.301-.3-.456a8.676 8.676 0 0 0-.322-.519c-.176-.29-.55-.995-.725-1.285-.156-.249-.322-.497-.477-.736l-.373-.59c-.124-.198-.238-.405-.363-.602l-.155-.248c.425-.56.777-1.037.767-1.047.331-.384 1.191-1.648 1.46-2.125.063-.104 2.374-3.503 2.394-3.545.135-.207 1.803-2.612 1.845-2.684.238-.352.901-1.285 1.108-1.575l.104-.166.187-.342.03-.052c.073-.135.115-.135.218-.415.063-.166-.176-.331-.207-.363l-.166-.041-.145.041-.207.114-.27-.207c-.217.02-.186.062-.393-.072l-.29-.218a2.58 2.58 0 0 0-.56-.321c-.238-.104-.29-.311-.715-.487L12.124 0c-.115.02-.166.114-.311.27l-.083.04-.031.032-.052.041a3.373 3.373 0 0 0-.218.343l-.01.01c-.104.135-.187.29-.28.435l-.031.052a2.26 2.26 0 0 1-.332.446l-.134.197c-.125.228-1.627 2.373-1.783 2.58-.207.301-3.16 4.602-3.295 4.83-.134.228-.31.425-.456.653-.196.3-.414.58-.632.87l-.134.156-.135.187v-.166c0-.145.02-.352 0-.498-.02-.124 0-.663 0-.746V7.763l.052-3.254c.01-.063-.031-1.14-.01-1.43h.01v-.053c.03-.155.03-.497 0-.56v-.072c0-.414-.031-.902-.042-1.306.052-.27-.145-.414-.228-.57-.103-.176-.57-.228-.777-.28L2.746.031h-.083l-.238.01c-.104-.01-.187.032-.27.073l-.27.135-.258.083-.166.02C1.223.301.28.238.114.415.073.445.052.757.062.89c-.01.114-.02.82-.041.964.052.125.062.27.02.415l-.03.207v.435L0 2.944v.01h.01c0 .57-.01 1.824-.01 2.239 0 .6.052 1.202.052 1.803 0 .394-.02.777 0 1.16.02.426-.104.85 0 1.276v.062c0 .29-.01.58 0 .87 0 .114-.052.239 0 .353v.311c-.01 1.97 0 3.928 0 5.897v.54c0 .103.02.507 0 .61-.01.032 0 1.69 0 1.815v4.021c0 .218.083.435 0 .643v.093c0 .985-.052 1.783-.052 2.778l.104.145c.093.072.207.052.29.114h.228c.228-.042.228-.094.373-.177l.041-.02.218-.114.135-.052c.186-.166.455.249.683.186.125-.03.27-.165.415-.103.093.041.186.062.29.093l.674.58h.31c.436.052.332-.352.384-.549L4.114 17.9c.02-.031.3-.436.58-.84.114.166.207.311.259.394.197.321.415.622.622.943.103.155.393.736.497.881.373.508.684 1.057 1.026 1.586.27.425.539.86.808 1.295l.746 1.182c.166.27.332.539.518.788.114.155.218.31.322.476.145.239.145.135.29.384.124.197.27.373.393.57.135.207.28.446.415.674.155.29.31.59.466.767.083.103.187.248.29.393l.042.052.176.208c.155.155.28.331.528.414.187-.02.436.042.633-.072.134-.073.155-.218.28-.332.04-.041.238-.207.269-.332l.062-.083c.166-.093.31-.176.456-.248.425-.104.487-.114.767-.125.03.021.124.021.238.031l.155.021c.197.041.166.041.353-.124.072-.29-.021-.373-.125-.726l-.051-.052zm76.648 28.056l-.02.01c-.58-.953-1.213-1.968-1.337-2.134-.135-.177-.249-.373-.363-.56-.176-.3-.466-.798-.632-1.109-.145-.27-.311-.539-.466-.808-.021-.032-.353-.56-.643-1.027.114-.134.249-.259.363-.393l.083-.094c.228-.3.528-.528.777-.819.228-.269.435-.549.705-.777l.01-.01c.166-.218.383-.394.57-.601l.155-.228c.02-.021.3-.29.643-.684l.02-.032.114-.124-.114-.155-.01-.063a.447.447 0 0 0-.155-.269c-.125-.104-.322-.238-.373-.342-.156-.3-.487-.86-.695-1.12l-.145-.217c.02-.104-.01-.166.02-.249.032-.093.063-.135 0-.207l-.248.01-.27.228c-.144.104-.507.508-.776.778-.052.051-.125.145-.218.248-.435.446-.819.84-.86.871-.228.249-.497.518-.725.767l-.042.041c-.166.25-.362.353-.56.58-.248.291-.507.52-.745.81-.156.196-.425.486-.425.486v-2.27c0-1.108.02-2.124.02-3.233l-.02-.28-.031-.27v-.808-.57c0-.58.041-1.855.062-2.705v-.415l-.031-.248c0-.094.03-.187-.042-.228-.165-.083-.632-.311-.746-.25l-.093.032a.384.384 0 0 0-.218.083c-.082.052-.207.062-.341.041l-.187.01-.166.073c-.549.093-.932.311-1.285.529l-.062.072c-.052.114-.28-.176-.373-.166l-.052.135-.01.01-.01.021-.01.073-.011.041c-.01 2.146 0 5.338 0 7.349V49.635c.01.352 0 .705 0 1.057v5.141l.02.062c.021.353.052.58.094.798.02.125.145.322.29.332.093.01.186 0 .27 0 .072.072.435-.093.59-.135.166-.041.342.02.487.156l.073.01c.093-.114.362-.02.538.041.094-.062.063 0 .228-.01.125.041.373.104.529.104.155 0 .3-.094.466-.145l.031-.27c.031-.207-.01-.321.01-.528.01-.104 0-.145 0-.332.01-.104.01-.197.01-.27l-.01-.155c-.04-.093.01-2.073.01-2.177v-.808l.011-.498c-.03-.062-.01-.383-.01-.476l.135-.187c.114-.103.041-.041.176-.207.373.601.725 1.202.787 1.295.104.177.228.342.322.529.072.155.165.29.259.435.124.208.238.425.362.633.114.176.197.383.342.549.104.114.197.238.27.363.269.487.538.974.86 1.43l.03.041c.052.104.125.218.208.332l.041.062c.104.176.228.332.353.498a.305.305 0 0 0 .248.135c.197-.125.373-.27.58-.363.28-.125.56-.249.85-.353.436-.145.85-.321 1.285-.466a.466.466 0 0 0 .353-.384c-.187-.29-.384-.59-.56-.901-.207-.3-.383-.601-.57-.892zm19.201-49.147h1.461c.103 0 .197 0 .29-.01l.705-.643c-.021-.125-.083-.218-.208-.239a.329.329 0 0 1-.228-.176s-.041-.27 0-.394c.042-.124.28-.508.301-.528l-.021-.187-.166-.404c-.031-.073-.186-.353-.186-.456l.031-.073c.021-.207-.114-.29.021-.446l.134-.196c.011-.094-.145-.508-.165-.54l-.073-.072H107.443c-.176-.114-.342.02-.518 0l-.145-.01c-.124-.063-.259-.042-.383-.042h-1.793c-.362 0-.715-.01-1.077-.01-.125 0-.249-.02-.353.02-.124.042-.248.042-.383.042h-5.834l-.155.062c-.01.208-.032.436.02.653.031.145.052.29.166.404.093.094.176.197.28.27.155.093.27.228.394.363.186.197.259.435.331.684 0 .3.052.59-.03.891l-.011.26c.03.103.041.217.062.32.031.125.073.25.114.363l.124.166c.094 0 .187.01.28.01.135-.01.466-.03.601-.01.373.052.58 0 .58 0l-.01.974v2.85c0 .446-.01-.217-.01.229v2.114c0 .166.02.332-.042.498v2.352l.031.207a.69.69 0 0 1 .01.384c-.03.104-.03.197-.03.29 0 .881-.01 2.622-.01 3.804l-.032.041v.913c0 .269.01.539.01.798V20.51c.01.332.01.674.021 1.006l.042.228c.041.155.062.31-.01.466l-.032.156c-.01.145-.01.29-.01.445 0 .394-.01.798-.01 1.192l.03 1.555c.01.446 0 .88 0 1.327l-.02.155c-.114.155-.073.311-.073.456l.062.052.125.052c.103 0 .197 0 .3.01l.176-.155.145-.052a.706.706 0 0 1 .643.041l.197.073.072-.02.197-.073.187-.073c.155-.124.352-.218.528-.249l.104-.01a.47.47 0 0 1 .373.041h.083l.124-.124h.01c.146.104.322.124.487.166l.218-.093a.995.995 0 0 0 .124-.456c0-.519.011-.664.011-1.182v-1.41c0-.124.041-1.658.02-1.73l.021-.26v-.58-1.69c0-.362.011-.248.011-.59l.02-.187c.052-.238.031-.715.031-.808V15.1l.011-.093.103-.073h.239l.207-.01.228.01.176-.01c.114-.052.611-.042.725-.042h1.71l.373-.01.021-.093v-.26c0-.103.01-.196.021-.28.269-.29.31-.29.383-.486v-.145c-.073-.166-.145-.425-.218-.57-.02-.166.052-.177.114-.27.135-.104.239-.187.353-.27l.114-.238v-.331c0-.187.062-.353.145-.508l.093-.125c.031-.425.021-.704-.021-.777l-.083-.062h-4.207c-.114 0-.238 0-.342-.01l-.155.01c0-.094.01-.322.01-.415 0-.404.011-1.399.011-1.803 0-.653.052-2.82.052-3.068v-.197H109.132l.363-.01c.321-.052.321-.052.642 0h.094c.124-.063.621-.031.746-.031zM92.19 10.593c-.01-.25.01-.208-.082-.363a.507.507 0 0 0-.228-.187l-.145-.072c-.104-.073-.26-.083-.425-.094-.125.01-.207.146-.353.125-.103-.031-.207-.073-.3-.104l-.218.187c-.259-.104-.549-.063-.746-.25h-.062l-.197.146-.694.031-.104.104c0 .186-.01.363-.01.55-.01.258-.02.528-.01.787-.042.238-.01.383-.01.57 0 .197 0 .383.01.58v1.15c0 .27.02.54-.01.81-.021.238-.052.455-.052.694 0 .497.04 2-.063 2.487-.052.26-.052.539-.103.798-.052.26-.083.529-.135.788-.104.508-.28.663-.487 1.14a2.091 2.091 0 0 1-.425.611c-.135.125-.394.25-.539.301-.342.093-.673-.114-.694-.124-.31-.519-.321-1.15-.352-1.742-.01-.145 0-.29 0-.424v-.56c0-.342.01-.332 0-.674v-.425c0-.186.02-1.316.02-1.503-.01-.331 0-.663 0-.995v-.943c0-.259-.062-.56 0-.819.042-.165 0-.373 0-.539-.01-.352.01-.704 0-1.057-.01-.29-.02-.404-.02-.653v-.103a1.544 1.544 0 0 0-.197-.705l-.239-.187-.196-.083a.894.894 0 0 0-.57-.03c-.249.072-.487.144-.757.217a2.705 2.705 0 0 0-.912.01c-.124.062-.435.114-.61.197-.053.104-.136.207-.146.311-.02.145.02.518.01.736l-.01.104c-.01.248 0 .487 0 .736v1.046c0 .125.01.228 0 .353-.073.704-.02 1.45 0 2.155.01.353.052.716 0 1.068-.041.28.01.529 0 .809a14.864 14.864 0 0 0 .435 4c.29 1.161.788 2.53 2.052 2.954.176.042.88.156 1.046.125.239-.042.86-.114 1.078-.208.3-.134.715-.259.964-.466.135-.104.259-.228.373-.342.124-.114.508-.674.487-.726l.03.54c.063 1.222-.227 2.155-.217 2.176-.28 1.015-.984 2.3-1.823 2.892 0 0-.228.176-.342.248.051.114.093.228.134.342l.125.145c.155.208.331.405.528.57.197.187.311.488.498.757.29.425.259.995.86 1.14l.186.031.155-.093c.57-.363 1.12-.985 1.493-1.544.165-.25.373-.467.56-.705.144-.187.248-.373.352-.57.28-.58.61-1.565.725-2.198.3-1.119.394-3.192.373-4.311v-1.223c0-.176-.01-.342 0-.518.01-.125-.01-.239 0-.363.01-.114-.031-.197 0-.311v-.207c-.02-.166 0-.322 0-.488v-1.088c0-.207.01-.414 0-.622-.01-.176 0-.352 0-.528 0-.332-.104-.715 0-1.026v-.28c-.093-.26-.01-.487 0-.746.01-.114 0-.197 0-.311v-.29c-.01-.229-.02-.612.01-.84.021-.145-.01-.311-.01-.456v-.487c0-.311.02-1.026.02-1.099-.04-.187-.02-.643-.03-.84zm27.771.777c-.104-.3-.56-.87-.757-1.068-.124-.124-.28-.207-.425-.3a1.316 1.316 0 0 0-.393-.166c-.145-.042-.311-.042-.456-.083-.156-.041-.311-.031-.456-.031-.166-.01-.321 0-.487.052-2.301.259-2.508 1.648-2.591 1.741l-.124.332.021-.436v-.134l.01-.094c-.031-.124.021-.57-.01-.736v-.02c-.063-.197-.031-.27-.166-.404-.125-.125-.28-.115-.456-.104-.497.03-.425.135-.663.083l-.187.052c-.186-.01-.342.062-.601.165l-.404.135c-.145.052-.3-.01-.445 0-.156 0-.373-.103-.539-.103l-.062.03-.125.135c-.01.104 0 .477 0 .477v8.157c0 1.4.011 2.125.011 3.524 0 .404.01.86.01 1.306-.01.3-.01.59.041.611.052.021.798-.082 1.296 0 .176.021.331.094.466.187.124.083.787.3.891.383a.359.359 0 0 0 .342-.03l.104-.115c.331-.176.362-.186.466-.3.072-.135.021-.311.021-.477.02-.166.031-.238 0-.788v-.165c.01-.042-.021-.425-.021-.591v-.073c0-1.15.01-1.97.01-3.265v-1.959c.011-.362.031-1.596.031-1.596v-.425c.239-1.119.664-1.855.726-1.948.279-.446.818-.809 1.171-.757.352.052.3.881.3 1.006v.6c0 .073-.052.519-.052.674v.197c.435.063 1.15-.134 1.42-.083.787.146 1.813-.435 2-.414l.134.02.208-.02V13.39c.031-.02-.104-1.648-.259-2.021zm-62.825.041v-.59l-.01-.146c0-.114 0-.228-.01-.331-.011-.114.03-.29-.063-.353l-.383.042-.228.124-.083.073c-.156-.042-.3-.052-.446-.073a4.65 4.65 0 0 0-.352-.114l-.124-.01-.228-.062c-.104-.021-.177-.135-.25-.125-.113.021-.206-.01-.32-.041l-.26.052c-.113.02-.207-.063-.33-.031l-.27.072a.429.429 0 0 0-.28.353l-.01.145v.155l-.032 1.379v.072c-.01.715-.03 1.44-.03 1.98-.011.756-.021 1.513-.021 2.27 0 .082-.073 2.539-.073 2.757 0 .145 0 .259-.01.352-.093.26-.135.508-.3.715-.25.311-.882.601-1.296.58h-.166a.354.354 0 0 1-.27-.134c-.248-.27-.362-.664-.362-.985v-5.452c0-.394.01-.86.02-1.285v-.01l.032-.239c-.01-.248.041-.84-.041-1.078.093-.238.01-.663.04-.87-.05-.207-.092-.404-.186-.56l-.02-.052c-.073-.176-.404-.228-.612-.103l-.166.083-.217-.052-.207.02-.125.052a1.808 1.808 0 0 1-.673.177h-.02l-.053.01c-.259.01-.507-.042-.787-.073l-.187-.041-.124.01a.625.625 0 0 0-.31.3c-.022.478-.011.903-.053 1.328-.041.362.031 1.596 0 1.959h.021c-.01 1.077-.02 2.3-.02 3.45l.03.25v.051l-.02.239c-.01.88-.01 1.751-.01 2.632 0 .456-.022.902.061 1.358.032.156.021.321.063.487.051.218.072.446.134.664.145.57.415 1.067.86 1.471.27.25.591.363.923.467.155-.01.29.083.456.072.165-.01.331 0 .497 0 .145 0 .28-.02.425-.062.27-.072.808-.249 1.057-.373.217-.114.435-.238.642-.352a5.9 5.9 0 0 0 .902-.602l.093-.082.041-.01v.051l.021.104.01.27v.113c.042.124.094.249.145.384l.032.052v.01l.041.062c.145.073.249.28.497.249.28-.073.456-.062.715-.042l.208-.01c.114.01.227-.031.342 0 .051.01.145.041.248.01h.042c.186.021.425.073.611.156.186-.021.342-.042.508-.062l.134-.063.01-.02.032-.021c.041-.093.083-.197.114-.321l.01-.104c-.01-.197-.01-.394-.02-.59l.01-.187-.02-.156-.011-.02.01-.073v-.042l-.01-.041h.02v-.062c-.02-.632.01-1.296 0-1.928-.01-.694-.02-1.389-.02-2.073 0-.808 0-1.606.01-2.415 0-.829 0-1.658.01-2.477 0-.383.01-.933.021-1.461v-.28c.01-.363.021-.674.021-.923zm22.05 7.525l-.124-.176c-.321-.436-.663-1.006-.984-1.44-.094-.136-.394-.675-.487-.81l-.125-.176-.01-.02c-.083-.114-.125-.187-.228-.322l-.238-.435c.114-.186.114-.104.238-.27.28-.372.477-.476.798-.829.342-.373.228-.176.435-.466l.186-.249c.145-.186.322-.352.467-.539l.051-.072.063-.083c.134-.176.29-.332.445-.498l.612-.735c.041-.042.072-.032.041-.177-.031-.145-.176 0-.238-.082.052-.239-.207-.394-.156-.643-.176-.197-.497-.415-.642-.674l-.042-.03-.228-.177v-.01l-.02-.021c-.135-.176-.207-.394-.332-.58l-.238-.063c-.166.042-.249.218-.342.311l-.02.02-.105.053c-.227.155-.549.549-.725.756-.29.332-.466.467-.767.85-.269.342-.373.363-.642.705-.104.124-.228.238-.321.373-.125.187-.26.26-.404.425-.145.166-.311.249-.446.415-.228.28-.435.56-.663.84-.031.03-.135.206-.104.01l-.02-.052c0-.332-.01-.653-.01-.985v-1.327c0-1.461.03-4.031.03-5.451l.031-.27c.031-.186-.03-.684 0-.85l.031-.767c-.01-.528-.02-1.057-.01-1.585 0-.146-.01-.301-.072-.415-.094-.114-.208-.156-.311-.114-.384.124-.726.02-1.068-.145l-.165-.104a.428.428 0 0 0-.342-.03c-.104.082-.208.175-.332.258a1.18 1.18 0 0 1-.456.187c-.477.072-.736.207-.86.642-.041.145-.072.467-.124.612a.494.494 0 0 0-.031.321l-.01 1.006v8.778c0 .114 0 .228.02.342.02.104-.02.218-.02.332v3.068c0 .083.01.072.02.249.01.176-.01.383-.02.445v.736s.02 3.016.03 4.053V23.465l.01.042.032.27.01.144.042.166.01.042h.01l.021.062c.062.176.166.29.363.352l.114-.041c.166-.166.476-.207.715-.26l.103.011c.3.124.684.332.881.363l.943.03c.383-.092.26-.269.394-.6l.01-.135h.01c.042-.218.052-.601.052-.788 0-.145 0-.29-.01-.435-.01-.59-.02-1.192-.02-1.762l.01-.332v-.228l-.01-.145v-.746c0-.135-.021-.508.01-.777l.518-.508c.176.259.207.342.373.59.352.519.694 1.047 1.036 1.566.27.404 1.181 1.907 1.44 2.31.125.187.394.54.529.726.207.301.549.747.746 1.047.103.042.186.208.3.197.031 0-.051.052.27-.135.155-.093.31.01.383-.041.166-.145.321-.29.539-.342.207-.052.394-.404.56-.394.165.01 1.295-.497 1.233-.59-.042-.073-1.451-2.312-1.607-2.53-.196-.29-.901-1.45-1.036-1.658z" fill="white"/>
</svg>