<svg viewBox="0 0 57 18" xmlns="http://www.w3.org/2000/svg"><path d="M56.622 1.23l-.923 4.15a.432.432 0 0 1-.423.342h-1.313a.433.433 0 0 1-.432-.46v-.077c.064-1.355-.792-2.366-2.727-2.366-3.22 0-5.56 2.64-5.867 6.106-.316 3.58 2.188 5.66 5.654 5.66a13.354 13.354 0 0 0 3.973-.593.435.435 0 0 1 .557.495l-.41 2.145a.505.505 0 0 1-.342.388c-.71.226-2.705.758-5.758.758-7.253 0-10.196-4.168-9.741-8.418C39.278 5.576 41.784 0 51.665 0c1.554 0 3.101.21 4.598.63a.506.506 0 0 1 .359.6zM15.384.639l-.24 1.082a.474.474 0 0 0 .325.556c.417.162.51.562.146.862l-6.069 5.04 1.042-4.75c.178-.728.757-1.025 1.124-1.147l.06-.018a.47.47 0 0 0 .319-.347L12.34.792a.427.427 0 0 0-.42-.519H4.096a.472.472 0 0 0-.46.37l-.253 1.139a.466.466 0 0 0 .308.541l.077.027c.491.192 1.06.624.82 1.761L2.72 12.644c-.488 2.33-1.278 2.807-2.033 2.894H.662a.479.479 0 0 0-.41.369L.01 17a.451.451 0 0 0 .442.547h8.224a.429.429 0 0 0 .417-.328l.284-1.28a.433.433 0 0 0-.265-.497l-.053-.021c-.417-.169-.985-.528-.84-1.206l.957-4.364c3.28 5.98 4.362 7.702 8.295 7.702h3.55a.428.428 0 0 0 .418-.334l.249-1.109a.461.461 0 0 0-.438-.563c-.889-.013-1.325-.219-2.208-1.355L14.485 8.03l5.923-4.92c.794-.621 1.764-.795 2.3-.867l.055-.006a.435.435 0 0 0 .384-.338l.242-1.093a.435.435 0 0 0-.424-.532h-7.126a.47.47 0 0 0-.455.366zm21.914 4.74h1.385a.432.432 0 0 0 .422-.338l.942-4.244a.433.433 0 0 0-.423-.524h-14.57a.472.472 0 0 0-.462.37l-.25 1.134a.451.451 0 0 0 .288.522l.05.017c.478.183 1.147.647.855 1.788L22.68 17.03a.43.43 0 0 0 .42.523h6.554a.43.43 0 0 0 .42-.337l.286-1.29a.409.409 0 0 0-.233-.464l-.064-.03c-.416-.205-1.035-.672-.827-1.577.023-.121.645-2.923.645-2.923h5.573a.431.431 0 0 0 .422-.341l.525-2.36a.432.432 0 0 0-.424-.527h-5.381l1.004-4.578 3.761-.005c1.215 0 1.586.634 1.515 1.716 0 0 0 .014-.006.057a.434.434 0 0 0 .429.485z"/></svg>