<svg xmlns="http://www.w3.org/2000/svg" viewBox="0 0 200 332"><path fill="#f8f7f5" d="M10.2 45.8l18.6-1.4-3.9-15.7 3.3-9.6 16.9-8.7 14.2-5.6 8 1.5 3.9-.6 13.9-.9 16.1 4 17.6 2.5 10.3 7.6 18.9 9.8 9.5 8.8 5.2 8.8 9.5 2.2 5.5 5.2.8 11.2 5.9 9.8 10.4 6.5 1.9 1.8-1.3 6.9-2.7 9-1.9 9-.7 6 .8 6.6 5 3.4-2 14.1-5.4 14.5-3.6 13.6-1.7 4.5-2 6.4-3.9 4.4-4.2-3v15.5l-7.6 17.7-10.8 17.1-23.4 16.7-27.4 18.8-34.7-3.2-10.3-12.2-4.4-11.8-14.1-16.6-18.7-40.7-11.5-44.2-1.6-10-8.4-17.1 4.2-8.8-1.3-7.9.3-8.9-.5-6.2 4.7-12.5z"></path>
<path d="M32.2 16.8h.1c.7 0 1.2-.3 1.7-.7l.4-.3c1.4-1 2.8-1.9 4.4-2.6 1-.4 1.9-.8 2.9-1.1 0 0 .1 0 .1.1s.1.1.1.1c-.7.4-1.4.8-2.1 1.1-1.1.5-2 1-2.8 1.5l-.3.2c-.6.4-1.2.9-1.8 1.4-.7.6-1.4 1.2-2 1.8l-.3.3c-.2.2-.3.4-.2.6 0 .2 0 .3.2.4h.2c.3 0 .5-.1.5-.1h.1c.1-.1.3-.2.4-.2.2-.1.4-.3.6-.4.3-.2.5-.4.8-.5.5-.3.9-.6 1.3-.8.7-.5 1.5-1 2.3-1.3 2.8-1 6-2.1 9.7-2.3 3.4-.1 6.1.8 8.4 2.7.2.1.4.3.5.4.1 0 .2.1.2.1l.3.2.2-.2c.4-.4.5-.9.2-1.4-.1-.1-.1-.2-.1-.3 0 0 0-.1.1-.1s.4 0 .8.6c.4.7.9 1.3 1.5 1.9.2.2.4.3.6.3.1 0 .2.1.2.1l.1.1c.2.1.4 0 .5-.2v-.1c0-.2.1-.3.1-.4v-.4c0-.7-.3-1.2-.5-1.8-.1-.1-.1-.3-.2-.4-.7-1.7-1.9-3-3.8-3.8-.7-.3-1.4-.5-2.1-.7-.8-.2-3.5-1-4-1.1-.3 0 0-.8 1.1-1.1h1.5c1.1 0 2.1.1 3 .3h.3c.4 0 .7-.2.9-.6l.2-.1v-.1c0-.2-.1-.3-.2-.5h.7c1.7 0 3.5.3 5.1.9.5.2.9.3 1.4.4.2.1.4.1.6.2h.1c.3 0 .5.1.7.1h.1c.9 0 1.1-.7 1.2-.9v-.2c0-.7-.5-1.1-.8-1.5l-.1-.1c.3-.2.7-.3 1.2-.3.1 0 .3 0 .4-.1.7-.1 1.4-.2 2.2-.2h.1c.8 0 1.7.1 2.5.3.5.1 1 .3 1.6.4.2.1.5.2.7.2l.3.1h.2l.7-.9v-.1l-.1-.2v-.1c0-.1 0-.2-.1-.3-.1-.2-.2-.3-.2-.4C76 3.6 74.7 3 73 2.9h-.8c-2.1 0-3.8.4-5.2 1.2-.5.3-1 .6-1.5 1-.2.1-.3.2-.5.3-.1 0-.3 0-.4-.1-1.2-.5-2.4-.7-3.6-.7-.6 0-1.2.1-1.7.2V5v-.2H59c-1.1.2-2 .4-2.9 1-.2.1-.3.3-.4.5h-1c-.5 0-1 0-1.4.1h-.4c-.5 0-1.6.3-2.6.7-.8.3-1.8.8-2.1 1.5-.4 0-.7-.1-1-.1-.6 0-1 .1-1.8.3-.4.1-.9.2-1.3.3-.9.2-1.9.4-2.8.7-2.3.9-4.5 2-6.5 3.5-.8.6-1.5 1.2-2.2 1.9l-.2.2c-.2.2-.7.6-.4 1.4 0-.1.1 0 .2 0zm120.4 31.4v-.5c-.7-2.7-2.3-5-5.1-7.5-.4-.3-.9-.5-1.3-.7-.1-.1-.3-.1-.4-.2-.2-.1-.4-.1-.6-.2h-.1c-2.1-2.3-3.4-3.3-4.7-3.3h-.2v.2c.1.7.2.8.4 1 .9.7 1.7 1.6 2.4 2.4-.1.1-.1.2-.2.3v.3h-.1l-.1.1c-.2.1-.3.2-.4.3-.5-.7-1.1-1.3-1.7-1.8-.1-.1-.3-.1-.4-.2h-.1l-.1-.1s-.3 0-.4.2c-.1.1.2.4.2.4.1.1.2.3.3.4l.6.9c.1.2.2.3.3.5.3.5.6 1 .8 1.6.9 2.1 2.3 3.9 4.2 5.6.3.2.6.4 1.1.6h.9l-.1-.4c-.2-1-.3-1.1-1.2-2l-.4-.4c.1 0 .2.1.2.1.2 0 .4-.1.5-.4l.1.1c.4.5.9.9 1.4 1.4.1.1.2.1.4.1s.4-.2.6-.4v-.2c-.1-.6-.4-1.1-.8-1.5.1 0 .2-.1.3-.2.2.2.3.4.5.7l.6.9c.2.3.4.7.6 1 .2.4.6.7 1 1.1.1.1.3.2.4.2.3-.1.5-.2.6-.4zm-3.9 6c.2 0 .3 0 .4-.1 0 0 .1 0 .1-.1h.1v-.1c0-.7-.5-.9-.9-1.1-.1 0-.1-.1-.2-.1-.2-.1-.5-.3-.7-.4-.7-.4-1.4-.8-2-1.3-2.2-1.9-4.1-4.1-5.5-6.5-.5-.9-1.1-1.8-2.2-2.4-.1 0-.2-.1-.3-.1h-.9l.5.7c.2.2.3.4.4.6.1.1.2.3.3.4.2.3.5.6.6.9 2 3.8 4.5 6.6 7.5 8.7.9.4 1.8.7 2.8.9zm2.2 34.9c.1.1.3.2.4.2.1 0 .3 0 .5-.2v-.5c-.3-.7-.9-1.3-1.7-1.8-.1-.1-.3-.1-.5 0-.1 0-.2 0-.2.1h-.3l.1.2c.6.8 1.1 1.5 1.7 2zM3 77.8c-1.4 1.1-2 2.6-1.6 4.5.1.7.3 1.3.5 1.9l.1.5c.4 1.7 1.6 2.8 2.8 3.8.1.1.2.2.3.2.2.2.5.3.8.3h.5c.4-.1.6-.3.7-.5l.2-.3-.1-.4c-.2-1-.7-1.7-1.2-2.3-.4-.7-.8-1.5-1.1-2.5-.4-1.5-.3-2.5.4-3.3.2-.2.3-.4.4-.6.1-.1.1-.2.2-.3l.1-.4v-.6c0-.3-.1-.7-.2-1-.5-1.1-.4-2.3-.3-3.3 1-.5 1.2-1.6 1.4-2.5.2-.1.5-.2.7-.3 1.1-.5 1.5-1.4 1.2-2.5-.2-.8-.5-1.5-.8-2.1-.3-.6-.4-1.2-.4-1.9v-.1l1.1.1.2-.2c.6-.5.8-1.2.5-2-.2-.5-.2-1.1 0-1.7l.1-.2-.4-1.3.8-.6-.1-.4c-.2-.7-.3-1.3-.3-1.9.9 1.2 2 2.3 3.3 3.2.4.3.9.5 1.4.6.1 0 .2 0 .2.1.2.1.3.1.5 0 1.5.5 3.2.9 3.8.9h.1c.5.1 1 .2 1.6.2.7 0 1.3-.2 1.9-.5l.1-.1v-.7c.2-.1.5-.1.7-.2.6-.2 1.3-.4 1.9-.6.7-.2 1.3-.6 1.9-1.1 1.1-.3 3-1 4.1-2.9 1.4-2.2 1.3-5.3-.1-9.1-2-5.3-2.7-9.6-2.9-12.3-.2-2.6-.1-4.3 0-4.5.2-.7.3-1.3.5-2 0-.2.1-.4.1-.6.1-.4 0-.6-.1-.7-.2-.2-.4-.3-.7-.4h-.3l-.5.4c0-.4.1-.8.3-1.1.4-.7.8-1.4 1.2-2.2.3-.5 1.5-3 1.2-3.6-.1-.2-.3-.3-.4-.3H29l-.2.2c-.2.2-.3.4-.5.6l.1.1-.2-.1c-.3.4-.6.8-1 1.2C25.8 22 25 24 24.3 26c-.4 1.2-1 3-.6 5v.2c0 2.3.5 4.5 1.5 6.5.4.8.6 1.6.6 2.8 0 .9-.2 1.7-.6 2.5-.5 1-1.2 1.2-2.1.8-.4-.2-.8-.4-1.1-.6-1.1-.9-1.5-1.7-1.3-2.8.1-.3.2-.7.4-1.1l.1-.2c.1-.2.2-.3.3-.5.1-.2.2-.4.3-.7.1-.3 0-.5 0-.7V37l-.1-.7H21c-.1 0-.1 0-.2.1-.2 0-.3.1-.5.3-1 .9-1.6 2.1-1.6 3.4-.1.2-.1.4-.2.6-.1.4-.3 1-.3 1.2v.1c-.4.9-.3 1.7 0 2.5.3 1 1.3 1.8 2.4 1.9.6 0 1-.3 1.2-.9.8.5 1.8.7 2.8.7.3.1.8.1 1.4-.1h.2c.8-.1 1.3 0 1.5.5.6.9.3 2.5.1 3.3 0 .1-.1.1-.2.2l-.1.1-.7.7c-.2.2-.3.5-.5.8-.1.1 0 .2 0 .3v.2l.9.4.3.8c.1.4.1.8-.1 1.1l-.1.1v.2c.1.5-.2 1-.6 1.2-1.4.8-2.8 1.1-4.2 1.1-1.8 0-3.8-.6-5.8-1.9h-.1l-1.2.2c-.2 0-.3.2-.3.4v.2c0 .2 0 .4.1.6-.2 0-.6-.2-.9-.4-.3-.1-.5-.3-.8-.4-.4-.4-.9-.8-1.2-1.3-.8-1-1.4-2.2-1.9-3.6-.5-1.2-.6-2.3-.3-3.4.1-.6.2-1.2.2-1.7 0-.3-.1-.6-.2-.7V45l-.2-.5-.6.1c-1 .2-1.3 1-1.4 1.4-.3.8-.5 1.7-.5 2.7 0 1.3.3 2.5.6 3.6l-.1.2c-.9 1.3-1.2 2.8-.8 4.2L6.8 59l-.3.4-1.3.2-.4.4c-.7 2.2-.7 4.4.1 6.7.1.2.1.4.2.6l-1 .7-.1 2.4-.7.5-.2.1c-.9 1.9-1 3.8-.3 5.6.2.5.3.8.2 1.2zm9.4-32h.7l.1-.4c.3-1.2.6-2.3.1-3.8l-.2-.8-.7.5c-.1.1-.1.1-.2.1-.2.1-.4.2-.5.5-.6 1.2-.5 2.4.1 3.6.1.1.2.3.6.3zm90.3 63.3c-.1.3-.3.9.1 1.5l.1.1h.1c.9-.3 1.1-.5 1.3-2 .2-.1.4-.2.6-.2h.1l.1-.1.2-.2c1.3-1.5 2.8-3 4.7-3.9.1-.1.2-.1.2-.2.1-.1.2-.3.1-.5 0-.2-.2-.3-.3-.3h-.2l-.2.1c-.4.2-.9.3-1.3.6-1.4.8-2.8 1.6-3.8 3.1h-.1s-.1 0-.2.1c-.1-.1-.2-.1-.3-.1-.1-.3-.3-.4-.5-.4h-.2s-.1 0-.1-.1c-.1-.1-.2-.1-.4-.1s-.4.1-.5.4l-.1.1.1.1c.3.3.5.7.5 1.1v.3c.1.1.1.4 0 .6zM22.1 53.8c.2 0 .5 0 .7-.1.7-.2 1.6-.3 2-1.4v-.1l-.1-.1-.1-.1c-.1-.1-.2-.1-.3-.1-1 .2-2.1.2-3.1.3-.2 0-.4.1-.6.3-.1.1-.2.1-.3.2l-.2.1.2.2c.5.5 1.1.8 1.8.8zm117 53.1c-.1.1-.1.1-.3.1-.3 0-.6.1-.8.5l-.1.1.1.1c.1 0 .1.1.2.1.1.1.3.2.5.3 1 .4 1.9.6 2.7.6h1.4c.2 0 .5.2.5.4.1.4.4.5.7.5.1 0 .2 0 .3-.1.1 0 .1-.1.2-.2l.2-.4c0-.1 0-.1.1-.2l.1-.5c0-.1 0-.3-.1-.4-.8-.6-1.7-.7-2.5-.8-.4 0-.8-.1-1.1-.2l-.3-.3c-.2-.3-.5-.6-.7-.9-.5-.6-1.4-1.4-2.5-1.4-1.2 0-2.4-.3-3.5-.6-.3-.1-.6-.1-.9-.1-.6 0-1.2.1-1.7.3h-.2c-.2 0-.2.2-.3.3 0 0 0 .1-.1.1l-.1.1v.1c.2.6.9 1 1.5.8.4-.1.7-.2 1.1-.2.6 0 1.1.1 1.7.4 1 .4 1.9.6 2.8.5l.2.1c.2.2.5.4.7.6.2.2.2.2.2.3 0-.1 0-.1 0 0zm-.1-76.2c-1.2-1.6-2.9-3.6-5.3-5.1-1.8-1.1-3.9-2.3-6.3-3.1-.7-.2-1.3-.5-1.9-.8-1-.5-2-1.1-3.1-1.7-.5-.3-.9-.5-1.4-.8l-.3-.2.1.4c.1.9.6 1.2 1 1.4.3.2.7.4 1 .7.3.2.7.4 1 .6.9.6 2 1.1 2.8 1.4 2.1.9 4.3 1.9 6.2 3.4l2.1 1.8c.4.3.7.6 1.1.9.8.7 1.5 1.5 2.6 1.7h.4c.1-.1.1-.2.1-.2V31c0-.1 0-.2-.1-.3zm-5.7 4.1c-1.1-2.4-2.4-3.8-4.2-4.6-.1-.1-.3-.1-.4-.1h-.4s-.1 0-.1.1v.2c.3.5.6.8.9 1.1.1.1.3.2.4.4.1.1.2.3.3.4.3.3.6.6.8.9.2.3.5.7.7 1 .1.2.2.3.3.5.1.1.2.3.3.4.2.4.5.7.7 1.1.1.1.2.3.2.4.2.4.4.8.9 1l.2-.1c0-.1 0-.1.1-.1 0-.1.1-.2.1-.3-.1-.2-.1-.3-.2-.5-.1-.7-.3-1.3-.6-1.8zm21.5 60.8c-.1-.4-.3-.8-.6-1.1-1.1-1.4-2.2-2.7-3.4-4.3-.2-.3-.5-.5-.8-.6-.1-.1-.3-.1-.5-.1h-.3s-.2 0-.2.1v.2c.1.2.2.3.3.5.2.3.3.5.5.7 1.2 1.5 2.2 2.9 2.9 4.4.2.5.5.9 1.1 1.2.2.1.3.1.5.1.1 0 .2 0 .3.1h.2c.1 0 0-.2 0-.2v-.3c0-.3.1-.5 0-.7zm-.2 7.5c-.3-.6-.5-1.1-.7-1.5h.1c.1 0 .2 0 .3-.1l.2-.2.1-.1v-.2c-.1-.6-.4-1-.7-1.3l-.3-.3c-.7-1-1.5-2-2.2-3-.4-.5-.7-1-1.1-1.5v-.1c-.2-.3-.5-.7-1.2-.8 0 0-.3-.1-.3.1 0 .1.1.2.1.2.7 1.7 1.7 3.2 2.6 4.6l.3.4c0 .1.1.1.1.2-.2-.1-.3-.2-.5-.2l-.3-.1c-.1 0 .1.3.1.3.1.2.2.5.3.7.3.6.5 1.1.8 1.7v.1c-.1 0-.2-.1-.3-.2-.2-.1-.3-.2-.6-.2-.1 0-.2 0-.4.1l-.1.1v.6c.6 1.2 1.1 2.4 1.7 3.5l.2.4c0 .1.1.2.2.3.2.1.4.2.5.3.1 0 .1.1.2.1h.2c.8-.7.6-1.4.4-2-.1-.2-.1-.4-.1-.5l.3-1c.2-.2.2-.3.1-.4zm25-15.9c-.9-1.5-1.6-3.2-2.1-5.5-.3-1.4-.6-2.8-.9-4.1-.2-1-.4-2-.7-3v-.1c-.1-.4-.2-.9-.4-1.3-.5-1-1-2.1-1.5-3.1-.3-.6-.7-1.3-1.2-1.9-.5-.7-1.2-1.5-1.7-2.2l-.2-.3c-.1-.1-.3-.2-.4-.2-.2 0-.3.1-.4.2l-.1.1.1.1c0 .1.1.1.1.2.1.1.2.3.3.4.2.3.4.5.5.8.9 1.3 1.9 2.7 2.6 4.2.7 1.5 1.2 2.8 1.5 4.2.5 2.6 1.1 5.4 1.8 8.2.6 2.8 1.7 4.7 3.5 6.1.9.7 2.1 1.6 3.7 1.8h.3c.6 0 1-.3 1.3-.8l-.1-.3h-.1c-2.6 0-4.6-1.2-5.9-3.5zm7.6-2c-.8-.7-1.6-1.5-2.4-2.6-.3-.5-.8-.9-1.1-1.2l-.3-.3c-.1-.1-.2-.1-.4-.2-.1 0-.2 0-.3-.1l-.2-.1v.3c.3 1.2 1 1.9 1.7 2.6.2.3.4.5.6.7.5.6 1.2 1.1 2.2 1.4.1 0 .2-.1.2-.1l.1-.2v-.2c0 .1 0 0-.1 0zm-20.6-2.1l-.6-3.3c-.1-.6-.9-.4-.9.1-.2 2-.7 4-1.4 5.8-.2.5-.4.9-.7 1.4-.2.2-.3.4-.4.7-.1.3-.1.7 0 1.1 0 .1-.1.2-.1.3.2 1.5.3 2.9.5 4.4.1.5.8.7.9.1v-.1c.1-.1.1-.1.1-.2.3-.9.6-1.8.8-2.7.2 2.6.9 4.8 2 6.9 1 1.7 2.3 3 4 3.8.7.3 1.4.5 2.1.7.2 0 .3.1.5.1h.2c.2 0 .6-.1.7-.7v-.1l-.1-.1c-.1 0-.2-.1-.2-.1l-.6-.3c-2.7-1.1-4.6-2.8-5.7-5.2.8 1 1.9 1.9 3.1 2.5.7.3 1.4.5 2.1.7.2 0 .3.1.5.1h.2c.2 0 .6-.1.7-.7v-.1l-.1-.1c-.1 0-.2-.1-.2-.1l-.6-.3c-3.4-1.3-5.5-3.8-6.4-7.3l-.9-3.9c.2-.4.4-.8.7-1.2.1-.2.1-.3 0-.5 0-.6-.1-1.2-.2-1.7zm16.7 26.6h-.5c-.8.1-1.7.2-2.5.2-.3 0-.8 0-1 .7v.1l.1.1.1.1c.1.1.2.2.4.2 1.2.3 2.2.4 3.1.4.8 0 1.6-.1 2.3-.3 1-.3 2.1-.7 2.9-1.6.1-.2.4-.5.1-.9-.1-.1-.3-.1-.4-.1-.2 0-.4.1-.6.2-.1 0-.1 0-.2.1-1.3.3-2.5.7-3.8.8zM78.3 5.2v.1l.1.1c.5.6 1.2.6 1.4.6h.2c.9 0 1.9.2 3.2.6.5.2 1 .3 1.5.4.3-.1.6 0 .9 0 .5 0 .9-.1 1.3-.3.1-.1.3-.2.4-.2 1.6 1 3.3 1.4 5.2 1.2.7-.1 1.3-.1 1.9-.1.9 0 1.8.1 2.6.3.6.1 1.2.3 1.8.5.7.2 1.5.4 2.2.6.8.2 6.7 1.3 10.2 2l.8.2c2.3.5 4.1 1.1 5.9 1.7 3.5 1.3 6.4 2.9 8.7 5.1 1.3 1.2 2.7 2.4 4.4 3.3 1 .5 2.1 1 3.1 1.5 1.6.8 3.3 1.6 4.9 2.4 2.8 1.3 5.1 2.5 7.2 3.7 2.1 1.2 4.2 2.8 6.5 4.8.4.3.9.8 1.4 1.3 1.8 1.9 2.5 2.8 3.6 4.7 1 1.7 1.7 2.3 3.4 3.7.1.1.2 0 .4 0 .2-.1 0-.3-.1-1s-2-5.4-2.4-6.1c-.1-.2-.2-.3-.3-.6-1.2-2.1-1.7-3.7-3.5-5.3-1-.9-2-1.7-3.1-2.6-.5-.4-1.1-.8-1.6-1.1l-.2-.1c-1.7-1.1-3.4-2-4.9-2.7l-1.7-.8c-1.1-.5-2.9-1-4.1-1.3-.9-.2-2.1-.4-2.9-.7h-.1c-1.1-.5-2.7-1.1-3.9-1.7-1.5-.7-2.7-2-3.7-3-1.3-1.4-3.7-3.3-5.1-4.4l-.3-.2c-1.1-.8-2.2-1.5-3.4-1.9-2.1-.7-1-.3-3-.9-.5-.1-1-.2-1.5-.2-.7-.1-1.6-.3-2.5-.4-2.4-.8-8.8-1.9-13.7-3.1h-.2c-.9-.2-1.6-.4-2.2-.7-.7-.3-1.8-.2-2.5-.5h-.4C94.4 4 95.3 3 95.6 3c.2 0 .3-.1.5-.1.7-.1 1.4-.2 2.1-.2.4 0 .7 0 1 .1h.3c.4 0 .9-.2.9-.9v-.3s0-.1-.1-.1l-.2-.1c-.7-.5-1.5-.8-2.5-.9-.2 0-.3-.1-.5-.1-.3-.1-.6-.1-1-.1-.2 0-.5 0-.7.1-1.1.3-2.2.8-3.2 1.6-.1.1-.3.2-.4.3l-.7.8c-.3.3-.5.7-.7 1.1.6 0 .6.1.6.1l-.1.2h-.3c-1.2-.2-1.6-.6-1.7-1.8 0-.1 0-.3.1-.5 0-.2 0-.3.1-.5 0-.2 0-.4-.1-.5V1l-.1-.1C88.4.2 87.7 0 87 .4h-.1l-.1.1c-.8.7-.8 1.6-.8 2.4v.6h-.2c-1.2-.4-2.5-.6-3.7-.7-1.1-.1-2.2 0-3.3.4-.9.3-.6 1.4-.6 1.9l.1.1zm1.5.7zm75.3 53.5l.3-.1.1-.3c.3-.9.1-1.7-.8-2.2-.8-.5-1.6-.9-2.4-1.4h-.1c-.3-.2-.7-.4-1-.5h-.3c-.1 0-.3 0-.4.1h-.2l-.8.1.9 1.8c-.2.9.1 1.9.8 2.9.7 1 1.5 1.9 2.2 2.7 1 1.1 2.3 2.1 3.7 3 .1 0 .1.1.2.1s.1.1.2.1c-.3.1-.5.4-.6.9v.3l2.6 1.8c.1.1.3.2.4.3.2.1.4.3.6.4-.2 0-.4.1-.6.2l-.6.3.4.5c.3.3.6.7.8 1 .7.8 1.4 1.6 2 2.4.3.3.6.6 1 .9l.1.1c.1.1.3.3.6.3s.5-.1.8-.4l.2-.2-.1-.3c0-.1-.1-.3-.1-.4l-.3-1.2c-.2-.4-.5-.8-.7-1.1 0 0 0-.1-.1-.1l.4-.6-.1-.2c0-.1-.1-.3-.2-.4l.7.1v-1.2l-.3-.6c-1.6-2-3.4-3.5-5.4-4.7-1.3-.7-2.4-1.5-3.4-2.3-.8-.6-1.5-1.4-2.2-2.1l-.1-.1c.3.1.6.2 1 .2.5 0 .7 0 .8-.1zm-23.6-16.3c.3 0 .6-.1.9-.3.2-.1.2-.3.2-.5l-.1-.7c0-.1-.1-.2-.1-.3l-.7-.7h-.5c-1.2-.7-2.2-1.6-3.1-2.7-.7-.8-1.2-1.7-1.7-2.5-.1-.3-.3-.5-.4-.8-1.1-2-2.9-3.5-5.4-4.9-.2-.1-.3-.1-.4-.1h-.5c-.2 0-.3.1-.4.2-.2.2-.2.5.1.7l.4.3c.2.2.4.3.6.5l.3.2c1.2 1 2.4 1.9 3.1 3.2.1.1.1.3.2.4.3.6.6 1.1.8 1.7.2.7.6 1.3 1.1 1.9v.1c.5.6.9 1.1 1.4 1.7 1.1 1.1 2.3 1.9 3.6 2.5-.1 0 .2.1.6.1zm-127.6 68c.5 0 .8-.1 1.1-.3.1-.1.2-.2.2-.4v-.1l-.1-.1c0-.1-.1-.2-.1-.3v-.1h-.1c-.1 0-.3-.1-.4-.2-.2-.1-.3-.2-.4-.2-.2 0-.4-.1-.5-.2-.1-.1-.3-.1-.6-.2-.1 0-.3-.1-.5-.4-.2-.4-.6-1.4.1-3.4.3-1.2.6-2 1.8-2.8.1-.1.2-.2.3-.2.3-.2.6-.4.9-.8l.1-.1h.1c.6-.4 1.1-.7 1.9-.9.8-.2 1.7-.3 2.5-.4.2 0 .5-.1.7-.1 1.3-.2 2.5-.4 3.5-.8 1.1-.4 2.3-.8 2.9-1.7.1-.1.1-.3 0-.4-.1-.2-.2-.3-.4-.2-.8.1-1.5.4-2.2.6-.5.2-1.1.4-1.6.5-.9.2-1.7.3-2.6.5-.3 0-.7.1-1 .2h-.1c-1.1.2-2.5.4-3.6 1-.1-.3.1-.6.3-.9.1-.2.2-.3.3-.5v-.1l-.4-.6.2-.1c1.2-.5 2.2-1.1 3.2-1.7 1.5-1.1 2.8-2.4 4-3.7l.3-.3c.6-.7.7-1.2.7-2.1v-.4l-.3.3-.5.5c-.3.3-.7.7-1 .9-1.7 1.3-3.6 2.8-5.9 3.8h-.5c-.7 0-1.4-.3-1.8-.8-.2-.2-.3-.4-.5-.6-.4-.4-.7-1-.8-1.6v-.3h.3c.3 0 .6.1.9 0 .3 0 .5-.1.6-.3.1-.2.2-.4.2-.7v-.1l-.1-.1s-.2-.1-.3-.2l-1-1c-.1-.1-.3-.1-.4-.2-.1 0-.1 0-.2-.1l-.2-.1-.3 1.6-.9.4v.1c-.2.5-.2 1-.2 1.5v.4c0 .6.2 1.1.5 1.6.3.6.6 1.3.4 1.9H2l-.5.6.4 1.3c-.5.7-.6 1.4-.1 2.2.2.4.3.8.4 1.2 0 .2.1.3.1.5l-.3.3c-.2.3-.4.5-.6.8-1.3 1.7-1.6 3.4-1.1 5.2.3 1.2 1.1 2 2.3 2.4.2.4.7.5 1.3.5zm14.8-29.3c-.2.1-.4.1-.6.2-.9.4-1.8.9-2.7 1.3l-.9.4c-.1.1-.3.1-.4.2-.3.1-.6.3-1 .5-.2.1-.3.3-.5.4l-.3.3-.2.2.2.1c.4.2.9.3 1.3.3.6 0 1.2-.2 1.6-.4 1.4-.5 3-1.4 3.7-3.4l.1-.4v.2c-.1.1-.2.1-.3.1zm0-6.3h-.3c-.6 0-1.1.2-1.4.4-.1 0-.1.1-.2.1-.2.1-.5.2-.7.3-.5.2-1.1.5-1.6.7-1.8.7-3.5 1.2-5.3 1.4-.4.1-.8.2-1.1.4-.2.1-.4.4-.4.5v.1l-.1.2v.4c.2.5.4 1.1 1 1.3.2.1.4.1.6.1.4 0 .8-.1 1.1-.2.1 0 .1 0 .2-.1 2.6-.8 5.2-2.2 7.9-4 .2-.1.3-.3.4-.5 0-.1.1-.1.1-.2l.6-.8-.8-.1zm115.7 184v-.6c0-.2-.1-.4-.2-.7-.1-.2-.4-.4-.7-.4.3 0 .5-.1.6-.2.3-.2.4-.5.4-.9 0-.5-.2-.9-.6-1.1-.2-.1-.6-.2-1.1-.2h-1.4v4.4h.7V258h.6c.4 0 .7 0 .8.1.3.2.4.5.4 1v.4h.7v-.1c-.1.3-.2.2-.2.1zm-1-2.1c-.2.1-.4.1-.7.1h-.7v-1.6h.6c.4 0 .7.1.9.2.2.1.3.3.3.6 0 .4-.2.6-.4.7zm45.3-163.1c-.3-.1-.7-.3-1-.5-1.5-.8-3-1.7-3.7-3.4-.1-.1-.2-.2-.3-.4-.1-.1-.2-.1-.3-.2l-.3-.3v.9c0 .3 0 .5.1.7.3.6.6 1.2.9 1.6 1.1 1.5 2.6 2.4 4.3 2.7h.3c.2 0 .3-.1.4-.1.1-.1.2-.3.2-.5v-.1l-.1-.1c-.2-.1-.3-.2-.5-.3zM16.2 108.8c-.1-.1-.2-.2-.3-.1-.1 0-.2.1-.3.1-.3.1-.4.2-.6.3-1.3 1.1-2.9 1.8-4.9 2.2-.6.1-1.3.1-1.9.1H7.1c-.2 0-.6 0-.7.5v.1l.1.1c.4.3.8.5 1.2.6-.4 0-.9.1-1.3.4l-.1.1v.3c0 .1 0 .3.1.4.6.7 1.4 1.2 2.4 1.3h.6c.6 0 1.3-.1 1.8-.3.4-.2.8-.4 1.2-.5.5-.2 1-.5 1.5-.7 1.6-.6 2.5-1.8 3.3-2.9l.3-.6c0-.1.1-.2.1-.2l.1-.1-.4-.4-.1.1c-.1.1-.2.1-.3.2-.2.1-.5.3-.7.4-.3.2-.5.3-.7.4.4-.4.7-.9.9-1.4-.1-.2-.1-.3-.2-.4zm104.6-5.3c.1.1.2.3.4.3h.1c.5 0 .9 0 1.3-.1.8-.2 1.6-.5 2.4-.8l.2-.1c.5-.2 1-.2 1.5 0 .4.1.6.2.8.2.2 0 .4.1.8.2.1 0 .2.1.3.1.2.1.5.2.8.2.2 0 .3 0 .4-.1h.1v-.1c.1-.7-.4-.9-.8-1.1-1.1-.5-1.9-.8-3.2-1.1-.5-.1-1.1-.1-1.5 0-1.2.3-2.4.9-3.5 1.7-.1.1-.1.2-.2.3 0 0 0 .1-.1.1l-.1.1.1.1.2.1zM53.1 36l-.2-.1-.1.2c0 .1-.1.2-.1.3-.1.2-.1.3-.1.5v.2c.1.6.2 1.2.4 1.8.7 2.1 2.1 4 4.5 5.8.3.2.6.3 1 .5h1.1l-.1-.3c0-.1-.1-.2-.1-.3-.1-.2-.1-.4-.2-.5l-.1-.1c-.3-.4-.7-.9-1.1-1.2-1.6-1.3-2.7-2.9-3.7-5.2 0-.1-.1-.1-.1-.2-.2-.6-.4-1.1-1.1-1.4zm32.7 13.9c-1.5-.8-3.1-1.1-4.6-1.3h-.1c-.2 0-.3.1-.4.2-.1.1-.2.3-.2.6v.1h.1c.9.4 1.9.7 2.8 1 .8.2 1.5.5 2.3.8h.9v-.2c0-.8-.5-1-.8-1.2zm3.1-.7h.8l-.1-.2c-.3-.9-.5-1.1-1.3-1.4-.9-.4-2-.9-3.1-.9h-.7v.1c-.1.2-.1.4-.1.6.1.2.2.3.5.4 1.3.5 2.6 1 3.9 1.4h.1zm-34-12.9c.3 1 .9 1.9 1.7 2.9 1.1 1.2 2.4 2.3 3.9 3.3.5.4 1.1.6 1.7.8l.2.1h1v-.2c.1-.9-.4-1.4-.8-1.8-.7-.6-1.4-1.2-2.1-1.7-1.5-1-2.6-2.4-3.3-4-.4-1-.8-1.8-1.2-2.6-.3-.6-.6-1.2-1.3-1.5h-.2c-.4.1-.8.4-.6 1.2.2.9.5 1.7.8 2.6 0 .4.1.6.2.9zm14.6-13.7c-.2-.4-.5-1-1.2-1.3-.5-.3-1.1-.2-1.4.2l-.1.1v.1c-.2.6-.2 1.3.2 2 .1.2.2.3.3.5.3.6.6 1.3 1.1 1.9 2.5 3.5 5.5 5.9 9.2 7.1 2.6.9 5.2 1.7 7.6 2.5.2.1.4.1.6.2.1 0 .3.1.5.1l1.2.3-.7-1.1c-.8-1.2-1.6-1.8-2.5-2.2l-.7-.3c-1.2-.5-2.4-1.1-3.7-1.5-2.5-.8-4.5-1.9-6.1-3.3-1.4-1.4-3.2-3-4.3-5.3zm-15 22.3c0 .1.1.3.2.4 1.3 2 3.2 3.5 5.5 4.5 1.2.5 2.6.9 3.8 1.2.5.1 1 .2 1.4.4h1.2l-.2-.3c-.1-.1-.1-.2-.2-.3-.1-.1-.1-.2-.2-.3-.8-.9-1.8-1.2-2.9-1.4-1.4-.3-2.8-.8-4.1-1.6-1.2-.7-2.4-1.6-3.7-2.9h-.1c-.1-.1-.3-.3-.5-.3-.1 0-.2 0-.3.1h-.1v.1c.1.2.1.3.2.4zm49.7-3.7c.1.1.2.3.3.4.3.4.5.8.8 1.2.4.5.9.8 1.4.8h.1c.2 0 .5-.1.6-.3.1-.2.2-.5.1-.7-.9-2-2.2-3.9-3.8-5.4-.7-.7-1.5-1.1-2.3-1.5-.7-.7-1.5-1.2-2.3-1.5-2.3-1.1-4.8-2.1-7.4-2.8-2.6-.6-4.9-1.4-6.9-2.3-1.7-.8-3.4-1.7-4.9-3-.2-.2-.3-.3-.6-.4-.1-.1-.2-.2-.3-.2l-.3-.2v.6c0 .2 0 .3.1.4l.1.2c.2.3.5.6.8.9.6.5 1.3 1 2 1.5.2.1.3.3.5.4 1.1.8 2.4 1.5 3.5 2 1.5.7 3.1 1.1 4.6 1.6.5.1 1 .3 1.5.4 2.5.8 5 1.5 7.3 2.7 0 .2.1.3.2.4l.1.1c.2.1.3.3.5.4 1.1.5 1.9 1.4 2.8 2.4.3.4.7.9 1 1.4.2 0 .4.3.5.5zm5-2.2c.5.6.9 1.1 1.5 1.4.1.1.2.1.4.1h.5c.1 0 .3-.1.3-.2.1-.1.1-.3 0-.4-.5-1.1-1.2-2.8-1.2-2.8V37l-.1-.1-.2-.2c-.1-.1-.3-.2-.4-.4-1.6-1.5-3.5-2.8-5.8-3.8-.1-.1-.3-.1-.5-.1-.1 0-.5.1-.6.6v.1l.1.1c.3.4.7.7 1.1.9.1.1.3.2.4.2.2.1.4.3.6.4.5.4 1.1.7 1.5 1.2l2.1 2.4c0 .3.2.5.3.7zM94.1 13.5c-.1 0-.1.2-.1.2l.2.2s0 .1.1.1c.1.1.2.3.4.3.2.1.5.1.7.1h3.1c2 0 4.2 0 6.3.2.2 0 .3-.1.4-.2 0 0 .1 0 .1-.1l.3-.2c.1 0 .1-.2 0-.2l-.3-.2c-.9-.6-1.6-.9-3.1-1-.9-.1-1.8-.1-2.7-.1-2.2 0-4.1.3-5.1.7l-.3.2zm-9.4 4c-1.5-.5-3.1-1-4.5-1.9-.2-.1-.4-.3-.7-.3-.1 0-.3-.1-.4-.1h-.5v.3c.1.7.6 1 .9 1.2C83 18.9 86.7 20 90.6 20h.8c.3 0 .7 0 1.1.1 1.3.2 2.7.4 3.9.6l1.8.3h.8l.2-.6-.1-.1c-.1-.1-.2-.1-.3-.2-.2-.1-.4-.3-.6-.4-1.9-.8-3.9-1.3-5.9-1.2h-.7c-2.4 0-4.5-.3-6.4-.9l-.5-.1zm13.6-6.9c0-.1-.1-.1 0 0-.1-.1-.1-.2-.3-.3-1.3-.7-2.8-1-4.8-1h-1.1c-.2 0-.4.2-.5.3-.1 0-.1.1-.2.1l-.2.2c-.1.1-.1.3 0 .4l.2.1c.1 0 .1.1.2.1.1.1.2.1.4.2 1.9.3 3.5.6 5.1.8h.3c.4 0 .7-.2.9-.6l.1-.1v-.1l-.1-.1zm1.7 33.6c.4.3.7.5 1.2.5h.3l.3-.5c.3.1.5.1.7.2h.4l-.2-.3c-.5-.9-1.3-1.6-2.3-2l-.1-.1c-.3-.1-.5-.3-.9-.3-.2 0-.4.1-.6.2h-.3c-.3 0-.5.2-.6.6v.2c.4.6 1 .9 1.5 1.3.3-.1.4 0 .6.2zM74.9 17.9c-.1 0-.2 0-.3-.1l-.9-.2c-.1 0-.2.1-.1.2l.5.7c.1.1.2.3.2.4.1.2.2.4.4.6 1.8 1.8 4 3.3 6.4 4.4.8.4 1.7.7 2.5.9.4.1.9.3 1.3.4 1.2.4 2.1.7 3 .8 1.1.1 2.3.3 3.4.5.3 0 .6.1.9.1 2.1.3 4.2.9 6 1.3 1.9.5 3.6 1.1 5.3 1.8.8.4 1.6.7 2.3 1.1.4.2.7.4 1.1.5.1.1.3.2.6.2s.5-.1.7-.4l.2-.3-.3-.3c-1-1.1-2-1.9-3.1-2.5-1.7-1-3.5-1.6-5.3-2.1l-.5-.2c-.3-.1-.5-.1-.8-.2-.2 0-.5-.1-.7-.1-1.6-.5-3.4-.7-4.8-.9-.3 0-.6-.1-.9-.1-2.2-.2-4.4-.5-6.5-1.1-1.9-.6-3.5-1.1-4.9-1.8-2.1-1-3.8-2.2-5.4-3.4 0-.1-.1-.2-.3-.2zm23.5 28.9c-.7-.7-1.5-1.4-2.3-2.1-1.2-1-2.6-1.6-4.4-1.8h-.6l-.1.1-.1.5.1.1.1.1c.1.1.2.1.3.2 1.7.8 3.4 1.9 5.1 3 .4.3.9.5 1.4.7l.2.1h.2c.2 0 .4-.1.5-.5V46.9c-.2.1-.3 0-.4-.1zm-21.8-1.7c.4.4.9.9 1.8.9h.3l.9-.1-.5-.8c-.1-.1-.2-.3-.3-.4l-.6-.9c-.8-1.3-2-2.2-3.6-2.7-.5-.2-1-.3-1.5-.5-1.1-.4-2.3-.8-3.5-1.1-1.9-.5-3.8-1.5-5.6-2.9-1.5-1.1-2.5-2.4-3-3.8v-.2c-.7-1.8-1.4-3.6-1.6-5.5-.1-.7-.2-1.4-.4-2.3-.1-.3-.2-.5-.3-.7 0-.1-.1-.1-.1-.2l-.2-.5-.5.2c-.5.2-.8.7-.7 1.2l.1.5c.2 1.5.4 3.1.9 4.6l.1.3c.3.7.5 1.5.7 2.2.2.9.6 1.7 1.2 2.6 1.5 2.2 3.4 3.8 5.6 5 1.7.9 3.6 1.6 5.8 2.2 1.9.6 3.5 1.5 5 2.9zm10.6 47.3c.3 0 .7-.1 1.1-.1 1.4-.1 3-.2 4.1-.4h.7c.8 0 1.5.2 2.1.7.2.2.5.4.8.5.1.1.2.1.3.2h.2c.8-.3.9-.3 1.2-.8l.1-.1-.1-.1c-1-1.4-2.4-2.1-4.2-1.8-.8.1-1.6.2-2.5.3-.7.1-1.6.1-2.4.2-.8.1-1.7.1-2.3.2-.1 0-.2.1-.3.1-.1 0-.1.1-.2.1l-.2.1.1.2c0 .1.1.1.1.2.1.1.2.3.3.4.3.1.7.2 1.1.2-.1-.1-.1-.1 0-.1zM103.4 82c.6 0 1.1 0 1.5-.1.2 0 .3-.1.5-.1 0 0 .1 0 .1-.1.2-.1.3-.2.3-.4s-.1-.4-.2-.4-.2-.1-.2-.1c-.2-.1-.3-.2-.5-.2-.6 0-1.3-.1-1.9-.1-1.2-.1-2.5-.2-3.7-.2h-1.6c-1.3 0-2.6.1-3.8.1-1.1.1-2.2.1-3.7.1h-6v.2-.2h-1.6c-.3 0-1.2 0-1.5 1.1l-.1.3.3.2c.1 0 .2.1.3.1.2.1.5.3.8.3l.4.1c.8.1 1.7.3 2.6.3h1.5c2.2 0 4.6-.1 6.8-.3 2.9-.3 5.9-.5 9-.5.1-.1.4-.1.7-.1zM78.2 54.8c-1.4-1.2-2.7-1.7-4.3-1.6h-.1l-.6.8-.8-.1c-.7-.1-1.4-.2-2-.3-.3-.1-.6-.1-.9-.2-.6-.1-1.1-.3-1.7-.3h-.5v.1c-.1.4 0 .8.4.9.2 0 .3.1.5.1l1.8.6c1.9.4 3.4.8 5 1.3l.2.1c.4.1.7.3 1.2.3.2 0 .5 0 .7-.1l.1-.1-.1-1 1.6-.2-.5-.3zm6.9 51.2c0-.2 0-.6-.4-.7h-.2c-.5.2-.7.7-.8 1.1-.1.4-.3.9-.4 1.3l-1.2 3.9c-.3 1.2-.2 2.5-.1 3.8 0 .2.2.4.3.6 0 .1.1.1.1.2v.1h.1c.4.2.8.4 1.4.4.3 0 .5 0 .8-.2h.1l.3-.8c.2-.5.4-1 .5-1.5l.1-.4c.6-1.8.6-1.8.1-3.8l-.1-.4c0-.1-.1-.2-.1-.3-.4-.9-.6-2-.5-3.3zm35.3-63c.2 0 .4-.1.6-.2.1-.1.2-.2.2-.4v-.1c0-.1 0-.3-.2-.5-.3-.2-.5-.4-.8-.6-.3-.2-.5-.4-.8-.6-.5-.4-1.1-.7-1.6-1.1-1.1-.9-2.1-2-3.1-3.7-.7-1.1-1.6-2.4-2.8-3.4-.3-.3-.8-.7-1.4-.6h-.2l-.1.2v.1c0 .1-.1.2 0 .4v.1c.1.2.1.3.3.5.8.9 1.5 2 2.2 3.2 1 1.9 2.5 3.5 4.5 4.9.8.6 1.6 1 2.4 1.5.2.2.4.3.8.3zm-6.2-9.9c1.3 1 2.4 2.1 3.4 3.4 1.4 1.9 3.1 3.4 5 4.6.5.3 1.1.6 1.8.9.1 0 .2.1.3.1h.9c.2 0 .2-.2.2-.3l-.2-.2c-.1-.1-.2-.2-.2-.3-.1-.2-.3-.4-.5-.5l-.2-.1c-.5-.4-1-.8-1.6-1.1-1-.5-1.9-1.3-2.5-2-.7-.7-1.5-1.6-2.4-2.7-.9-1.2-2.2-1.9-3.3-2.5-.2-.1-.3-.1-.5-.1h-.3c-.1 0-.3.1-.3.2-.1.1-.1.3 0 .4.1.1.1.2.2.2.1-.2.1-.1.2 0zM100 92.8h.4l.8-.1c1.7-.3 3.5-.5 5.2-.8.1 0 .3-.1.5-.2.1 0 .2-.1.3-.1.1 0 .1-.1.2-.2 0-.1 0-.2-.1-.2-.1-.1-.2-.1-.4-.2-.2-.2-.4-.3-.6-.3h-4.6c-.5 0-1 .1-1.5.3-.3.1-1.1.3-1.2 1.3v.1l.1.1c.3.2.5.3.9.3zM65.9 30.9l-.3-.3-.4-.3.1.5c.1 1.2.2 1.3.8 2.1 1.6 1.9 3.7 3.4 6.8 4.6 1.2.5 2.4.9 3.6 1.3.8.2 1.5.5 2.3.8.5.2 1 .4 1.4.6.4.2.9.4 1.4.5.1 0 .1 0 .2.1.2.1.4.2.6.2.2 0 .3-.1.5-.1h.1v-.1c.1-.5-.3-.8-.5-.9 0 0-.1 0-.1-.1-1.4-.9-3-1.5-5.1-2.1l-.3-.1c-2-.5-4-1.1-5.8-2.1-1.7-1-3.6-2.1-4.9-4-.1-.3-.2-.4-.4-.6zm13.3 83.3c.2 0 .3-.1.3-.3.1-.9-.2-1.8-.8-2.2l-.2-.2-.1.3c-.2.9 0 1.6.5 2.2.1.2.2.2.3.2zm-2.6-4l-.1.1s0 .1-.1.1c-.1.1-.1.2-.1.3 0 1 .4 1.9 1 2.7.1.1.3.1.4.1h.2l.1-.1c.4-.9.1-1.6-.3-2.2 0-.1-.1-.2-.1-.3-.1-.3-.4-.8-1-.7zm-5-2.7c-.4 0-.7 0-1.2.1h-.3l.2.3c0 .1.1.1.1.2.1.2.2.3.3.4 1.5.5 2.5 1.5 3.4 2.4.1.1.1.1.2.1s.1 0 .2-.1l.2.1.1-.2c.1-.1.1-.2.2-.3l.2-.2v-.2c-.9-1.8-1.9-2.6-3.6-2.6zm11-53.5h.5c.2 0 .4-.1.5-.2.1 0 .1-.1.2-.1l.1-.1-.1-.2v-.2c0-.1-.1-.2-.1-.3-.1-.1-.2-.2-.4-.3-.8-.7-1.6-1.3-2.6-1.7-.4-.1-.8-.3-1.1-.4-.3-.1-.6-.2-.8-.3-1.1-.4-2.2-.4-3.3-.5-.6 0-1.1 0-1.7-.1-.2 0-.4.1-.7.2-.1.1-.2.1-.3.2l-.3.1.2.2.3.3c.2.2.3.3.5.4.4.2.8.3 1.3.5 2.1.5 4.2 1.2 6.2 2 .4.4 1 .5 1.6.5zm28 52.9c.1 0 .2 0 .3-.1.4-.1.7-.3 1.1-.5.3-.2.6-.3.9-.5.3-.2.7-.4 1-.6l.6-.3c.8-.4 1.2-.7 2.3-.7.6 0 1.3 0 1.8-.4.3-.2.6-.5.2-1.2l-.1-.1h-1.9c-1.3 0-2.4.2-3.7.9-2.1 1.2-2.9 1.8-3.3 2.8v.2c.2.3.5.5.8.5zm30.1 23.2c-.4-.2-.5-.2-1.1-.6-.7-.4-1.4-.7-2-1.2-1.1-.9-2.3-1.4-3.6-1.7-.9-.2-1.7-.5-2.5-1-1.6-.9-3.1-1.8-4.7-2.6-.6-.3-5-3-11.3-2.9-1.3.1-2.7.3-3.9.9-1.8.9-3.5 1.8-5.3 2.7-.1.1-.2.1-.4.2-.3.1-.6.3-.9.4h-.1c-1.1.4-2.4.8-3.4 1.1-1 .5-1.1.6-1.4 1.3.7 1.1 1.9.4 3 .8.3.2 1 .6 1.4.9-.2.2-.6.5-.9.7-.1.1-.1.3 0 .4.2.1.3.2.4.2.6 0 1.3 0 1.9-.1 1-.2 2-.2 2.9 0 1.4.3 2.8.5 4.2.7 2 .4 3.8.3 5.7-.2v-.1c0-.3-.5-.4-1-.5h-.2c-2 .1-3.9-1.9-3.8-3.9 0-.4.7-.7 1.3-.8.2.1.1.4.3.6.2.6.5.8.7 1.2.6 1.1 1.5 1.5 2.7 1.6 1.2.1 2.3-.3 3.2-1.1.3-.2.6-.5.9-.7.3.2.1.4.1.6 0 .1-.1.5-.1.5 0 .6-.4.9-.8 1.1 0 .3.2.5.4.6.2 0 .3-.1.5-.1s.5-.1.7-.1c.5-.1.9-.4 1.1-.9l.6-1.8c.1-.4.2-1 .4-1.4 1.1.3 2.3 1.1 2.8 2-.2.6-1 .9-1.4 1.1-.1.1-.3.1-.5.4.4.1.6.2.8.2.5 0 1 0 1.5-.1 1.2-.1 2.5-.1 3.7.2.3.1.7.1 1 .1 1.1 0 2.1.4 3.2.7.5.2.9.3 1.4.5 1 .5 1.3.5 2.3.6.1 0 .2-.1.3-.2.1-.1.1-.2.1-.3h-.2zm-26.8-.7c-.4.3-.8.2-1.1 0-.5-.1-.9-.3-1.4-.5-.9-.3-1.9-.6-2.9-.6-.4 0-.7-.2-.8-.7.1-.2.2-.4.4-.5 1.3-.9 2.5-1.7 3.8-2.5.1-.1.3 0 .5 0 .2.9.3 1.8.6 2.6.1.7.5 1.5.9 2.2zm7.2-4.8c-.2.2-.7.4-.9.4-1-.3-.9-.3-1.4-1.1-.1-.1 0-.2 0-.2.9-.6 1.5-.5 2.3.6.1.1.1.2 0 .3zm20.1 43.7l-.1-.1-.1-.1c-.3-.6-.8-1.1-1.5-1.4h-.1c-.2 0-.3.1-.4.3-.1.7-.1.8.1 1.1.1.4.4.8.6 1.2.2.4.4.7.5 1.1.1.3.1.6.2.9 0 .4.1.8.3 1.2v.1c0 .1.1.3.3.5h.2c.1 0 .5-.1.6-.2 0-.1.1-.1.1-.2 0-.3.1-.5.1-.8v-.4c-.1-.2-.1-.5-.2-.7-.2-.8-.4-1.7-.6-2.5zm1.9-17.2l.1-.2h-1.9c-.5 0-.8-.1-1.1-.3 0 0 .1 0 .1-.1.1-.1.2-.1.3-.2h.1c.6-.1 1.2-.2 1.6-.6.1-.1.2-.3.3-.5 0-.1.1-.2.1-.3l.1-.3h-1.2c-.4.1-.8.1-1.2.1-.6 0-1.1-.1-1.7-.1h-.8c-.2 0-.4-.1-.7 0-.3 0-.5.1-.6.3-.1.1-.1.3-.1.5.4.5.9.7 1.4.8.2.1.4.1.6.2l-.6.9.1.1c.7.9 1.6 1 2.2 1 .3 0 .7 0 1-.1 1 .1 1.6-.4 1.9-1.2zm-40.2-3.5h.1l.1-.1c.2-.5-.2-1-.5-1.3l-.3-.3c-.9-1.2-1.7-2.5-2.5-4.2-.2-.4-.4-.7-.6-.9-.1-.1-.2-.2-.3-.2-.2-.1-.4-.1-.6 0l-.4.2c-.1.1-.1.2-.1.3 0 .5.1 1 .1 1.5.1 1.3.2 2.6.3 3.8.1.7.2 1.3.4 1.9v.1c0 .2.2.2.3.3.1 0 .1.1.2.1h.3v-.2c0-.1.1-.2.1-.4s.1-.4.1-.6c.1-.2.1-.3.2-.3 0 .1.1.2.1.3.2.3.4.7.6 1 .1.1.2.4.6.4.1 0 .2 0 .3-.1.1 0 .1-.1.1-.2 0-.5-.2-.9-.3-1.3-.1-.3-.2-.6-.3-1 .2.1.4.3.6.4.5.4.8.7 1.4.8zm41.9 77.2c-1.4 1.5-3 2.8-4.6 3.9-.6.4-1.2.8-1.2 1.6v.1c.4.9.5 1.1 1.2 1.1h.3c.4 0 .8 0 1.1-.1.9-.2 1.8-.8 2.6-1.6.7-.8 1.5-1.2 2.4-1.4 1.7-.3 3.1-1.3 4-2.8.3-.5.6-1 1-1.4.9-1 1.7-2.2 2.5-3.6.6-1.3 1.3-2.6 1.8-3.8l.2-.5c.2-.5.5-1.1.7-1.6.3-.7.7-1.5 1-2.2.9-1.9 1.9-3.6 2.9-5.2.3-.5.5-1 .7-1.5.1-.2.1-.4.2-.5.1-.1 0-.2 0-.3 0 0 0-.1-.1-.1l-.1-.2-.2.1c-.4.3-.6.7-.8 1-.1.1-.1.3-.2.4-.2.4-.5.7-.7 1.1-.8 1.2-1.6 2.5-2.2 3.8-.6 1.2-1.2 2.5-2.1 4-.6 1.1-1.3 2.3-1.9 3.4-.3.4-.5.9-.8 1.3v.1c0-.2.1-.3.1-.5.1-.4.3-.9 0-1.6l-.1-.3-.2.3c-.1.1-.2.3-.3.4-.2.2-.3.3-.4.5-.2.3-.3.5-.5.8-.7 1.1-1.4 2.1-2.3 3l-.1.1-.1.1c.1-.1.1-.2.2-.3.2-.4.4-.8.5-1.3.1-.2.2-.4.4-.6.2-.3.5-.6.5-1 0-.1 0-.2-.1-.3-.1-.1-.3-.2-.4-.1-.4.2-.7.5-.9.9-1 1.8-2.4 3.3-3.8 4.7l-.2.1zM120.7 206c.2-.3.4-.6.5-.8.1-.2 0-.3 0-.5v-.7l-.3.1c-.2.1-.3.2-.5.2-.3.1-.5.2-.7.4-1.1.9-2.1 1.9-3.1 2.8l-.4.4c-.3.2-.5.5-.6.7-.1.1-.1.3-.1.4v.4h.8c1.6-.6 3-1.8 4.4-3.4zm-17.7 2.5c0-.5.2-1 .5-1.6l.3-.6c0-.1 0-.1.1-.2v-.1l-.9-2-.8-.5.4-1.2c0-.1 0-.3-.1-.4-.1-.1-.3-.2-.5-.2-.3.1-.6.1-.9.2-.9.2-1.7.3-2.5.5-2.9.8-5.9 1-8.7 1.1h-8.7c-.1 0-.3 0-.4.1h-.4l.1.2c0 .1.1.2.1.3.1.4.2.6.2 1.1 0 .3.2.6.4 1s.4.8.4 1.2v.1h.1c.2.1.3.1.4.2.1.1.2.2.5.3h.1l.1-.1c.1-.1.2-.2.2-.3.2-.2.3-.4.5-.7.1-.1.2-.3.3-.4l.3-.6c.1-.1.2-.2.3-.2h.2c.2.3.2.6.1 1 0 .5 0 1 .4 1.4l.1.1.1-.1c.5-.3.7-.7.8-1.1.2-.4.3-.8.8-1 .2.3.3.6.4 1 .1.3.2.7.3 1l.1.1h.1c.4-.1.6-.4.7-.7.1-.2.2-.4.4-.5l1 .2.8-.7h1.1l.1-.1c.1-.1.1-.2.1-.3.1-.2.2-.4.3-.5 0 0 .1-.1.2-.1.2.2.2.5.2.8 0 .4 0 .8.4 1.2l.1.1.1-.1c.4-.3.6-.7.8-1.1 0-.1.1-.2.1-.3.1-.3.3-.4.7-.5.1 0 .1.1.2.1.2.1.4.3.6.4.2.2.4.4.5.7.1.1.2.2.2.3l.1.1.1-.1c.4-.2.6-.6.8-.9.3-.4.5-.8.9-.9l1.2.3c.7.9 1.1 1.9 1.4 2.7v.1c0 .3-.2 1.2-.3 2.2-.1.7-.2 1.4-.3 2-.1.3-.1.7-.1 1.2v.5c0 .2.1.4.2.6.2.2.3.5.5.8.4.7.6 1.1.9 1.2l.2.1.1-.2c.6-2.1.4-4.1 0-5.3v-.1c0-.8-.1-1.9 0-2 .8-.2.9-.5.9-.8zm15.8.8h-.1c-.1 0-.3 0-.4.1l-.3.2c-.6.4-1.2.8-1.7 1.3-.5.4-1.3 1.2-1.6 1.8l-.1.2.2.1c.1.1.3.1.4.1.3 0 .4-.2.6-.3l.1-.1c1-.8 2.3-1.9 3.1-2.7.1-.1.1-.2.1-.4v-.3h-.3zm10.7 1.7c-.5-.9-1-1.9-1.5-2.8l-.3-.3s-.1-.1-.1-.2l-.2-.2-.2.5c-.2.5-.3.6-.2.9.1.3.2.6.3 1 .2.6.3 1.2.5 1.6.3.6.6 1.1.9 1.6.6 1.1 1.3 2.3 1.7 3.5.1.3.3.5.5.7.1.1.1.2.2.3l.1.1h.1c.4-.1.6-.4.6-.8-.1-.9-.2-2-.8-2.9-.5-1-1.1-2-1.6-3zm26-25.9c0-.1-.1-.2-.1-.4l-.1-.4-.2.4c-.1.1-.2.2-.2.3-.1.1-.1.2-.1.3-.1.5-.2.9-.3 1.4-.1.7-.3 1.5-.4 2.2 0 .2-.1.4-.1.7-.2 1-.4 2-.7 3-.3 1.1-.7 2.2-1.1 3.2-.2.6-.4 1.2-.6 1.9-.1.4-.3.8-.4 1.3-.1.2-.1.4-.2.6v.1l.9.7.1-.1c.1-.1.1-.1.2-.1.1-.1.2-.2.2-.3.2-.3.3-.7.4-1 .1-.3.3-.7.4-1 .3-.6.5-1.3.8-2 .9-1.9 1.4-3.9 1.5-6 .1-1.1 0-2.2 0-3.2v-1.1c.1-.2.1-.4 0-.5zm.3-6.9c.7-2 1.4-4.5 1.2-7.4l-.1-.6-.3.5c-.1.1-.1.2-.2.3-.1.2-.2.3-.2.4-.2 2.4-.8 4.4-1.7 6.2l-.3.6c-.5 1.4-.8 2.8-.8 4.3 0 .2 0 .8.7.8h.2v-.1c0-.1.1-.2.1-.3.1-.2.2-.5.2-.7.1-1.3.6-2.4 1-3.6l.2-.4zm6.2 5.5c0 .2.1.4.2.6 0 .1.1.1.1.2l.3.5.4-.5c.6-.7.9-1.4 1-2.1.4-1.7.6-3.5.7-5.7.1-2-.3-4-.6-5.9-.2-1.1-.4-2.2-.5-3.3-.1-.8-.2-1.7-.2-2.5 0-.4-.1-.8-.1-1.2 0-.5-.3-.8-.8-.7h-.3l-.1.3v.1c-.1.1-.1.3-.1.4-.1 2.4 0 4.4.4 6.2v.1c.2 1.2.4 2.4.5 3.5.2 3.1 0 5.8-.6 8.3-.2.6-.2 1.2-.3 1.7zm-6.3-54.7l-1.2-.3-.4-.7c-.1-.1-.2-.2-.4-.1-.3.1-.6.2-.8.3-.7.3-1.3.5-1.9.7-.2.1-.4.1-.6.1-1.1.3-1.6.4-3 .4-.6 0-.9.3-1.1.9 0 .2.1.4.3.5h.1c.2.1.3.1.5.1h.1c.6 0 1.2 0 1.8-.1.4-.1.6-.1.8-.1.3 0 .5-.1 1.1-.3.6-.2 1.2-.3 1.8-.2h1.6c.4 0 1-.1 1.3-.8v-.3c.1 0 0 0 0-.1zm-10 7.1h-.4l-.1.1c-.1.1-.2.1-.3.2-.1.1-.1.2-.2.3v.1c-.1.1 0 .3.1.4l.1.1.3.3c.6.4.8.5 1.2.8.2.1.4.3.7.5l1.5 1.2c.2.1.3.3.5.4.2.2.4.3.5.5.2.2.5.4.7.6.1.1.3.2.4.2.2 0 .3-.1.4-.2.1-.1.1-.3.1-.4 0 0 0-.1-.1-.2-.1-.2-.2-.5-.3-.7-.6-.6-1.1-1.3-1.8-1.8-.4-.3-.7-.5-.9-.7-.6-.5-1-.8-1.8-1.4l-.6-.3zm-1.2 77.5c0 .1 0 .2.1.3.2.2.5.4.7.4.2 0 .4-.1.6-.3.2-.2.3-.5.4-.7.4-1.1.7-2.3 1.1-3.6v-.7l-.2.1h-.1c-.1 0-.2.1-.3.1-.5.6-.9 1.4-1.2 2.1-.3.6-.5 1.2-.9 1.7-.1.1-.1.3-.2.5v.1zM57.3 84.1c.4-.4.9-.8 1.1-1.5v-.2c-.1-.1-.2-.1-.3-.1-.1.1-.2.1-.3.2-.3.1-.5.2-.6.4-.3.2-.6.5-.9.8-.4.3-.7.6-1.1.9-1.1.9-2.2 1.9-3.3 3.3l-.3.6c0 .1-.1.2-.1.3l-.1.1.1.1c.4.4 1.4.6 1.9.6.2 0 .3 0 .4-.1l.6-.5c.1-.2 1.1-.9 2-1.5 1-.7 2.1-1.4 2.5-1.8.5-.4.7-.9.9-1.4.2-.4.4-.8.8-1.2.1-.1.3-.3.3-.5s-.1-.3-.3-.5l-.3-.1-.1.1c-.1 0-.1.1-.2.1l-.6.3c-.2.2-.4.3-.7.5l-.2.2c-.2.1-.3.3-.5.4l-.2.2c-.1.1-.2.1-.3.2-.2.2-.4.3-.6.4-.1 0-.1.1-.2.1-.1.1-.1.1-.2.1.4-.1.6-.3.8-.5zM56 99.8c.2-.1.3-.2.3-.4 0-.1 0-.3-.2-.5H56c-.5 0-.9.3-1.3.5-.2.1-.4.3-.7.4.1-.3.3-.5.5-.7l.1-.1c.3-.3.7-.6 1-.9.2-.2.5-.4.7-.6.1-.1.2-.2.2-.4 0-.1-.1-.3-.2-.4l-.1-.1-.1.1c-.1.1-.2.1-.3.2-.2.1-.5.3-.7.4-1.1.8-2.1 1.5-3 2.2-.4.3-.8.7-1.2 1.1l-.3.3c-.3.3-.5.7-.3 1.1v.1h.1c.7.5 1.2.7 1.6.7.5 0 .9-.3 1.5-.8 1.4-1.3 2.2-2.1 2.5-2.2zm-7.2 1.2l.6-.6c.1-.1.2-.2.3-.4l.3-.3-.3-.1c-.1 0-.2-.1-.3-.1-.2-.1-.3-.1-.5 0-.4.1-.8.3-1.1.5-.8.6-1.6 1.2-2.3 1.8-.5.4-.9.7-1.4 1.1-.5.4-.7.9-.9 1.4 0 .1-.1.2-.1.2-.2.4-.3.7-.4 1-.2.5-.3 1-.8 1.5-.1.1-.1.3-.1.5v.1c0 .1.1.3.3.3h.1c.7-.1 1.1-.4 1.4-1 .3-.5.4-.6.9-.8.7-.3 1-.8 1.3-1.4l.1-.1c.6-1.3 1.6-2.5 2.9-3.6zm18.6 5.7c.2.1.4.3.7.3.2 0 .4-.1.6-.3v-.1c.2-.5-.2-.8-.4-1-.4-.3-.8-.5-1.4-.5-.3 0-.6 0-.9.1l-.7-.5c-.5-.4-1-.7-1.5-1.1-.7-.5-1.5-.8-2.4-.8-1 0-1.9.3-3 .7-.3.4-.8.5-1.3.6-.1 0-.3.1-.4.1-.5.1-1.1.3-1.7.6-.4.2-.6.5-.5 1v.1h.1c.2.1.4.2.7.2.3 0 .5-.1.8-.2.3-.1.6-.2 1-.2.3.1.6.3.9.5.5.3 1 .7 1.7.8h.1l.1-.1c.5-.7.1-1.2-.2-1.6-.1-.2-.3-.4-.3-.6h.1c.1-.1.2-.1.3-.2.9-.2 1.6-.2 2.3.2.9.4 1.7 1.1 2.7 2l1.5 1.2.3.2c.1.1.3.1.4.1.2 0 .4-.1.6-.3l.1-.1-.1-.3c-.1-.2-.1-.4-.2-.6 0-.1-.1-.2-.1-.2-.1-.2-.1-.3-.1-.4-.1.2.1.3.2.4zm-21.3.6c.1 0 .1 0 .1.1.2.1.3.1.4.1h.3c.7 0 1.5-.2 2.1-.6.5-.4 1-.5 1.4-.5.3 0 .6.1.9.2.3.1.6.2.9.2.2 0 .5-.1.8-.2.1 0 .2-.1.2-.2v-.4c-.1-.2-.2-.3-.3-.4-.7-.4-1.3-.6-2-.6-.8 0-1.6.3-2.4.6-.5.2-1 .5-1.6.8-.2.1-.5.2-.7.4-.1.1-.2.2-.2.3-.1.1 0 .2.1.2zm6.5-13.8l.2.3c.1.1.2.2.3.2h.3c.2 0 .3-.1.5-.2.5-.4 1.1-.8 1.7-1.4 1-.9 2.1-1.8 3.4-2.9 1.1-1 1.9-1.7 2.6-2.4.2-.2.7-.6.4-1.3-.1-.1-.2-.2-.4-.2-.5.1-.8.4-1.1.6-.1 0-.1.1-.2.1-.7.6-1.5 1.2-2.2 1.8-.9.8-1.9 1.5-2.8 2.3-.2.2-.4.3-.6.4-.1 0-.1.1-.2.1l-.3.3-1.5 1.9c-.2.1-.2.2-.1.4zm117 37.6c0-.1.1-.2.2-.3v-.1l.2.2c.3.2.5.4.7.6.9.6 1.7.7 2.5.3.1-.1.2-.3.4-.4.2-.3.5-.6.7-.8.6-.4.9-1.3 1.1-2.2.5.1.9 0 1.2-.3.3-.4.3-1.4.4-2.2 0-.3 0-.6.1-.9v-.3l-.3.1c-.1 0-.2.1-.3.1-.2.1-.3.1-.4.2-.2.1-.3.2-.4.4-.2.1-.3.3-.5.4-.6.4-1.1.4-1.7 0-.1 0-.1-.1-.2-.1-.2-.2-.5-.4-.8-.4h-.3v.2c0 .1-.1.3 0 .4.1.1.2.2.3.4.3.4.6.8 1 1.1.1.1.2.1.3.2l-.1.1c-.7.1-1.2 0-1.6-.4-.1-.1-.2-.2-.4-.2s-.3.1-.4.2v.1c0 .5.3.9.6 1.2l.2.2.1.1c.1.1.2.2.1.3-.6.2-1.1 0-1.6-.5-.6-.7-1-1.5-1.1-2.4-.1-1-.9-2.1-1.5-3.1-.2-.2-.3-.5-.4-.7l-.2-.3-.2.3c-.4.7-.3 2-.1 2.9 0 .3.1.5.1.6 0 .6.1 1.2.1 1.7.1 1.1.2 2.3.2 3.5v6.4c0 1.3 0 2.6.1 3.9 0 .6.2 1.3.3 1.9 0 .2.1.3.1.5.1.3.9 1 1.4 1h.2v-.1c.3-.5.3-1 .3-1.6v-3.6c0-1.9 0-3.6-.2-5.4-.1-.8-.1-1.7-.1-2.5-.2-.3-.1-.5-.1-.7zm-75.7 123l.2.2.1-.2c.1-.2.2-.3.3-.5.2-.3.4-.7.6-1l.3-.3c.3-.4.7-.8.7-1.5v-.4l-1.3 1.1c.1-.6.3-1.6.4-3.2.1-.6 0-1.2-.5-1.9l-.3-.4v.5c-.1 1.4-.6 4-1 5.2v.1l.4.8c0 .1-.1.3-.1.4 0 .3-.1.7.2 1.1zm-6.7-.3c0 .2.1.3.1.5v.4l.3-.3.2-.2c.3-.3.5-.5.6-.8l.1-.1s0-.1.1-.1l.2 1.9.6.1.1-.1c.1-.1.2-.2.2-.4.2-.2.3-.5.5-.8.9-1.7.5-3.5.1-4.9-.1-.2-.1-.5-.2-.7-.2-1-.5-2.2-2.1-2.4l-.1-.1c0-.1-.1-.1-.1-.2-.9-1.3-1.5-2.7-1.6-4.3 0-.2-.1-.3-.2-.5-.1-.1-.2-.2-.4-.2h-.1c-.2 0-.4.3-.4.5s0 .4.1.6c0 .6.1 1.3.3 1.9l.1.2c1 2.9 2 5.6 1.6 8.7-.1.6 0 1 0 1.3m6.6-39.3l-.1-.4-.2.4c-1.2 2.2-1 4.3-.6 6 .2 1.1.5 2.2.8 3.3l.1.3v.1c0 .2.1.6.6.6.1 0 .2 0 .4-.1l.1-.1v-.2l-.3-1.5c-.2-1.1-.4-2.3-.6-3.4-.2-.7-.1-1.4 0-2.1 0-.9.1-1.8-.2-2.9zM90.9 242c.9-1.3 1-3.1.2-4.6-.1-.2-.2-.4-.3-.7-.3-.8-.7-1.7-1.3-1.9-.3-.1-.4-.2-.5-.4-.1-.2-.3-.4-.7-.7-.4-.3-.7-.6-.9-1-.1-.1-.1-.3-.2-.4-.3-.7-.6-1.4-.7-2.1-.1-.6-.1-1.2 0-1.8v-1.3c0-.3-.2-.5-.3-.7-.1-.1-.1-.2-.2-.3v-.1l-.2.2c-.1.1-.2.1-.2.2-.2.2-.4.3-.5.6-.3.7-.4 1.4-.4 2.1-.2-.6-.4-1.3-.3-2.1 0-.3-.1-.7-.2-1-.1-.2-.1-.3-.1-.5l-.1-.3-.2.2c-.9.6-1.2 1.6-.9 2.5l.1.2c.5 1.3.9 2.7 1.7 3.8 1.4 1.9 2 3.7 1.9 5.7 0 .3.1.8.3 1.2.1.2.1.4.2.5v.1l.5.1.1-.1c.2-.2.3-.6.4-.9.1-.2.1-.3.2-.5.2.2.4.5.6.8.1.2.3.4.4.5l.2.2.1-.2c.1.2.2.5.2.7.2.5.4 1.1.5 1.9 0 .2.2.3.3.3.1 0 .2-.1.3-.2zm-10.3 6.7l-.1-.2c-.2-.2-.2-.5-.3-.8-.2-.5-.3-1-.9-1.3l-.2-.1v.2c-.2 1.3.1 2.9.7 3.9.1.1.2.2.4.2s.4-.2.4-.4v-.5c0-.3-.1-.8 0-.9v-.1zm-3-25c.3-.1.4-.6.5-.9.4-1.8.7-3.7 1-5.4V216.1l-.3.2c-.1.1-.2.1-.3.2-.2.1-.5.3-.6.5-.3.5-.4 1-.6 1.5-.1.1-.1.3-.2.4l-.3.9c0 .1-.1.2-.1.3h-.1c0-.1 0-.2-.1-.3-.1-.3-.1-.7-.1-1 0-1.6.6-3.1 1.8-4.9.2-.3.3-.6.4-.9 0-.1.1-.3.1-.4l.1-.2-.6-.3-.1.1c-.1.1-.3.2-.4.3-.3.2-.6.5-.9.8-1.2 1.3-1.8 3.1-1.9 5.2-.1 1.3.1 2.6.3 3.9.1.6.2 1.2.2 1.9v1.3c-.1.6-.2.9-.2 1.3-.1.3-.1.6-.2 1.1 0 .2 0 .3.1.5v.2l.1.2.2-.1c.1 0 .1 0 .2-.1.2-.1.4-.1.5-.3.2-.4.3-.7.5-1 .4-.7.7-1.2.5-2.3-.2-.8 0-1.2.5-1.4zm4.5 12.2l-.1-.2c-1-1.4-1.9-2.7-1.9-4.5 0-.5-.1-1.1-.2-1.6-.1-.2-.1-.5-.2-.7v-.1l-.6-.1-.1.1c-.1.1-.1.2-.2.4-.2.3-.4.6-.4.9.1 1.6.3 3.4.5 5.4 0 .4.2.8.3 1.2.1.3.2.7.3 1 .1.6.1.9-.1 1.1-.1.2-.5.3-1.1.3h-.1v.1c-.5 2.2 1.2 5.6 2.7 6l.3.1-.1-.3c-.1-.3-.1-.6-.2-.9-.2-.7-.3-1.3-.3-1.9 0-.6.2-1.2.4-1.8.1-.2.1-.4.2-.7h.1c0 .3.1.6.1.9.1 1.2.3 2.4 1.4 3.6l.2.2.1-.3c.3-.5.2-1.1.1-1.6-.1-.4-.1-.8 0-1.2.5-1.8.2-3.7-1.1-5.4zm-7-51.3c-.3.1-.7.1-1 .2-.2.1-.4.1-.7.2-.1.1-.3.1-.5.2l-.5.2.5.2c.2.1.4.1.5.2.3.1.5.2.7.2 1.3 0 2.5-.4 3.7-.8 1.5-.5 2.7-1.6 3.9-3 .1-.1.4-.4.1-.7l-.1-.1h-.1c-.4 0-.7.3-1 .5l-.2.2c-1.5 1.2-2.8 1.9-4.2 2.2-.3.1-.7.2-1.1.3zm18.5-6.6c0 .1 0 .2.1.4.7 1.3 1.5 2.2 2.6 2.8.8.4 1.6.7 2.4 1 1 .4 1.9.7 2.9 1.2h.5V183.1c0-.1.1-.3 0-.4l-.1-.1c-.2-.2-.4-.5-.7-.7-.5-.3-1-.4-1.5-.6-.5-.1-.9-.3-1.4-.5-.2-.1-.3-.2-.5-.3-.5-.3-1-.5-1.4-.8-.6-.3-1-.8-1.4-1.3-.1-.1-.2-.3-.4-.4l-.1-.1c-.1-.1-.3-.3-.5-.3-.1 0-.2 0-.4.1l-.1.1v.2zm15.9 10c.1.1.2.3.3.3 2 1.5 4.2 2.2 6.8 2.2.2 0 .2-.1.3-.3 0-.1.1-.1.1-.2l.2-.2-.2-.1c-.1-.1-.3-.1-.4-.2-.3-.1-.5-.2-.8-.3-.5-.2-1-.4-1.5-.5-.9-.3-1.7-.6-2.6-1-.5-.2-1-.4-1.6-.7-.4-.2-.7-.1-.9.4l-.1.1.1.1c.2.2.3.3.3.4zm-16.6-4.4c.4.6.8.8 1.6.9l.5.1-.3-.4c-.2-.2-.3-.4-.4-.6-.3-.4-.6-.8-1-1.2-.2-.2-.3-.4-.4-.7-.2-.4-.4-.9-.9-1.2l-.3-.2v.3c-.1 1.1.4 1.9.9 2.5.1.2.2.3.3.5zm11 2.6c.3.2.6.4.8.7-.3 0-.7-.1-1-.3-.2-.1-.4-.2-.7-.3-.4-.1-.7-.2-1.1-.3-.2-.1-.5-.2-.7-.2-.2-.1-.3-.1-.5-.2-.3-.2-.7-.4-1.2-.4h-.4l-.3.1.2.2c.1.1.1.2.2.3.1.2.2.3.3.4.5.4 1.1.7 1.7 1 .3.2.7.3 1 .5.7.4 1.3.6 1.9.6.3 0 .7 0 1.1-.1h.1l.5-.6h.4c.4 0 .8.1 1.2.1.2 0 .3-.1.4-.2.1 0 .1-.1.2-.1l.2-.1-.2-.2c-.1-.1-.1-.1-.1-.2l-.3-.3c-1.3-.7-2.4-1.3-3.6-1.9-.5-.2-.9-.2-1.2.1l-.1.1.1.1c.2.7.6.9 1.1 1.2zM85.1 184c.3.1.7.2 1.2.2 1.2 0 2.9-.6 3.5-3.2 0-.1 0-.2-.1-.3 0 0 0-.1-.1-.1l-.1-.2-.2.1c-.5.2-.9.5-1.3.8-.3.3-.6.5-1 .6-.6.3-1.2.5-1.8.8-.3.1-.6.2-.9.4l-.2.1.1.2c.5.3.6.5.9.6zm47.7 69.6c-1 0-1.9.4-2.6 1.2-.7.8-1.1 1.7-1.1 2.8 0 1.1.4 2 1.1 2.8.7.8 1.6 1.2 2.7 1.2 1 0 1.9-.4 2.7-1.2.7-.8 1.1-1.7 1.1-2.8 0-1.1-.4-2-1.1-2.8-.9-.8-1.8-1.2-2.8-1.2zm2.3 6.4c-.6.7-1.4 1-2.3 1-.9 0-1.7-.3-2.3-1-.6-.7-.9-1.5-.9-2.4 0-.9.3-1.8.9-2.4.6-.7 1.4-1 2.3-1 .9 0 1.7.3 2.3 1 .6.7.9 1.5.9 2.4 0 .9-.3 1.8-.9 2.4zm-69.6-81.5c.8-.7 1.7-1.1 2.5-1.4.1-.1.3-.1.4-.2.4-.2.8-.3 1.2-.5.1 0 .2-.1.3-.3 0-.1.1-.1.2-.2l.3-.3H70c-1.7 0-3 .7-4.2 1.3-1.3.7-1.9 1.3-2.4 2.4l-.2.5.5-.2c.7-.4 1.3-.7 1.8-1.1zm-5 6l.6-.5-.7-.2c-.2-.1-.3-.1-.5-.1-.3 0-.5.1-.7.2h-.1c-.3.1-.7.3-1 .4-.7.3-1.5.6-2.3.9-.6.2-1.2.4-1.8.4-.4 0-.7-.1-1-.2-.7-.7-1.3-1.1-2-1.1-.3 0-.6.1-.9.2l-.5.2.2.4c0 .1.1.2.2.3.3.3.7.5 1 .8l.3.2.1.1c.8.3 1.7.5 2.6.5.8 0 1.7-.1 2.7-.4 1.3-.5 2.6-1.2 3.8-2.1zm7.6-.8c-.4.3-.9.5-1.3.8-1.1.6-2.2 1.3-3.3 2-1.3.9-2.6 1.3-3.9 1.2-1 0-2 .1-3 .4l-.3.1.2.2c.1.1.1.2.2.2.1.1.1.2.3.2.7.1 1.3.2 1.9.2.6 0 1.2-.1 1.8-.2.6-.1 1.2-.3 1.7-.6s1.1-.6 1.7-.9c.9-.5 1.9-1 2.7-1.7 1.3-1 2.5-1.6 3.8-1.9.1 0 .2-.1.3-.3 0-.1.1-.1.2-.2l.3-.3H71c-1.3.2-2.1.4-2.9.8zm-23-57.3v.2h.8c.3 0 .4 0 .6-.2.2-.1.4-.3.6-.4.6-.4 1.2-.8 1.7-1.3 1.2-1 2.4-2 4-2.7h.1c.2-.1.6-.2.7-.7v-.2h-.4c-.2 0-.4-.1-.6 0-.8.1-1.6.5-2.4 1-.7.4-1.3.9-2 1.3-.7.5-1.5 1-2.2 1.5-.4.3-.6.5-.8.8-.1.2-.1.4 0 .7-.1-.2-.1-.1-.1 0zm78.6 57.4c.2.1.4.1.6.1.4 0 .7-.1 1-.2 0 0 .1-.1.1-.2v-.2s-.1-.1-.2-.1c-.6 0-1.1-.3-1.7-.6-.4-.2-.7-.4-1.2-.5h-.1c-.1 0-.2.1-.3.1-.1.1-.2.2-.2.3 0 .1 0 .2.1.3.5.4 1.1.8 1.9 1zm-3.6 1.8c1.1.3 2.3.5 3.5.5.6 0 1.3-.1 2-.2.2 0 .3-.2.3-.4s-.2-.3-.4-.3h-2c-.7 0-1.4-.1-2.2-.3l-.9-.3c-.3-.1-.5-.2-.9-.3-.2 0-.3 0-.4.2-.1.1 0 .3 0 .4.5.6.6.6 1 .7zm7.9-2.6h.2c.6.2 1.3.4 2.1.4h.4c.2 0 .3-.1.3-.3 0-.2-.1-.3-.2-.4-1.1-.5-2.1-.6-2.9-.4-.2.1-.3.2-.3.4.1.2.2.4.4.3zm9.7-60.4s.1 0 .1.1c.2.1.4.1.6.1.3 0 .6-.1.9-.4.1-.1.1-.1.1-.2s0-.2-.1-.2l-.2-.2c-.2-.2-.3-.3-.5-.4l-.2-.1c-.4-.1-.7-.2-1.1-.2-.2 0-.4 0-.6.1-.1 0-.3.2-.2.3.2.7.8.9 1.2 1.1zm-98.2 10c1.3 0 2.4-.4 3.7-1.4.1-.1.2-.2.2-.3v-.1c0-.1 0-.2-.1-.3-.3-.2-.7-.3-1.2-.1-1 .4-1.9.6-2.8.6-.3 0-.6 0-1-.1-.5 0-.8.1-1 .5-.1.1-.1.2 0 .3.3.6.8.7 1.2.8.4.1.7.1 1 .1zm159.9-51.8c.1-.4.1-.9.1-1.2 0-.5-.2-.8-.4-1 .2-.3.4-.7.6-1.2.7-2.1.3-4-1.2-5l-.3-.2c-.1-.1-.3-.1-.4 0l-.3.2c-.2.2-.4.4-.4.6v.1c0 .2-.1.4 0 .7.4 1.3.3 2.1-.4 2.8 0-.6-.1-1.2-.3-1.7-.1-.2-.1-.5-.2-.7-.2-1.2-.9-2.2-1.9-3.2-1-.9-2.2-1.1-3.5-.7-.2.1-.7.6-.8.6l-.1.1v.4c0 .1.1.2.1.2.1.1.2.4.5.5 0 0 .1 0 .1.1.2.1.4.2.7.2.5.1 1 .3 1.4.6.7.5 1 1.5.6 2.1-.6 1.1-1.4 1.6-2.5 1.7-1-.8-2.7-1-3.5-1.9-.8-.9-1.5-1.2-2.2-2.9-.7-1.7-3.3-5.2-4.1-9.3-.2-.4.1-.6-.1-1.6-.2-1.1-2.8-6.3-3.4-7.4-.9-1.6-1.2-3.7-3.1-5.4-1.5-1.3-3-2.1-4.6-2.5-.4-.1-.8-.2-1.1-.3h-.1c-.6-.2-1.2-.3-1.9-.4-.6-.1-1.1-.1-1.6-.2-.4 0-2.3 1.3-2.6 1.5-.4.2-1.2.4-1.2.4-5.6 2.1-8.1 4.8-9.3 6v.2c-.4.4-.3.7-.2.9.1.3.5.7 2.2.7h.1c.1 0 .3 0 .6-.1.1 0 .3 0 .3-.1.9-.1 1.6.4 2 .6.1.1.2.1.2.1.4.4.8.6 1.2.7.1 0 .1.1.2.1.2.1.5.2.7.2.3 0 .9-.1 1-.4l.1-.2c-.1-1.2-.7-1.6-1.2-2-.3-.3-.7-.6-1.2-.8-.1-.2-.2-.2-.2-.2.7.4 1.4.7 2.3.9h.8l.4-.1c.1 0 .1-.1.1-.2l-.1-.4c-.3-.8-.7-1.4-1.4-1.8l.6-.3h.1c.1.1.3.2.4.3.3.2.6.3.7.5.3.3.5.4.9.4.2 0 .4 0 .6-.1l.1-.1c.1 0 .1-.1.1-.2v-.2c0-.6-.2-1.1-.5-1.5v-.1l-.1-.1c1.3-.5 2.5-1 3.1-1.2.3.1.6.3 1 .3 2.1.4 3.6 1.6 4.5 2.6 1.2 1.3 2.2 2.5 3.3 4.4l.2.3c.4.6.8 1.3 1.1 2 .4.8.9 1.6 1.4 2.4l.2.3-.6-.2-.1 1c-.1.8.2 1.3.4 1.7 0 .1.1.1.1.2.3.5.6 1.1.8 1.5.4.8.8 1.5 1.2 2.3 1.1 2.4 2.5 4.7 4.3 6.9.1.2.2.3.4.5.9 1.1 1.8 2.3 3 3.2.4.3.7.6 1.1.9.3.3.7.6 1.1.9 1.1.8 2.3 1.4 3.6 1.6h.5c.3 0 .9 0 1.3-.2-.2.5-.1.9.1 1.2l.1.2.1.1c.5.3 1.1.4 1.5.4.2 0 .4 0 .5.1-.2.6-.3 1.1-.5 1.5-.4 1.1-1 1.8-1.8 2.3-.5.3-1 .7-1.5 1.1h-.1c-.2.2-.3.4-.4.6 0 .1-.1.1-.1.2l-.3.6c-.1.1 0 .2.1.3l.6.3c.3.1.6.2.9.2.3 0 .5 0 .7-.1.2 0 .4-.1.5 0v.1c-.2.4-.4.7-.6 1.1l-.3.6c-.7 1.2-1.6 2.2-2.9 2.9-.6.3-1.1.7-1.6 1.1-.2.1-.3.3-.5.4-.3.2-.4.5-.4.7v.4c0 .2 0 .3.1.4l.6.5h.3c.5 0 1-.1 1.4-.1.3 0 .5-.1.7-.1l.5.8c0 .1.1.1.2.1s0 .7 0 .7c-.2.6-.4 1.4-.6 2.1-.1.3-.3.6-.5.9-.4.5-.8 1-.9 1.9l-.1.5c0 .1.1.2.2.3l.5.1c-.2.2-.4.4-.7.6-.2.2-.3.5-.3.7v.1l-.1.3v.2l.5.7c-.3.4-.6 1-.9 1.7-.3.6-.6 1.2-1 1.8l-.2.2c-1.2 1-3.1 2.2-5.9 2.2-3.5 0-7.4-1.8-11.4-5.4h-.2l-1.7.6-.5.1h-.2c-.2 0-.8-.1-1.1-.6-.1-.3-.1-1.2-.1-2 0-.9 0-1.8-.2-2.1-.3-.7-.7-1.4-1-2l-.3-.3h-.2l-.8.2c-.4-.3-.6-.8-.8-1.3-.3-.7-.6-1.3-1.4-1.7h-.2l-.1.2c-.1.4-.1.7 0 1.1l.1.3c.3.7.6 1.4.9 2l.1.2c.2.5.5 1 .5 1.5-.2-.2-.3-.4-.5-.6-.3-.4-.6-.8-1.2-1h-.1l-.1.1c0 .1 0 .1-.1.2s-.1.3-.1.5l.3.9c.7 1.2 1.2 2.6 1.7 3.9.2.7.5 1.3.8 2v.4c-.2 0-.3-.1-.5-.1-.2-.1-.4-.2-.6-.2-.1 0-.3 0-.4.1l-.1.1v.1c.1.8.6 1.4 1.1 2 .3.4.7.8.9 1.3h-.1c-.2 0-.4.1-.5.1-.5 0-1-.1-1.5-.1s-1.1-.1-1.6-.1c-.8 0-1.6 0-2.3-.1-.7 0-1.4 0-2.2-.1-1.8-.1-3.9-.2-5.8-.9-.6-.2-1.3-.4-1.9-.6-.4-.1-.8-.2-1.2-.4-2.6-.8-4.7-1.4-6.8-1.7-.6-.1-1.3-.2-1.9-.3-.6-.1-1.3-.2-2-.3-1.9-.3-4.1-.7-6.4-.6-1.2 0-2.3 0-3.5-.1h-.5c-.4 0-.9 0-1.3-.1-.6 0-1.3-.1-2-.1-1.2 0-2.6 0-4 .2l-3 .3c-.5 0-.9.1-1.4.1-.2 0-.4 0-.6.1-.7.2-1.4.3-2.1.4-1.7.3-3.4.7-5.1 1.2-.7.2-1.4.5-2.2.7-1.6.5-3.2 1-4.8 1.7 0 0-.1 0-.1.1-.1 0-.2.1-.2.1h-.1c.2-1.4.4-3.1.2-4.8v-.1l-.9-.1-.5-.7-.7-.3c-.2-.2-.2-.5-.3-.8-.1-.5-.3-1-.9-1.3l-.2-.1-.1.2s0 .1-.1.1c-.1.1-.1.2-.1.4v4.9c0 .1-.1.2-.1.3-.2 0-.4-.1-.6-.2-.2-.1-.4-.2-.7-.2-.2 0-.3 0-.5.1l-.1.1v.1c.1.4.4.7.7.9.2.1.3.3.4.4.3.5.7 1 1 1.5.2.3.4.6.7.9.1.1.1.2.2.2l-1.6 1.7c-.1 0-.3.1-.4.1-.2.1-.3.1-.5.1s-.5.1-.8.2c-.3.1-.6.2-.8.2-.9.2-1.5.2-2.2.3-.5.1-1 .1-1.6.2-.6.1-1.2.1-2 .1H86c-.6 0-1.3 0-2.2-.1h-.9c-.5 0-1-.1-1.4 0-.7 0-1.2-.2-1.8-.7-1.5-1.4-3.3-2.2-5.1-2.9-1.6-.6-3.3-1-4.9-1.4-.5-.1-1.1-.2-1.6-.4-1.2-.3-2.4-.5-3.6-.7-.5-.1-.9-.1-1.4-.2-.7-.1-1.3-.2-2-.3h-.2c-.6-.1-1.3-.1-2.1-.1h-3.2c-2.3-.1-4.6.2-6.8.4h-.1c-.9.1-1.6.2-2.4.3-.9.2-1.9.4-2.8.5-1.5.3-3.1.6-4.7 1-.8.2-1.7.4-2.6.5-.2.2-.5.3-.6.5-.1.1-.2.2-.2.4 0 .4-.3 1.3-.5 1.4-.5.2-1 .4-1.5.5-.2.1-.4.1-.6.2-.3.1-.7.2-1 .3-.4.1-.8.2-1.1.2-1.3.3-2.7.6-4.1.8-1.9.3-3.8.6-5.6.8-.7.1-1.3.2-2 .3-.8.1-1.7.1-2.4-.1.1-.1.1-.2.2-.3.2-.3.4-.6.6-.6.1 0 .2-.1.2-.2.1-.1.3-.3.4-.3 1.8 0 3.6-.3 5.4-.7l1.5-.3c1.6-.3 3.1-.7 4.6-1.1.8-.2 1.6-.4 2.5-.6.5-.2.9-.4 1.3-.5h.1v-.1l.1-.1c.5-.3.9-.8 1.3-1.3.1-.1.2-.2.2-.3 0 0 .1-.1.1-.2.1-.2.3-.4.4-.6.1-.1.2-.2.2-.3h.8c.1 0 .3-.1.4-.2l.2-.2.4-.4c.3-.5.5-.8.8-1.2.2-.3.5-.7.8-1.2.2-.3.3-.5.4-.6.2-.2.3-.4.5-.7.1-.2.1-.3.2-.5v-.1c0-.1 0-.2-.1-.3-.1-.1-.2-.1-.3-.1-.5.1-.8.4-1.1.7-.2.1-.3.3-.5.4.1-.3.3-.5.4-.8.5-1 1-2 1.6-2.8l.3-.3c.6-.7 1.2-1.5 1.8-2.2.6-.7 1.3-1.4 1.9-2.1.5-.5.9-1 1.4-1.5l.1-.1c.2-.2.5-.5.3-1v-.1h-.1c-.1 0-.1 0-.2-.1-.3-.1-.5-.2-.8-.2-.2 0-.4.1-.6.2-.4.4-.9.8-1.4 1.2l-.6.6c-.2.2-.5.4-.7.7-.2.2-.8.3-1.1.3h-.1c.1-1.1.5-1.5 1.3-2.1.3-.2.5-.5.9-.8.1-.1.3-.4.5-.6l.3-.3c.2-.2.7-.6 1.2-1s1-.8 1.1-1c0-.1.1-.1.1-.2.2-.2.4-.5.3-1 .2-1 .2-1.2.3-1.3V90.4c0-.4.1-.9-.1-1.3-.1-.2-.4-.4-.7-.4-.4 0-.9.2-1.3.5-.1.1-.4.3-.7.4.1-.1.2-.2.2-.3l.2-.2c.6-.7 1.2-1.3 1.8-2v-.4c0-.3 0-.6-.2-.9-.1-.2-.3-.3-.5-.2l-.2.1c-.8.2-2.6.6-3.2 1.3v.1l-.1.1c.2-.5.6-.9.9-1.3.1-.2.3-.4.4-.5.4-.5.1-1.7-.3-2.6-.1-.2-.2-.3-.3-.3-.2 0-.3 0-.4.1-.1.1-.2.1-.4.2-.1 0-.2.1-.4.1s-.6.3-1.7.9c-.5.3-1 .6-1.3.7 0 0 0-.1.1-.1l.1-.1c.4-.5.8-1 1.3-1.6l1.2-1.5v-.1c.4-4.4 1.7-7.5 2.1-8 1.1-2.2 2.7-4.1 4.3-6 .3-.3.5-.6.8-.9l1.2-1.5.1-.1c0-.1.1-.1.1-.2.4-.5 1-1.5 1.7-2.6 1.1-1.8 2.7-4.3 3.1-4.5.4-.4.8-.5 1.2-.6.2-.1.5-.1.8-.3l.1.1c-.1.4-.1.4-.3.6l-.1.1-.7.7-.3.3-.1.1.5.8 1.2-.6c0 .1.1.2.1.3.1.1.1.2.2.3l.1.1.1.1.1-.1c.8-.4 1.4-.9 2-1.4.2-.1.3-.3.5-.4.9.4 1.9.7 3.5.7.4 0 .9 0 1.4-.1 1.1-.1 2.4-.2 3.7-.2h2c.1 0 .2-.1.4-.2h.1c.1-.1.2-.1.2-.3 0-.1 0-.2-.1-.3-.1 0-.1-.1-.2-.1-.2-.1-.4-.3-.6-.3-.9-.2-1.8-.3-2.7-.4l-.8-.1c-1-.1-2-.2-2.9-.3-2.8-.3-5.7-1.3-8-2.7-.1 0-.3-.1-.3-.2-1.9-1.5-3.4-3.3-4.6-5.5v-.1l.3.3c1 .9 1.8 1.7 2.8 2.3.8.5 1.6 1.1 2.4 1.6.4.3.8.6 1.1.8 2 1.4 4 2.3 6 2.6h1l-.1-.2c0-.1-.1-.2-.1-.2-.1-.2-.1-.3-.2-.4-.2-.2-.4-.3-.8-.5-3-1.4-5.7-3-8.1-4.7-1.9-1.4-3.6-3.1-5-5.3-.2-.3-.4-.7-.5-1.1-.5-1.4-.9-3.1-.5-4.9.1-.3.1-.6.1-.9.1-1.7.4-3.5.8-5.1.1-.3.1-.6.1-.9v-1.2l.3.9c.1.3.2.5.3.8l.3.3c.1 0 .1.1.2.1l.2.2.1-.3c.3-1 .2-2 0-3-.1-.8-.2-1.6 0-2.4.8-.7 1.2-1.5 1-2.4-.6-1.6-1.7-2.5-2.8-3.3-.1-.1-.3-.2-.6-.2-.2 0-.3.1-.5.2l.5-.3v.1c.1.4.4.7.7 1 .3.3.6.7.7 1.1 0 0-.1 0-.1-.1-.3-.2-.4-.3-.6-.4-1.2-1.1-2.7-1.6-4.8-1.7-2.4 0-4.5.8-6.2 2.6-.6.6-1.3 1.2-1.9 1.7l-.3.3-.1.1-.2.2.1.1c.3.3.5.4.7.4.1 0 .3-.1.4-.2.1 0 .1-.1.2-.1.7-.4 1.2-.8 1.6-1.2.6-.5 1.1-.8 1.7-1 .9-.3 1.9-.4 2.9-.4 2.5.7 4.2 3.1 4.3 3.7l.1.1c0 .1 0 .1.1.2.1.2.1.3 0 .4-.1 0-.1-.1-.2-.1-1.6-1.3-3.5-1.9-5.7-1.6-.4 0-.9.2-1.3.3-.9.4-1.6 1.1-2.2 1.8l-.3.3c-.1.1-.1.1-.1.2-.2.4-.2.8 0 1.2.9 1.7-.1 3.2-.7 4.1-.1.2-.2.4-.3.5-.1.2-.1.4 0 .6.1.1.2.3.4.4.4 0 .7-.3.9-.6 0-.1.1-.1.2-.2l1.1-1.1c.3-.3.7-.7 1.1-1 .5-.5 1.1-.7 1.7-.9l.2-.1c.8 0 1.2.4 1.3.9 0 .5-.3 1.1-.8 1.2-.3.1-.5.2-.7.4-.1 0-.1.1-.2.1-2.2 1.4-3.9 3.2-4.9 5.5-.7 1.1-1.1 2.1-1.5 3.1-.2.4-.3.8-.4 1.2 0 .2-.1.3-.1.4v.1l.4.9c-.2.5-.2 1-.2 1.4 0 .4 0 .8-.1 1.1v.1l.5.8h.1c1-.2 1.4-.4 1.8-.6.2-.1.3-.2.5-.2l-.6 1 .1.1c.2.2.4.3.7.3h.2c0 .2 0 .3-.1.5-.3.1-.5.1-.8.2-.6.2-1.2.5-1.6 1.4v.3h.6c.3 0 .6-.1.9-.2-.4.3-.7.5-.9.7l-.3.3c-.3.1-.6.2-.9.4-1.3.6-2.2 1.5-3 3-.2.3-.3.8.1 1.2l.1.1h.3c.2 0 .3-.1.5-.1.1 0 .2-.1.3-.1.1 0 .1-.1.2-.1-.1.1-.2.2-.2.3l-.2.2c-.2.3-.4.5-.5.8-.1.3-.1.5-.1.6.1.2.3.3.5.4-.1.1-.1.2-.2.2-.1.1-.2.2-.2.3-.3.4-.5.7-.7 1.1-.7.7-1.4 1.5-2.1 2.5-.1.1-.2.2-.1.4 0 .1.1.2.3.3l.1.1.1-.1.4-.4c.3-.3.7-.6 1-.9 0 .1-.1.2-.1.2 0 .1-.1.1-.1.2l-.2.5c-.6.7-1.3 1.4-2.1 2.5-.1.1-.1.2-.1.4v.5l.3-.1c.5-.2 1-.5 1.4-.8 0 .1-.1.2-.1.4-.2.1-.3.3-.5.4-.6.6-1.2 1.3-1.7 2l-.2.3c-.1.2-.2.4-.2.6 0 .2.1.4.5.6l.1.1.1-.1c.1-.1.3-.2.4-.2 0 .1-.1.1-.1.2-.2.2-.3.5-.5.8-.4.5-.8 1-1.2 1.4-.1.1-.2.3-.3.4-.1.1-.4.5-.2.9 0 .1 0 .2.1.2v.1l.3.6-.1.1c-.5.3-1 .7-1.5 1.1-.1 0-.1.1-.2.1-.5.3-1 .7-1.1 1.5v.2h.9l.9-.3c.2-.1.4-.2.6-.2h.1l.1.7.5.4-.1.1c-.2.2-.5.3-.7.5-.2.2-.5.3-.7.5-.6.4-1.3.9-1.9 1.3-.7.5-1.3 1.2-1.7 2-.1.3-.2.6.1 1l.1.1h.2c.1 0 .3-.1.4-.2 1-.9 2.2-1.5 3.3-2l.1.1c-.6.4-1 1-1.3 1.6-.1.1 0 .3 0 .5 0 .1 0 .2.1.3v.3l.2-.1c.2-.1.3-.2.5-.3v.2c-.1.1-.1.2-.1.4-.4.3-.7.6-1 .9-.1.1-.2.2-.2.4 0 .1-.1.2-.1.2l-.1.3h.3c.6 0 1-.2 1.3-.4.1.3.1.5 0 .8v.1c-.1.1-.1.3-.2.4-.1.1-.1.2-.1.3-.4.5-1 1.1-1.5 1.7-.3.3-.5.6-.6 1-1.3.6-2.7 1.2-3.1 2.9-.1.3 0 .5.2.8.2.3.5.4.8.4.2 0 .5-.1.6-.3.4-.5.6-.8.9-1.1.3-.2.7-.3 1-.3.2 0 .6 0 .7.3v.1c-.2.5-.2 1-.2 1.4v.1l.1.1c.3.2.4.5.4 1 0 1.1-.6 2-1.6 2.2h-.5l-.1-.1-.4.1c-.1.1-.3.2-.6.3l-.6.3c-1.3 1.2-2 1.8-3 2.9l-.1.1c-.1.1-.3.3-.4.5-1.3 1-2.5 1.9-3.7 3-.1.1-.1.2-.2.3 0 .1-.1.1-.1.2-.1.3-.4.4-.8.6l-.1.1c0 .1-.1.1-.2.2-.3.5-.7 1-1.4 1.3-.2.1-.3.2-.5.3l-.2.1v.1c-.1.2-.2.3-.3.4-.1.1-.2.2-.3.2l-.1.1v.2l-.1.2.2.1c.2.1.5.1.8 0 1.1-.2 2.7-.9 3.6-1.5 2.1-1.3 3.9-3.1 5.3-5.4.5-.4.9-.7 1.3-1.1l.1-.1c.8-.7 1.1-1 1.4-1.1v.2c-.1.1-.2.2-.3.4l-.4.4-.2.3c-.3.3-.5.7-.8 1.1-.1.1-.1.3-.1.5v.4h.2c.5 0 .8-.2 1-.4.1-.1.2-.2.3-.2h.2l-.1.1c-.2.2-.4.4-.5.6-.7.8-1.1 1.5-1.3 2.3v1l.3-.2c.1-.1.2-.1.3-.2.2-.1.4-.2.5-.3.3-.3.6-.6.8-.9.2-.2.3-.4.5-.6l.1-.1c0 .1 0 .1-.1.2l-.3.6c-.6.7-.9 1.6-1.2 2.6l-.2.8c-.1.5-.2.9-.4 1.3-.3.8-.6 1.7-1 2.5-.2.4-.5.8-.8 1.3l-.1.2c-1.1 1.3-5.5 4-7.2 4.4 1-.4 1.6-1.2 2.2-1.9.1-.1.2-.3.4-.4.3-.3.3-.6.1-.9h-.1c-.5-.1-.8.2-1.1.3-.1 0-.2.1-.2.1-1.4.8-2.7 1.3-4.1 1.6-.5.1-1 .3-1.5.5-.6.2-1 .3-1.7.3-.4 0-.8 0-1.3-.1-.4-.3-.4-.2-.6-.6l-.3-.6c-.3-.5.2.3.1-.2-.3-1.5-1.4-2.4-2.1-3.1-.1-.1-.2-.1-.5-.2-.1 0-.3-.1-.5-.1l-.4-.1.2.4.3.6c.1.3.2.5.3.7l.3.6c.3.6.5 1.2.7 1.8.5 1.7.4 1.4 1.6 2.5.3.3.5.5.8.7.1.1.1.1.2.1 0 .1 0 .3.1.4v.3c.3.4.7.5 1.2.5.2 0 .4-.1.7-.1l.4-.4c.3-.2.5-.5.8-.7.2-.2.5-.2.9.1.1 0 .3.2.4.4l.1.1c-.5.2-1 .5-1.5 1-1.3 1.2-2.1 2.8-2.5 4.5-.6 3.1-.7 5.9-.3 8.7l.1.4c.2 1 .3 2.1.4 3.2.1 3.1.8 6.1 1.3 8.3.1.3.2.9.3 1.2.6 3.4 2 6.5 3.2 8.8 1.3 2.6 2.5 5.2 3.4 7.5.1.3.2.7.2 1v.2c.1.8.2 1.7.3 2.6.1 1.4.5 2.7 1.3 4 1.1 1.9 1.1 1.9 1.3 4.1v1.9c0 1.6.3 3.2 1 4.9.3.8.8 1.5 1.3 2.2.7.9 1.6 1.4 2.7 1.4.6 0 1.1.1 1.7.4 0 .2.1.3.1.5.1.5.3.9.3 1.4.4 2.4 1 5 2 7.5.7 1.8 1.2 3.2 1.7 4.8.5 1.5 1.1 2.9 2 4.4 1 1.8 1.7 3.3 2.1 4.9.7 2.4 1.8 4.7 3.4 7.7 1.2 2.1 2.5 4.1 3.9 6.2.6.9 1.3 1.7 2.2 2.5.5.5 1 1 1.5 1.4.3.3.7.6 1 .9 1.1 1 2.2 2.1 3.6 2.9 1.6 1 2.8 2.3 3.6 3.9.9 1.9 1.7 3.9 2.4 6.2 1 3.2 2.5 6.4 4.6 9.6 2 2.9 4 5.4 6.1 7.5.3.3.6.7 1 1.1.2.3.4.5.4.9-.1.2-.2.2-.5.2-.1 0-.3 0-.5-.1-.6-.1-1.3-.2-1.9-.4-2.2-.4-4.5-.8-6.7-1.3-1.2-.3-2.4-.7-3.6-1.1-.4-.2-.9-.3-1.3-.5-.4-.1-.7-.3-1-.4-.3-.1-.7-.3-1.1-.4-.5-.2-.9-.1-1.2.2-.2.5-.4 1-.6 1.4-.4 1-.9 1.9-1.3 2.8-.7 1.5-1 3.1-.9 5.1.1 1.9-.2 3.8-.5 5.3-.2 1.1-.6 2.2-1.1 3.3 0 .1-.1.2-.1.2-.1.2-.2.5-.3.8v1.1h.1c.6.3 1.3.4 2 .5h2.4c2 0 3.8.7 5.4 1.4 2.2 1 4.3 1.7 6.6 2 .5.1.9.1 1.4.1 1-.1 1.9-.1 2.9-.2.6-.1 1.3-.1 1.9-.2h.1c.3 0 .5.1.7.3v.7l-.1.4-.6 3.3c-.1.4-.3.8-.5 1.1-.6.7-1.2 1.5-1.9 2.2-.3.4-.6.7-.9 1.1-.3.3-.5.6-.8.9-.7.8-1.5 1.7-2.2 2.6l-.1.1c-.7 1-1.5 2-2.4 2.8l-1.3 1.3c-1.2 1.3-2 2.8-2.4 4.5-.1.5-.2.9-.4 1.4l-.3 1.2c-.4 1.4-.7 2.8-1.1 4.2l-.1.1c-.1.3-.1.6-.2.9-.1.6-.2 1.2-.5 1.7-.5 1.2-.8 2.5-1 3.7-.1.5-.2 1-.4 1.5-.3 1.1-.5 2.1-.6 3.2-.2.9-.3 1.8-.5 2.7v.2l.1.1c3 1.3 6.2 2.7 9.1 4.8.2.1.4.3.5.5v.1h.1c.1 0 .2 0 .4.1h.2l.1-.1c1.6-3.3 2.9-6.1 4.1-8.7.6-1.3 1.2-2.7 1.8-4.1l.1-.3c.9-2.2 1.6-4 2.3-5.7.2-.6.4-1.2.6-1.7.2-.5.4-1.1.6-1.6.7-1.9 1.5-3.8 2.2-5.6.6-1.6 1.2-3.2 1.9-4.8.5-1.3 1.1-2.2 1.9-2.9.7-.6 1.3-1.4 1.8-2.4.8-1.6 1.5-3.2 2.1-4.8.2-.6.5-1.3.8-1.9l.1-.3.2-.2c.2.4.2.7.1 1.1v.3c0 1.7-.4 3.3-.9 4.8-.1.3-.2.5-.2.8-.2.6-.3 1.1-.5 1.7-.5 1.7-1 3.5-1.4 5.3-.7 3.1-1.1 6.2-1.3 8.9-.1.6-.1 1.2-.2 1.8-.1.9-.2 1.9-.3 2.9-.1.7-.1 1.4-.1 2.1v7.1c.1 1.2.3 2.4.5 3.6 0 .3.1.6.1 1 .4 2.7.4 4.7-.1 6.6v.1l.1.1.1.1.1.1h.4c.3-.1.7-.1 1.1-.1h1.3c1.7-.1 3.5-.4 5.1-.7.7-.1 1.4-.3 2.1-.4 1.6-.3 3.4-.7 5-.8h.2v-7.5c0-1.5 0-3.1-.3-4.6-.5-2.8-.4-5.4.2-7.9.5-2.2.9-4.6 1.3-6.6.2-1 .3-2 .3-2.9.1-2.7-.1-5.2-.5-7.7-.2-.9-.3-1.9-.4-2.8-.2-1.5-.3-3.1-.7-4.6v-.3c.2-.2.4-.3.5-.3.1 0 .2 0 .4.1 1.2.5 2.4 1.1 3.6 1.7.5.3 1.1.5 1.6.8.9.5 1.9 1 2.8 1.4 1.8.8 3.5 1.3 5.3 1.7 2 .5 4.2.9 6.3 1 .7 0 1.5.1 2.4.1h4c.4 0 .8-.1 1.2-.2.2 0 .3-.1.5-.1.8-.2 1.5-.7 2-1.5 1.5-2.7 2.8-5.1 3.8-7.5.3-.7.5-1.5.7-2.3l.3-1.2c.5-1.7.8-3.5.9-5.8.1-2.5.4-4.5.9-6.3v-.8l-.1-.1c-.2-.2-.4-.3-.7-.3-.2 0-.4 0-.6.1h-.1c-3.3.8-6.6 1.2-9.8 1.3h-1.1c-1.5 0-3.1 0-4.6-.1h-1.7c-.7 0-1.3-.1-1.8-.4v-.1c0-.1.1-.3.1-.4.4-.5.8-1 1.5-1.7l.4-.4c.2-.2.4-.3.5-.5 1-1.2 2.2-2.2 3.4-3.1.2-.2.5-.3.7-.5 2.4-1.9 4.9-3.8 7.7-5.6 1.3-.8 2.5-1.6 3.7-2.4.9-.6 1.9-1.2 2.8-1.8.7-.5 1.5-.9 2.2-1.4l1.5-.9c.4-.2.8-.5 1.1-.7.8-.5 1.6-1.1 2.5-1.6 1-.5 1.9-1.2 2.8-1.9.5-.3.9-.7 1.4-1 .8-.5 1.6-1.1 2.4-1.6.8-.6 1.7-1.2 2.5-1.8.5-.3 1-.7 1.5-1 1.4-.9 2.9-1.9 4.2-3 .3-.3.7-.5 1.1-.8 1.9-1 3.4-2.5 4.7-3.9 3.2-3.4 5.8-6.8 7.8-10.4l.1-.1c1.1-1.8 2.2-3.7 2.9-5.8.1-.3.3-.6.4-.9l.3-.6c.4-.9.9-2 1.4-3.1.1-.3.3-.7.4-1.2l1.2-3.3c.9-2.3 1.7-4.6 2.2-7.1 0-.3.1-.5.2-.8l.3-.9c.6-3.3 1.2-8.8 1.4-12.3 0-.4 0-.8.4-1 .3-.1.6 0 .9.1.1 0 .1 0 .2.1.9.2 1.9.1 2.7-.3.9-.4 1.6-.9 2.3-1.6.8-.8 1.3-1.7 1.3-2.5 0-.3.1-.5.2-.8.1-.3.1-.5.2-.8.1-.6.1-.8.2-.9.1-.2.1-.3.2-1 0-.6.2-1.3.6-1.8 1.1-1.2 1.6-2.6 2.1-4 .4-1.1.6-2.3.8-3.5 0-.3.1-.5.2-.8.3-1.7.7-3.4 1.1-5.1.1-.6.3-1.2.4-1.8.1-.4.2-.7.3-1.1.1-.4.3-.8.4-1.1.2-.5.4-1 .5-1.5.2-.7.4-1.4.6-2 .4-1.2.7-2.3 1.1-3.5 1-2.7 1.9-5.5 2.7-8.1.7-2.3 1.2-4.6 1.4-6.9.2-2.8.2-5.7 0-8.5-.2-2.1-.4-2.9-1.6-4.6-.9-1.3-1.8-1.7-3.2-2.1h-.1c-.1 0-1.4.2-1.5.5v.1l.2.2c.5.3.8.6 1.1 1 1.3 1.5 1.7 2 2 4 .1.8.3 1.7.4 2.8.3 2.8.1 5.8-.5 8.9-.6 3.1-1.3 5.7-2.3 8-.8 1.8-1.3 3.3-1.8 4.8-.7 2-1.2 4.2-1.6 6.2-.2.8-.3 1.6-.5 2.3-.3 1.3-.6 2.7-.8 4.1-.3 1.5-.5 3-.9 4.4-.3 1.1-.6 2.1-1 3.1-.1.2-.2.4-.2.7-.1.4-.3.6-.5.8-1.2.8-1.3 2.2-1.3 3 0 1-.3 2.1-.7 3.3-.2.6-.7 1.2-1.5 1.7-.4.2-.8.3-1.3.2-1.1-.3-1.8-.9-2.3-2.2-.5-1.1-.7-2.1-.7-3.1v-.2c0-.4 0-.5-.1-.6-.1-.9-.2-1.6-.3-2.4-.1-.8-.2-1.7-.3-2.7-.1-.8-.2-1.7-.4-2.5v-.2c-.1-.7-.2-1.5-.3-2.2-.1-1-.3-2.1-.5-3.1-.2-.7-.3-1.5-.5-2.2-.1-.7-.3-1.3-.4-2-.3-1.1-.6-2.3-.9-3.4-.1-.3-.2-.6-.3-1 0-.1-.1-.5-.6-.5h-.3v.1c-.2.5-.1 1 0 1.5.1.9.3 1.7.4 2.6.1 1 .3 2.1.5 3.2.4 2.1.5 4.1.6 6.3 0 .4 0 .7.1 1.1v.4c0 1 .1 1.9.3 2.9.5 2.6.5 3.5.7 5.9v.7c.3 3.7.1 9.6-.4 13.7-.2 1.6-.6 3.1-1 4.6-.4 1.3-.7 2.7-.9 4.1 0 .3-.1.6-.2.9l-.2.5c-.2.7-.5 1.4-.8 2.1-.1.3-.3.6-.4.9 0 .1-.1.1-.1.2-.1 0-.2.1-.4.2.4-1.4.9-3.8 1.1-4.9 0-.1.1-.3-.1-.5-.1-.1-.2-.2-.4-.2h-.1l-.1.1s0 .1-.1.1c-.1.1-.1.2-.2.3-.2.7-.4 1.3-.6 2-.6 1.9-1.1 3.8-1.9 5.6-.8 2.1-1.6 4.4-2.8 6.4l-3.3 6.2c-.2.5-.4 1-.7 1.4-1.5 2.5-3.4 4.8-5.6 7.1-.6.7-2.7 2.2-1.9 1.8-2.5 2.1-2.5 2.1-10.5 7 0 0 .1-.1.1-.2.1-.1.2-.2.2-.4 0-.1-.1-.3-.3-.4l-.1-.1h-.1c-.6.2-1.2.6-1.7 1-.2.1-.3.2-.5.3l-.9.6c-.8.6-1.5 1.1-2.5 1.4h-.3c.2-.5.5-1 .7-1.5l.1-.2v-.3c0-.1-.1-.1-.2-.1h-.6l-.9.6-.2.2c-1 .7-2.2 1.3-3.4 1.7.2-.2.4-.3.6-.5 1-.7 1.9-1.6 2.8-2.5l.6-.6c.1-.1.2-.3.3-.5 0-.1.1-.1.1-.2l.1-.1-.1-.1c-.3-.3-.6-.3-1-.1-.4.2-.8.5-1.2.7l-.1.1-.1.1s0-.1.1-.1v-.2c0-.1-.1-.1-.2-.1 0-.1-.1-.2-.2-.2-.1.1-.2.1-.3.2l-.6.3c-.4.2-.8.5-1.1.7-.5.3-1.1.7-1.6 1-3.1 1.8-5.7 3.1-8.2 4l-.8.3c-3 1-5.9 2-9.1 2.6-1.2.2-2.5.4-3.7.6-.5.1-.9.1-1.3.1-.3 0-1.4-.8-1.5-1.2.2-.4.5-.6 1.2-.7.6-.1 1.2-.1 1.8-.3.4-.1.9-.2 1.3-.3l1.2-.3c2-.4 4.4-1 6.6-1.8.3-.1.6-.2.8-.3 2-.7 4-1.5 5.9-2.6.5-.3 1-.6 1.6-.9.9-.5 1.7-1 2.6-1.5.5-.3 1.5-1.3 2.4-2.1.6-.6 1.3-1.2 1.4-1.3.6-.3 1.2-.8 1.8-1.3.9-.8 1.7-1.6 2.7-1.5h.3c1.6 0 3.1-.6 4.8-1.9 2.1-1.6 3.8-3.3 5.1-5.1.1-.2.3-.4.4-.6l.6-.9c.1-.2.2-.5-.2-.9l-.1-.1-.1.1c-.9.8-1.7 1.7-2.5 2.5-.8.9-1.6 1.8-2.6 2.6 0-.4.2-.6.4-1s.5-.8.4-1.3v-.2h-.4c-.2 0-.3 0-.5.1-.3.2-.6.5-.9.7-.1.1-.2.2-.3.2-.2.2-.4.3-.5.5-.4.4-.8.7-1.3 1.1-.1.1-.3.2-.6.3.1-.2.1-.3.2-.4l.2-.3c.5-.6 1-1.3 1.5-1.9 1.4-1.7 2.3-3.7 3-5.4.1-.2.1-.3 0-.5-.1-.1-.2-.2-.4-.2h-.1l-.1.1c-.5.6-.9 1.2-1.3 1.8-.5.8-.9 1.5-1.6 2.1l-1-.1-1.6 1.5-.7-.2h-.1c-.4.1-.7.4-1 .7-.2.3-.5.5-.8.5l-1.1-1.3h-.1c-.5.1-.9.5-.9 1 0 .3.1.6.2 1 .3 1.1.2 2.2-.5 3.4-1.1 1.9-2.8 3.5-4.9 4.7-.9.5-1.8 1-3 1.6-3.4 1.7-6.9 3.1-10.5 4.1-.7.2-1.4.4-2 .5 0 0-.1 0-.3-.1.2-.3.4-.5.7-.8.4-.3.8-.7 1-1.2l.2-.4-.7.3c-.1.1-.3.1-.4.2l-.7.3c-.8.3-1.6.7-2.4 1-.1 0-.2.1-.2.1h-.1l.5-.8-.1-.1c-.1-.2-.3-.3-.5-.3-.1 0-.3 0-.4.1-.2 0-.3.1-.4 0-.1-.2 0-.4.2-.7 0-.1.1-.1.1-.2.1-.1.3-.5-.2-.8l-.1-.1h-.1c-.1 0-.2.1-.2.1-.2.1-.4.2-.6.2h-.5c-.2-.4-.2-.8-.1-1.2v-.1c0-.5 0-1.1-.1-1.6-.1-.4-.1-.7-.1-1.1 0-1.3-.1-2.5-.3-3.8-.2-1.8-1.1-4.1-1.9-5.7l-.5-1 .1 1.1c.1 1 .1 2.2.1 3.3 0 1.1 0 2.1.1 2.9.3 2.4.1 4.3-.5 6-.2.6 0 1.3.1 1.9.2.6.3 1.1.2 1.6 0 0 0 .1-.1.1v.1l-.8.4c-.4.6-.3 1.2-.2 1.8 0 .3.1.5.1.8l-.9-.2v.2c-.2.8-.2 1.6.1 2.3.4 1 .8 1.8 1.1 2.6.1.3.2.7.2 1.1 0 .1-.1.9-.2 1.2-.1-.1-.2-.2-.2-.3-.5-.7-1.1-1.6-1.9-1.6h-.2v.2c-.1.4-.2.7-.3.9-.2.5-.4 1-.3 1.7l.1.2h.1c.1.4.2 1.8.2 2.5v.5c-.1.1-.1.1-.2.1-.2 0-.5-.3-.8-.5l-.1-.1c-.1-.1-.3-.1-.4 0-.1.1-.1.1-.1.2v1c0 .5-.1.6-.3.9-.1.1-.1.2-.2.3-.6.9-1 1.7-1.2 2.6-.5.3-.8.3-1 .3-.5 0-.6.1-1.3 1.9-.1.3-.4.6-.7.7-.2.1-.4.1-.7.3-.4.2-.9.3-1.2.5-.6.2-4.1 2.1-4.6 3.3-.1 0-.2-.1-.4-.2-.1 0-.1-.1-.2-.1-.3-.6-.3-.7 0-1.2.1-.2.2-.4.3-.7.1-.2.2-.5.3-.6.1-.1.1-.3 0-.5v-.3h-.2c-.6-.1-.7.3-.9.5 0 .1-.1.1-.1.2-.1.1-.2.2-.2.3-.5.6-1 1.1-1.7 1.1h-.3c.3-.5.4-1.4.3-1.9-.2-.5-.1-1.1.1-1.7.1-.4.1-.8.1-1.2 0-.3-.2-.7-.9-.6h-.1v.2c0 .1-.1.2-.1.3-.3 1.2-.8 1.5-1.8 1.3-.1 0-.2-.1-.3-.1 0-.2.1-.4.2-.6.2-.4.4-.9.2-1.5l-.1-.2c-.3-.5-.7-1.2-1.3-1.5l-.1-.1-.1.1c-.2.3-.6.5-1 .4H77c-.1-.1-.2-.1-.3-.1-.1 0-.1 0-.1-.1-.1-.1-.2-.1-.2-.1v-.2c0-.3.3-.5.5-.5h.1c.3 0 .4-.3.5-.5 0-.1.1-.2.1-.2.7-1 .6-1.9-.3-2.9l-.5-.5c-.6-.5-.7-1.2-.7-2.2V243.5c0-1-.3-1.8-1.1-2.6l-.3-.3-.7-.7c-.5-.4-.8-.9-.8-1.4-.1-.5-.2-.9-.4-1.4-.3-.8-.3-1.6-.1-2.5.4-.6.9-2.5 1.3-3.8.1-.5.3-.9.3-1 .2-.5.1-1.4-.3-2.1-.7-1.3-1.2-2.8-1.5-3.9-.1-1-.2-1.9-.6-2.3H71l-.1.1c-.4.6-.8 1.8-1.1 3-.2.8-.4 1.5-.7 2-.2 0-.3-.2-.4-.4-.2-.2-.4-.6-.9-.5-.5.3-.5.9-.5 1.3 0 .3 0 .6-.1.8l-1 .4v.1c-.1.3 0 .6 0 .8.1.3.1.6-.1.9-.7-.1-1.2-.6-1.8-1.2l-.1-.1c-1.3-1.3-2.4-2.6-3.5-4-1-1.3-1.8-2.5-2.6-3.7-.4-.6-.7-1.2-1-1.7-.2-.3-.3-.7-.5-1-.2-.4-.5-.9-.7-1.3-.3-.5-.6-1.1-.9-1.7-.3-.5-.5-1-.8-1.5-.2-.3-.3-.6-.5-.9-.1-.2-.2-.3-.4-.3s-.4 0-.6.2c-.1.1-.2.3-.2.5v.2c0 .3 0 .3.2.8.1.3.1.4 0 .4s-.3-.1-.5-.5c-.5-1-1.8-3.1-2.2-3.1-.1 0-.1 0-.2.1s-.1.2 0 .3c.1.3.2.7.3 1 .1.3.2.6.2.9 0 .1 0 .2.1.2h-.1c-.1 0-.2 0-.3-.1-.6-.6-1.5-2.3-1.7-2.6-.2-.4-.4-.5-.6-.5s-.3.1-.4.2c-.2.3-.2.9 0 1.6-.2-.1-.5-.4-.7-.7-.1-.2-.2-.5-.4-.7-.3-.6-.7-1.3-1.1-1.9-.6-1-2.3-3.1-2.8-3.3-.4-.7-2.5-4.9-3.1-6.8-.3-1-.6-2-.8-2.9-.1-.3-.1-.6-.2-.9.1.2.2.5.3.7.1.1.1.2.2.3.1.3.3.7.8 1l.2.1v-.6c0-.2.1-.3 0-.4 0-.3-.1-.5-.2-.8-.1-.2-.1-.5-.2-.7 0-.2-.1-.4-.1-.6-.2-.9-.4-1.9-.3-2.9v-.2c0 .1.1.2.1.4l.3 1.2c.2.9.5 1.8 1 2.7.1.1.2.3.4.3.1 0 .2 0 .3-.1l.1-.1v-.3c0-.1 0-.3-.1-.4l-.1-.6-.3-2.7c0-.3 0-.6-.1-.9-.1-.6-.2-1.1-.2-1.7 0-.2.1-.5 0-.8-.1-.3-.1-.5-.2-.7 1.8 1.8 3.8 3.4 5.9 4.7.4.2 1.1.5 1.9.8.8.3 1.5.6 1.9.9.5.3 1 .6 1.5.8.8.4 1.5.7 2.3 1.6.6.7 1.2 1.3 1.8 1.9 1 1.1 2.1 2.2 3 3.3.8.9 1.1 1.7 1.4 2.5.3.8.7 1.6 1.4 2.6l.6.6c.1.1.2.1.2.2l.1.1.7-.4.1.1c.2.2.3.5.5.7.1.1.2.2.4.2.1 0 .3 0 .4-.3v-.2c0-.4-.2-.8-.4-1.2.6.6.8.9 1.1 1.6l.1.1c1 1.8 2.4 3.9 3.7 4.2 1 .3 2.1 2.3 2.4 3.1v.1h.3c.3 0 .7-.1 1.1-.8.1-.3.3-.6.4-1 .4-1 .9-2.3 2.1-4.2 1.6-2.5-.3-7.4-.4-7.6v-.1c-.6-1-1.6-1.5-2.5-1.8-1.6-.6-2.3-1.2-3.4-2-.4-.3-.9-.6-1.4-1-.3-.2-.6-.5-.9-.7-.1-.1-.3-.2-.4-.4-.1-.1-.2-.2-.4-.3l-1.1-.8.1.1c-1-.8-1.8-1.7-2.7-2.6-.1-.1-.1-.2-.2-.2h.6c.2.2.5.3.7.5.2.1.4.3.6.4l.5.4c.7.5 1.5 1 2.2 1.5.5.3 1 .5 1.5.6.3 0 .4-.1.5-.2.1-.1.1-.1.3-.2h.1c.2-.1.3-.3.5-.4v-.1c0-.3.3-.3.3-.3h.1c.1 0 .2 0 .4.1l.6.3h.2c.3-.1.7-.2.8-.8v-.5s-.1-.1 0-.2h.1c.1 0 .3.1.4.1 2.3 1.1 4.3 1.8 7.4 2 1.3 0 2.7.2 4 .6.5.1 1.4.2 2.4.2 1.1 0 2.3-.1 3.1-.2l1.5-.3c.9-.1 1.7-.3 2.7-.5.9-.2 1.9-.5 2.8-.8.9-.3 1.7-.6 2.6-.8.3-.1.6-.1.9-.1.2 0 .4 0 .6.1l.8 2.4h.2c.2 0 .3-.1.5-.1.3-.1.6-.1.9-.2.2 0 .3-.1.5-.1.2-.1.4-.1.6-.2.2 0 .4 0 .5.1-.2.2-.5.3-.7.4-.2.1-.4.2-.7.3-.1 0-.1.1-.2.1-.2.1-.5.2-.6.7v.2h.6c.4 0 .8-.1 1.2-.2.4-.1.7-.2 1.1-.2h.3l-.1.5v.4l.2.1h.6c.5-.1.9-.2 1.3-.3 2.1-1.1 4.2-2.4 6.4-4.1.1 0 .1-.1.1 0h.6v.5c-.7 1-1.5 2-2.4 3-.5.6-1.1 1-1.6 1.5-.4.3-.7.5-1.1.8-.3.2-.6.4-.8.6 0 0-.1 0-.1.1-.3.2-.7.5-.6 1v.2h.7c.8-.4 1.7-.8 2.6-1.2.6-.3 1.1-.6 1.7-.9.3-.2.6-.3 1-.5.2-.1.3-.2.5-.1-.2.4-.5.8-.9 1-.2.2-.3.2-.4.3-.1.1-.2.1-.5.3-.3.3-.7.5-1 .8-.5.4-1.1.8-1.6 1.3l-.3.3-.1.1-.3.3h.4c.8-.1 1.4-.4 1.9-.7.7-.5 1-.6 1.4-.6h.1c-.3.5-.3.6-.8.9-.2.1-.3.2-.4.3-.2.2-.4.3-.7.6-.2.2-.3.3-.3.5 0 .1 0 .3.2.4l.1.1h.2c.1 0 .2 0 .3-.1.3-.2.5-.4.8-.5.5-.3.9-.6 1.4-1 .9-.7 1.6-1.3 2.3-1.9.9-.7 1.8-1.4 2.8-2.3 0 0 .1-.1.2-.1-.2.4-.5.7-.8 1.1-.2.2-.3.3-.4.5-.2.2-.3.4-.4.5-.1.2-.2.3-.5.6l-.7.7c-.3.3-.6.5-.9.8-.2.2-.4.4-.7.5-.4.2-.8.5-1 .9l-.1.1.1.1c.2.3.5.4.9.2s.7-.4 1.1-.6c.4-.2.8-.4 1.1-.6.1 0 .2-.1.3-.1h.1c-.1.3-.3.5-.6.7-.3.2-.6.5-.8.9l-.1.3.4-.1h.2c.1 0 .2 0 .3-.1 1-.4 1.7-1.2 2.4-1.9l.5-.5.3-.3c1.1-1 1.7-1.6 2.6-2.8.3-.5.7-.8 1.3-1 .7-.3 1.2-.8 1.6-1.2l1.2-1.5c.4-.5.8-1.1 1.3-1.6 1-1.2 1.8-2.6 2.5-4 .2-.3.3-.6.4-.8.1-.2.4-.8.6-1.3 1.2-.4 2.3-1.1 3-2 .2-.2.3-.4.6-.7.9-1.1 2-2.6 2.4-3.6.6-.6 1-1.4 1.1-2.3.3-.5.6-1.1.8-1.7.2-.5.4-1 .7-1.4.2-.3.6-1.8.3-2.2-.1-.1-.5-.3-.6-.3h-.1c-.2.1-.4.3-.6.5-.2.2-.4.4-.6.5-.1.1-.2 0-.4-.1-.1-.2-.2-.4-.2-.5v-.1c0-1.2.1-2.1-.9-3-.4-.3-.7-.6-1.1-.9-.8-.6-1.5-1.1-2.1-2-.3-.4-.6-.8-1-1.2l-.3-.3c-.2-.2-.5-.2-.7 0-.1.1-.2.3-.1.4.2.5.5.9.7 1.4.3.6.7 1.3 1 2-.2-.2-.4-.3-.6-.5-.4-.4-.8-.8-1.1-1.2l-1.1-1.1c-.9-.9-1.9-1.6-2.9-1.9-.1 0-.2-.1-.3-.1-.2 0-.3.1-.4.3-.1.2 0 .3.1.4l.2.1c.2.1.4.2.6.4.7.5 1.4 1 1.9 1.8v.1l.1.1c-.1 0-.2-.1-.2-.1-1.7-1.2-3.5-2.2-5.2-3-.9-.5-1.9-.8-2.8-1.1-.8-.3-1.6-.6-2.5-1-2.6-1.2-4.8-2.8-6.8-4.3-1.7-1.3-3.4-2.9-5.4-5-.8-.9-1.9-1.5-3.2-1.8-.3-.1-.4 0-.6.1-.1.1-.2.3-.2.5v.1l.1.1.1.1c.1.1.3.2.4.3.8.4 2.2 1.4 2.5 3 .1.7.4 1.4.8 1.8 1.3 1.7.8 3.5.4 5.2 0 0-.1.1-.1.2l-.4-.2-.6-.3c-.5-.2-.9-.4-1.4-.6-.4-.1-.7-.2-1.1-.2-.9 0-1.8.5-2.5 1.7-.4.5-.9.9-1.6 1.1-.1 0-.2.1-.3.2v.2c0 .1.1.1.3.1.2 0 .5-.1.6-.2h.1c1.3-.4 1.3-.4 2.4.1.1 0 .2.1.4.2.5.4.6.5.6.9v.2c-.1.2-.3.3-.6.3s-.5-.1-.7-.1c-1.4-.5-2.9-.4-4.4.4-.1 0-.2.1-.5.2-.1.1-.2.1-.3.2-.3.2-.5.3-.9.6-.4.2-2 1-2.3 1.2-2.5 1.4-4.6 2.1-6.7 2.1-1.2 0-2.4-.2-3.6-.7-1.9-.8-3.3-2.4-4.2-3.5l-.2-.2c-1.2-1.4-1.6-2.7-1.8-3.6-.5-1.6-.6-3.5-.3-5.4.2-1.2 1-2.5 1.7-3.6.1-.2.2-.3.2-.5 0-.3-.2-.6-.4-.8-.1-.1-.2-.5-.2-.6.2-.7.2-1.3.3-1.8.1-.6.1-1.2.4-2.1 0-.3.1-.5.1-.8v-.1c0-.5.1-1 .2-1.5.3-.8.6-1.6.7-2.5v-.2c.1-.2.1-.5.2-.7 0-.3 0-.5.1-.7v-.1c.5-3.2.8-5.9 1-7.7.1-.4.2-.8.2-1.3 0-.3 0-.6.1-.8 0-.3.1-.5 0-.6 0-.1-.1-.4-.1-.5v-.1c.1-.5.1-1.1.1-1.6.1-1.6.2-3.5.9-4.2h.6c.6 0 1.1.1 1.6.2s1 .2 1.5.2c.6 0 1.2-.1 1.8-.4 1.2-.5 2.4-1.1 3.6-1.7.3-.2.6-.3.9-.5.7-.3 1.2-.3 1.7.1.3.3.6.6.9.8l.4.4c.3.3.5.8.6 1.2.1 1.7.3 3.4.8 5.2.1.2.1.4.1.5 0 .1-.1.2-.1.3-.3-.2-.5-.6-.7-.9-.3-.5-.5-1-1.1-1.2h-.2c-.6.3-.6.8-.5 1.2.2 1.6.6 3.2 1 4.7l.1.3c.2.6.4 1.5 1.1 2 .1.1.3.2.5.3.1 0 .2.1.2.1l.2.1.1-.2c.2-.5.3-.9.3-1.5 0-.5-.1-1.2-.1-1.7V134.6h.1v.1c.1.1.2.2.2.3.1.3.3.6.4 1 .1.1.1.3.2.4.1.4.3.7.4 1.1.3.8.6 1.6 1 2.4.8 1.7 1.9 3.2 3.1 4.8 1.4 1.8 3.2 3.3 5.3 4.4 3 1.6 6.3 2.4 9.7 2.5 1 0 2-.1 2.9-.2.6-.1 1.3-.1 2-.2 1 0 2-.2 3.1-.5.6-.2 1.1-.3 1.5-.4 4.3-1 7.5-2.9 9.9-6 .2-.2.5-.7.6-.9 1.2-1.9 2.2-4 3.2-6 .3-.7.7-1.3 1-2 .1-.2.1-.3.2-.5l.3-1c.3-1 .6-2.1.9-3.1.1-.4.2-.9.2-1.4.1-1.2.2-2.3.3-3.6 0-.4.1-.9.1-1.3.1-.1.3-.2.5-.4.4-.3.9-.7 1.2-1.1.4-.4.7-.9.9-1.4.1-.2.2-.4.3-.5.2 0 .4 0 .6-.1.6-.1 1.3-.1 1.8-.5.5-.3 1-.7 1.4-1.1.2-.1.4-.3.5-.4h.5c2.6.5 5.3.5 8 .6h.5c1.2 0 2.5 0 3.7-.1.7 0 1.3-.1 2-.1h.9c.7 0 1.4 0 2.2.2l.2.2c.2.2.4.3.5.5l.3.3.5.5c.1.1 1.6 1.5 3.3 1.5.8 0 1.5-.3 2-.9.4-.4 1.2-1 2.2-1.6h.3c.1 0 .2 0 .3-.1l.5-.2c.7-.3 1.5-.7 2.2-1.1.6-.3 1.1-.7 1.8-1.1h.1c1.6-.7 3-1.3 3.7-1.6h.1c.2-.1.3-.1.5-.2h.1c.8-.5 1.2-1.4 1-2.3.1-.3.2-.5.3-.7.1-.1.1-.2.2-.2l.1-.1c.4-.5.9-1 1.3-1.5.2-.2.4-.5.6-.7.7-.8 1.4-1.7 1.5-3 0-.2 0-.3-.1-.4l-.2-.4v-.1c.2-.1.3-.3.4-.4.6-.6 1.3-1.4 1.8-2.4.1-.2.1-.4.1-.5v-.5l-.5-.9c0-.3.1-.5.2-.8.2-.6.3-1.2.3-1.9v-.1c0-.1 0-.2-.1-.2l-.1-.1c-.2-.3-.5-.6-.8-.7l.3-.3c.7-.8 1.1-1.8 1.2-2.9v-.1c0-.1 0-.1-.1-.2l-.3-.4c.1-.3.2-.5.3-.7.5-.9 1.2-2.3 1-4-.1-.5.1-.9.4-1.3.7-.9 1-1.9 1.4-2.9l.1-.3c.2-.6.4-1.4.1-2.4 1.2-.5 1.1-1 1.2-1.6zM16.9 126.4c.3-.3.6-.7.9-1.2.2-.3.3-.6.5-1 .1-.1.1-.2.2-.4.7-.2 1.3-.2 1.9-.2.4 0 .8 0 1.2.1 0 0 0 .1.1.1l.1.1c-.2 1.7-.5 3.3-1.1 4.8-.8 0-1.3.4-1.7.8-.1.1-.3.1-.5.1h-.2c.2-.3.4-.6.4-1 0-.3-.2-.5-.5-.5h-.4l.3-1.1-.1-.1h-.1c-.1 0-.1-.1-.2-.1-.2.1-.3.1-.5.2-.1.1-.3.1-.4.2-.2-.3-.1-.6.1-.8zm-1.6-1.3l-.4.5c-.1.1-.2.1-.3.1h-.2c-.3 0-.6 0-.9-.1-1-.3-1.9-.1-2.9.4-.2.1-.4.3-.6.4-.2.1-.3.2-.5.3-.2.1-.3.2-.5.2 0 0-.1 0-.1.1-.4-.3-.5-1.1-.4-1.5.1-.8.5-1.2 1.1-1.8l.2-.2c.2-.2.3-.3.6-.5.2-.2.5-.3.7-.3h.5c1.9 0 3.1.7 3.6 2.2.1.1.1.2.1.2zm8.4 43.1c-.1.7-.1 1.5 0 2.3 0 .4-.1.9-.2 1.3l-.8 1.9h-.1c-.3 0-.6-.1-.7-.2-.1-.8-.1-1.5-.2-2.3 0-.8-.1-1.7-.2-2.6v-.2c0-.2 0-.4-.1-.6-.4-.7-.5-1.6-.6-2.4-.2-1.5-.7-2.9-1.3-4.3-.1-.3-.3-.6-.4-.9-1-2.3-2.1-4.6-2.6-7.1v-.2c-.1-.3-.2-.7-.2-1.1v-4.5c0-.8.3-1.7.5-2.5.1-.2.1-.4.2-.5.1-.5.3-.9.4-1.4.2-.6.3-1.2.5-1.8.3-.9.6-1.8.9-2.6l.1-.3s.1-.1.1-.2c.1.4.3.9.5 1.5.5 1.5 1 3.2.8 4-.2.5-.3 1-.5 1.4-.3.9-.6 1.8-.8 2.7-.3.9-.3 1.9-.2 3 .3 2.2.8 4.8 2.5 7 .1.3.1.6.2.9.2 1 .3 1.9.9 2.8l.2.3.1-.4c.2-.5.4-1.1.6-1.4.1.2.1.4.2.5.3.9.6 1.7.6 2.6-.2 2.2-.3 3.8-.4 5.3zm44.7 89.6c-.2 0-.3-.1-.5-.3-1.9-1.8-3.4-3.5-4.6-5.5-.6-1-1.2-1.9-1.9-2.8-1.9-2.6-3.2-5.5-4.1-8.6v-.7c1.4.4 2.2 1.2 3 2.1.2.2.2.5.3.8 0 .2.1.4.1.5l1.2 1.4c-.3.6-.1 1.4.4 1.8l.1.1c.5.4.9.7 1.3 1.3l-.2.4c-.2.4-.1.9.3 1.1l1.3 1.1-.1.5c-.1.3.1.5.3.7l1.6 1v.6c0 .7.4 1.3.9 1.7l.4.3c.1.4.2.7.3 1.1.1.4.2.9.2 1.3-.2.1-.2.1-.3.1zm-20.5-29.6h.2c.1 0 .2-.1.5-.1.9 0 2.9.5 6.7 3.7.4.2.7.4 1 .6 1.4.9 1.9 1.2 4.1 1.9.7.2 1.1.5 1.5.7.4.2.9.5 1.5.7 2.2.8 3.7 2.2 5.3 3.8.2.2.5.4.7.7.2.1.3.3.4.5 0 .1.1.1.1.2v.1h-.1c-.1 0-.3 0-.4-.1-1.6-.8-3-1.2-4.5-1.7-.8-.3-1.6-.5-2.4-.8l-.5-.2c-1.6-.6-2.1-.8-3.8-1.7-1-.5-1.7-1.1-2.4-1.7-.5-.4-1-.9-1.7-1.3-2-1.3-3.7-2.9-5.5-4.5-.2-.2-.3-.3-.5-.6-.1-.1-.2-.1-.2-.2zm25.5-112.6c1.7.5 3.5 1.4 4.5 2.2.2.6.2.8.1 1.4-.4.2-.7.2-1.2-.2-1.1-.7-2.2-1.5-3.4-2.4-.2-.1-.4-.3-.6-.4l-.9-.6c.5-.2 1.1-.1 1.5 0zm-45.6 5.7c-.1-.3-.1-.7 0-1.1.3-.3.6-.3 1-.1.4.2.9.2 1.4.2.7 0 1.5-.2 2.4-.6.3-.2.7-.3 1-.4.1 0 .2-.1.3-.1.7.3.7.3.9 1-.1.7-.5 1.1-1.1 1.5-.2 0-.4-.1-.6-.1-.4-.1-.9-.2-1.3-.3-.5-.1-.9-.2-1.5-.2-.5 0-1 .1-1.6.2h-.2c-.1.2-.4.2-.7 0zm80 48.2l.3-.3.4-.4c.2-.2.4-.3.5-.5 1.2-1.2 1.7-2.6 1.5-4.2-.1-.7-.1-1.3 0-1.9 0-.2 0-.4.1-.5v-.1c.1 0 .2 0 .3.1.2.2.4.3.5.5 1.5 1.7 3.3 3.1 5.3 4.3.3.2.7.4 1 .6.8.5 1.7 1.1 2.6 1.5.5.3 1 .5 1.5.7.8.4 1.6.8 2.4 1.3.8.5 1.4 1.2 2.1 2-.1 0-.2-.1-.2-.1-.3-.2-.6-.3-.9-.4-.1 0-.2.1-.3.1-.1.1-.1.2-.1.3.1.3.2.4.4.7.3.4.8 1.1 1.1 1.5.3.4.5.8.7 1.1.2.3.4.7.5 1l.1.3c.1.1.1.2.2.3.2.3.3.5.3.9h-.1c-.1.1-.3.1-.4.1h-.5c-.7 0-1.4-.2-1.9-.4-1-.3-1.9-.8-2.9-1.3l-.6-.3c-.1-.1-.3-.2-.4-.3-.1-.1-.1-.1-.2-.1l.1-.6c0-.1 0-.2-.1-.3l-.2-.2c-.4-.1-.7-.3-1.1-.4-.8-.2-1.5-.6-2-1.1-1.2-1.1-2.5-1.4-4.1-1.7-.1 0-.2 0-.3-.1 0 0-.1 0-.2-.1-.6-.9-1.5-1.1-2.5-1.3-.1 0-.3-.1-.4-.1-.6.1-1.5-.1-2.5-.6 0 .1 0 0 0 0zm-28.7 6.6c.3-.1.5-.2.8-.2.1 0 .2 0 .3.1l.3.9h.3c.3 0 .5-.1.7-.2.3-.1.5-.2.8-.1l.4 1.1 1.9-.9.9.2c.4.1.7.1 1.1.1 2.2 0 4.5-.8 6.1-1.5.4-.2 2.5-1.2 3-1.6l.8-.4c.2 0 .3 0 .5.1.1.1.3.1.5.1s.3-.1.5-.2l.1-.1-.1-.1c-.1-.2 0-.5.1-.7.1-.2.3-.3.4-.2.1.1.2.1.4 0h.2l.5-.7.8.1.6-.6c.3.1.6.3 1 .5.4.3.9.6 1.4.6h.1l.6-.4c.3.1.6.2 1 .4s.9.4 1.4.4h.4l.7-.5c1 .3 3.6.9 3.7.9 0 0 4.8 1.1 6.7 2.4.4.3.8.5 1.2.8 1.1.7 2.2 1.4 3.1 2.2 1.7 1.5 3.1 1.5 4.9 1.6.4 0 .8 0 1.2.1.4 0 2.3-1.7 2.7-2.2.1.1.2.3.2.4.1.2.2.5.4.7.1.1.2.1.3.1.1 0 .3 0 .4-.1.4-.1.8-.1 1.1-.2.6-.1 1.1-.3 1.7-.4l1.2-.3c.1 0 .2 0 .2-.1.2-.1.5-.1.7-.1h.2c.4 0 .7-.2 1-.4.2-.2.5-.3.7-.4h.1s.1 0 .1.1v.1c-.5 1.2-.8 1.9-2.2 2.2-.5.1-.9.4-1.3.6-.1.1-.3.2-.4.2-.1.1-.2.2-.3.4-.1.1-.1.2 0 .3 0 .1.1.2.2.2h.1c.1.1.3.1.4.2.1.1.3.1.4.2h.1c0 .2-.3.6-.6 1-.2.3-.5.7-.6.9l-.1.2c-.2.2-.5.4-.8.6-.4.3-.9.6-1.2 1v.2c-.1.2-.8.7-2 1.3h-.4c-.3 0-1.2.3-2.8.6-1.6.4-3.6.9-4 .9h-2.6c-.3 0-.6 0-.9-.1-.6-.1-1.2-.3-1.7-.5s-1.1-.3-1.7-.6c-.1-.1-.3-.1-.4-.2-.3-.2-.7-.4-1.1-.4-.1 0-.2.1-.3.1-.1.1-.1.2-.1.3.1.4.4.6.7.7.1 0 .1.1.1.1 1.3.7 2.7 1.2 4.5 1.6-.1.2-.2.3-.3.5l-.5.8-1 .3v.1c-.1.6-.4.8-1.2.8h-.8c-2.1-.2-4-.6-5.7-1.3-.1-.1-.2-.1-.4-.2-.3-.2-.7-.4-1.1-.4h-.3l-.4 1.2h-.2c-.2 0-.4.1-.5.1-2-.1-3.4-.4-4.6-1.1-.6-.3-1.2-.6-1.8-1-.3-.2-.6-.3-.9-.5l-.1-.1-.8 1c-1.3-.1-2.3-.7-3.3-1.3-.5-.3-1.1-.5-1.6-.7-.8-.3-1.6-.6-2.1-1.1-.2-.3-.5-.5-.7-.7-.5-.6-.9-1-1.4-1.7l-.1-.1h-.3c-.1 0-.3 0-.4.1l-.3.3-.1.1v.1c-.1.7.1 1.1.3 1.6v.1c.4.8.8 1.2 1.3 1.7l.6.6c.3.3.5.6.3 1-.9.3-2 .6-3.2.7-.8 0-1.5.1-2.1.1-.9 0-1.8-.1-2.9-.2-.7-.1-1.3-.1-2-.1-.5 0-1-.2-1.5-.3h-.1c-.1 0-.2-.1-.2-.1 0-.1 0-.1.1-.3.1 0 .3-.1.4-.1.2-.1.4-.2.6-.5.3-.3.7-.7 1.4-1.1.6-.3 1.1-.7 1.6-1.1l.2-.2c.2-.1.3-.3.3-.5s-.1-.4-.3-.5l-.1-.1-.6.3-1.2.6c-1.3.6-2.9 1.3-4.6 1.3h-.7c-.7.1-1.3.2-2 .2-1.3 0-2.6-.2-3.8-.7-.5-.2-1-.4-1.8-.4h-.3l.1.3c0 .1.1.2.1.3 0 .2.1.3.2.4.3.3.6.5 1 .7l.2.1c-.1.1-.6.4-.9.4h-.1c-.6-.2-1.3-.3-2-.5H67.2c-.3.3-2.4 1.9-3.6 2l-.8-.5h-.5c-.5 0-.9.1-1.2.4-.5.2-4.1.7-6.5.7h-2.2c-.5 0-1.1.1-1.5 0l-.4-1h-.1c-.3 0-.6-.1-.9-.1-1.2-.2-2.6-.4-3.6-1.1v-1.1l-.1-.1c-2.8-1.2-3.5-3.2-4.1-4.6.1-.1.2-.1.2-.1.2 0 .3.1.5.2.3.2.5.3.7.4.3.2.5.3 1.2.4.1 0 .3 0 .4-.1.1 0 .2 0 .2-.1l.3-.1-.2-.2c-.2-.3-.5-.7-.8-1.1-.4-.5-.8-1-1-1.4-.1-.3-.2-.5-.3-.7-.2-.5-.3-1-.9-1.9v-.2c.4.1.7.4 1.1.7.5.4 1 .8 1.7.8.1 0 .3 0 .4-.1h.1c.2-.3.2-.5.3-.6 0-.1 0-.2.3-.3.1.1.2.1.2.2.1.1.2.1.2.2.6 1 1.4 1.7 2.5 2.3.1.1.3.1.5.1h.3l.6-.9c.1 0 .2-.1.3-.1.3 0 .5.1.7.2h.1c1 .4 2 .5 3 .3 2.2-.5 3.7-1.1 5-2 .2-.2.5-.3.7-.5.9-.7 1.9-1.3 2.8-2.1 1.8-1.6 3.6-2.4 6.1-3.3.8.2 1.4.5 1.9.9 0 .2 0 .3.1.4.2.2.6.3 1 .3.2 0 .4-.1.7-.2.4-.1.8-.2 1.3-.2.3 0 .5 0 .7.1.1.1.1.2 0 .4s-.2.5.2.8l.1.1h.1c.3-.1.6-.1.9-.2.4-.1.8-.3 1.2-.3.2 0 .4 0 .6.1l.1 1h.2c.4.1.8 0 1.1-.1zm-17.7-3.9l.1.1c.4.1.9-.1 1.2-.3l.9-.3-.9 1.3v.1c.1.5.4.6.6.6.1 0 .2 0 .3-.1.4-.1.8-.3 1.2-.5.1-.1.2-.1.4-.1l.1.1s0 .1-.1.2l-.2.2c-1 .6-1.9 1.3-2.8 1.9-1 .7-2.1 1.5-3.2 2.1-1.4.8-2.7 1.4-4 1.8-.8.2-1.5.4-2.1.4-1.2 0-2.3-.4-3.2-1.3-.2-.1-.3-.3-.5-.4-.1-.1-.2-.1-.2-.2l-.2-.1-.1.2c-.1.2-.2.3-.3.4l-.2.2c-.4-.3-1.2-1.1-1.6-1.7.2.1.4.2.8.2.2 0 .5 0 .8-.1 1.1-.2 2.6-1.2 4.2-2.2 1.1-.7 2.3-1.5 3.3-2 .4-.2.7-.3 1.1-.5.5-.2 1-.5 1.5-.7.3-.1 1.1-.3 1.9-.4.7-.1 1.2-.2 1.4-.3.5-.2 1-.5 1.5-.7.1-.1.2-.1.3-.2h-.1c-.3.2-.5.4-.8.6-.3.3-.7.5-1 .8-.4.3-.2.7-.1.9zm12.3-6.6l.1.1c.3.7.7 1 1.8 1.4.5.2 1.7.9 1.8 1.5-.4-.1-.9-.1-1.2-.1-.9 0-1.4.1-2 .8-.2.3-.3.6-.3.9v.3c0 .3-.2.5-.5.5h-.1c-1.1-.5-1.8-1.2-2.2-2l-.1-.2c-.7-1.4-1.5-2.9-1.6-4.6v-.4c0-.3-.1-.5 0-.8.3-1.2.7-2.4 1.4-3.3.4-.6 1-1.1 1.5-1.6l.4-.4s.1-.1.3-.1h.1c.5 1.2 1 2.3.6 3.6-.2.7-.4 1.3-.4 2.2-.2 1 0 1.3.4 2.2zm5.2-32c0 .2-.4 1.9-.7 2.7-.1.2-.2.7-.7 2.1l-.2.6c-.6 1.8-1.2 3.7-2.2 5.4l-.1.2-.9 1.5-.1.1c-.1.1-.2.2-.2.4 0 .1.1.2.2.2h.1l.1-.1c.9-.7 1.8-1.4 2.5-2.4-.3 2.9-1.2 6.2-1.3 6.5-.9 1.7-2.1 3-3.7 4.1-1.3.9-2.3 2.1-2.9 3.6l-.2.5c-.2.4-.4.9-.5 1.3-.4 1-1 1.9-1.7 2.7-3 3.2-6.9 5.2-10.3 6.7-.9.4-2 .9-3.1 1.4-.3 0-.6.1-1 .1l.1-.1c.1-.1.1-.2.1-.3v-.2l-.5-.3v-.4l.4-.8-.1-.1-.2-.2h-1l-.1.1h-.1c-.1 0-.2 0-.2.1-.2.1-.8.2-1.3.2-.1 0-.1-.1-.2-.1l.3-.2h-.7c-.1 0-.1-.1-.2-.1v-.3c-.1-.2-.3-.3-.5-.3h-.5c-.5 0-1 0-1.5-.1.1-.1.1-.3 0-.5-.1-.1-.2-.2-.4-.3 0-.1 0-.1-.1-.2-.1-.2-.3-.2-.5-.2-.5.1-1.1-.1-1.7-.4.4-.3.4-.5.6-.9l.1-.2-.2-.1h-.1c-.1 0-.2-.1-.3-.1-.2 0-.3.1-.5.1-.1 0-.2-.1-.3-.2-.1-.2-.1-.5-.2-.7v-.1l.1-.1c.1-.1.1-.2.2-.4 0-.1.1-.2.1-.3l.1-.3h-.3c-.2 0-.3 0-.4.1-.2 0-.5 0-.7.1-.2-.1-.3-.2-.3-.3v-.2c.2-.1.3-.3.4-.4l.1-.1.3-.6.1-.3h-.3c-.2 0-.4 0-.6.1-.1 0-.1-.1-.2-.1-.2-.1-.4-.2-.6-.4v-.2l.1-.3c.2-.8.4-1.6.9-2.2.1 0 .1 0 .2-.1.2-.1.5-.1.6-.3.1-.2.2-.5.2-.8 0-1.2-1.1-2.1-1.8-2.5-.1-.1-.2-.2-.3-.2h.1l-.2-.2c-1-1.1-2-1.9-3.1-2.6h-.2v-.1l-.1-.1c-.1-.1-.2-.1-.3-.2-.1-.1-.3-.2-.4-.4-.2-.3-.5-.6-.9-.5-.1 0-.2 0-.3.1l-.2-.2c.1 0 .2-.1.2-.2.2-.2.7-.6.2-1.3v-.1h-.1c-.6-.1-1.2-.1-2 0-.3-.1-.6-.2-.8-.4.3-.2.6-.3 1-.5.3-.2.5-.5.3-.9v-.1c-.2-.2-.5-.3-.8-.3-.2 0-.5.1-.7.1h-.2c-.1 0-.2 0-.2-.1.1-.1.2-.2.3-.4.3-.2.7-.6.5-1.2v-.1h-.3c-.2 0-.4-.1-.5 0-.4.1-.8.2-1.1.3-.1-.2-.1-.3-.2-.4l-.1-.2v-.1c.3-.2.5-.4.7-.6.2-.2.3-.3.2-.5 0-.1-.1-.4-.3-.6h-.9l-.1-.1c0-.2-.1-.4-.1-.6.2-.2.5-.3.7-.5.2-.1.3-.3.3-.5 0-.1 0-.3-.2-.6-.3-.1-.6-.2-1-.1 0-.2 0-.5-.1-.7v-.4c.2-.1.4-.3.7-.4.2-.1.3-.3.3-.4 0-.1 0-.3-.3-.5l-.1-.1-.7.1v-.3c.2-.7.5-1.3.8-1.9l.6-.6c.5-.3.9-.8 1.2-1.3.4-.7.7-1.4.9-2.4h.1v-.1c0-.3.1-.6.1-.8 0-.3.1-.5.1-.8 0-.1 0-.2.1-.3.1-.3.1-.6.1-.8 0-.1-.1-.2-.1-.3v-.3h-.1c-.3-.1-.4-.2-.5-.3-.2-.2-.5-.5-.9-.7v-.1l2.5.6.1.9c.1 1.1.2 2.1.3 3.1v.6c-.1 1.2.1 2.4.4 3.7.8 4 2.3 7.7 4.3 10.8.4.7.9 1.2 1.4 1.7l.3.3c.5.5 1.1 1 1.9 1.2 1.3 1.1 2.9 1.7 4.5 2.3 1.8.6 4.2 1.4 6.8 1.4h.1c.4 0 .8 0 1.3.1s1 .2 1.7.2c.5 0 .9 0 1.3-.1.3 0 .6 0 .8-.1.5 0 1-.1 1.5-.1 4-.3 5.8-.9 8.8-2.2.4-.2.8-.4 1.1-.8.2-.2.2-.4.2-.6v-.3l-.1-.1c-.2-.2-.5-.3-.7-.3-.2 0-.4.1-.5.1l-.4.2c-.1 0-.1 0-.5.2-2 .8-3.6 1.3-5.2 1.5-2.2.3-4.4.4-6.5.4-1.1 0-2.3 0-3.4-.1-1.9-.1-3.9-.6-6-1.4-.7-.3-1.5-.6-2.2-.9-.2-.1-.3-.1-.5-.2l-.1-.1c-.9-.4-2.5-1.4-2.6-1.7v-.2c-.1-.1-.2-.2-.3-.4-.2-.2-.4-.5-.6-.7-.1-.2-.2-.4-.4-.5-.4-.6-.8-1.2-1.1-1.8-.7-1.5-1.3-3-2-4.8-.4-.9-.7-2.1-.8-3.3 0-.4-.1-.8-.3-1.2-.2-.7-.3-1.4-.3-2.4v-2.7c-.1-1.8.3-3.6 1.1-5.8.4-1.1 1-1.9 1.8-2.6.1 0 .2-.1.3-.1l.1.1c.2.2.3.3.2.4-.1.1-.2.2-.3.4-.2.2-.4.5-.5.8-.4 1.1-1 2.3-1.3 3.5-.4 1.3-.4 2.1-.2 3.2v.1c.4.4.8.6 1.3.6.2 0 .5 0 .8-.1h.1c1.1-.2 1.8-.5 2.4-1.1h.1v-.2c.1 0 .1-.1.1-.2.1-.2.3-.3.4-.4.3-.2.5-.4.6-.8v-.1l-.1-.1-.1-.1c-.1-.1-.1-.1-.2-.1-.6 0-1.3.1-2 .1h-.1c.2-.3.4-.4.6-.6.1-.1.3-.2.4-.3l.3-.3c.4-.3.8-.6 1-1.1v-.1l-.4-.8.2-.1.6-.3c.1-.1.2-.1.4-.2l1.2-.6c.2-.1.2-.3.3-.5 0-.1.1-.2.1-.3l.1-.2-1.4-.4c.1-.1.1-.1.3-.2.3-.1.6-.3.5-.8v-.1c-.2-.2-.5-.2-.7-.2h-1c.1-.1.1-.2.1-.4-.1-.2-.3-.4-.6-.3-.5.2-.9.3-1.2.3-.2 0-.3-.1-.4-.4v-.1c0-.1.1-.2.1-.2.3-.2.6-.3.9-.3.2-.1.5-.1.7-.3.7-.3 1.5-.4 2.3-.6.3 0 .6-.1.9-.2 1.6-.3 3.8-.7 6-.7H56c1.4 0 2.9 0 4.4.3 2.9.5 5.4.9 8 1.7 2.9.9 6.1 2.1 8.3 4.6l.1.1c1.4 1.2 2.3 2.8 2.5 5 .2 1.8 0 3.6-.4 5.5zm4.9-10.5h-.4c-.3 0-.6-.1-.9-.2-.1 0-.2-.1-.3-.1-.8-.2-1.2-.8-1-1.7.1-.4.2-1.1.3-1.6.3-.1.6-.2.9-.2.5 0 .9.1 1.4.2.1 0 .2.1.4.1.1.8.1 2.5-.4 3.5zm11-1.9c-.1 0-.1 0 0 0-.1.1-.1.2-.2.2-1.2.7-4.6 1.8-5.8 1.8H88v-.9c1.3-.5 1.4-.8 1.4-.9 0-.1-.1-.2-.2-.3-.2-.1-.3-.3-.5-.6-.1-.1-.2-.3-.3-.4 0-.1.1-.1.1-.2.1-.1.1-.3.2-.3.3-.1.6-.1.9-.1.2 0 .4 0 .7-.1.4-.1.7-.1 1.1-.2.8-.1 1.7-.2 2.5-.6.1 0 .1-.1.2-.1.2-.1.4-.2.7-.2.1 0 .2 0 .3.1.5.7 0 2.1-.3 2.8zm47.8 7.1c-.1 1.3-.4 2.6-.8 4.1-.8 2.8-1.8 5.5-3.1 8-.6 1.1-1.3 2.2-2.1 3.3-.1.2-.3.4-.4.6-.3.4-.7.8-1.1 1.1-1.9 1.5-4 2.5-6.3 3.1l-1.5.3c-.5.1-.9.2-1.4.3-1.1.3-2.3.4-3.5.5-.6.1-1.3.1-2 .2h-.7c-3.1-.2-5.5-.7-7.8-1.6-2.8-1.2-5.2-3-7.3-5.6-.5-.6-.9-1.4-1.3-2.1-.7-1.5-1.4-3.1-2.2-4.9-.8-1.9-1.4-3.9-1.8-6-.2-1-.3-2.1-.4-3.4 0-.8.2-1.6.8-2.6 1-1.8 2.2-3.1 3.7-4.2 1.2-.9 2.5-1.6 4.1-2.3 3.6-1.6 7.3-2.6 11.1-3 1.6-.2 3.3-.2 4.9-.3.7 0 1.4 0 2-.1v.1h3c.4 0 .7.1 1.1.1h.2c.2 0 .3 0 .5.1.2 0 .5.1.7.1 2.2.1 4.5.8 7.1 2.1 1.4.7 2.4 1.9 3.1 3.5.8 1.9 1.1 3.5 1.1 5 0 .5 0 .9.1 1.4.3.7.3 1.4.2 2.2zm11.2-11.7c0 .2-.2.4-.3.4-.3.1-.6.2-.9.2-.3 0-.6-.1-1-.2h-.2c-.2 0-.6.1-.7.1-.1 0-.3.1-.4.1-.8.2-1.4.3-2.5.8-.3.1-.6.1-1 .2-.2 0-.6 0-.7-.3-.2-.3-.3-.5-.3-1v-.4c.1-.8.4-1.1.9-1.4h.5c.4.1 1.2.2 1.8.4.6.1 1.1.3 1.4.3h.7c.8 0 1.3 0 2.2-.2h.1c.3 0 .5.2.5.4s-.1.4-.1.6zm-14.2 15.8c-.5-.4-.9-.6-1.3-.8-.4-.2-.8-.4-1.3-.8h-.1c-.1 0-.3.1-.3.2v.2c0 .2 0 .4.1.5.2.3.3.5.5.7.2.3.3.5.8 1 .6.6 1.1.9 1.7 1.1h.1c.1 0 .2 0 .3-.1.4-.3.4-.7.3-1.1-.3-.4-.5-.7-.8-.9zm45.2 20.9c.3-2.2.2-4.6.1-6.5-.1-2-.3-4.1-.1-6.2 0-.3 0-.6.1-.9v-.5l-.5-.2-.1.1c0 .1-.1.1-.1.2-.1.1-.2.3-.3.5l-.1.3c-.1.7-.3 1.5-.3 2.3-.1 1 0 1.9 0 2.9v2.4c0 2 .1 4.1-.3 6.1-.3 2.1-.9 4.2-2.4 5.9-.3.3-.5.7-.7 1l-.1.1c-.5.7-.7 1.5-.5 2.3.1.9.5 1.4 1.1 1.6h.1l.1-.1c1.4-1.1 2-2.5 2.7-4.1.9-2.2 1.3-4.1 1.3-5.9-.2-.5-.1-.9 0-1.3zm-54.6-11.7c-.9-.2-1.8-.3-2.6-.5-1.4-.3-2.9-.6-4.4-.7-.5 0-.9-.1-1.4-.1-.2 0-.4 0-.7-.1h-.9c-.5 0-.9.1-1.3.3-.1 0-.1.1-.2.2 0 .1 0 .2.1.2.1.1.2.1.3.2.2.1.3.2.5.2.7.1 1.4.2 2.1.2.8 0 1.8.1 2.8.3 1.4.3 2.8.6 4.1.8.3 0 .6.1.9.1h1.4c.2 0 .3-.1.5-.2l.2-.2.4-.3-.5-.1c-.4-.2-.8-.2-1.3-.3zm57.1 5c.1.2.2.2.5.2.2-.1.4-.5.6-.7v-.1c.1-.6.3-1.2.4-1.7.3-1.1.5-2.3.9-3.5v-.5c0-.1.1-.2.1-.3.1-.3.1-.6.2-.9 1-2.8 1.3-5.1 1.1-7.4-.1-1.4-.3-2.6-.7-3.7-.3-1.1-1-2.1-1.9-2.9-.9-.7-1.8-1-2.8-.7-.7.2-1.4.5-2.1.9-1.1.6-2.2 1.4-3.4 2.7l-.4.4c-1.2 1.3-2.5 2.6-4 3.6-.1.1-.3.2-.4.3-.1.2-.4.5-.1.9l.1.1h.6c1.4-.3 2.6-1 3.6-1.9.4-.3.7-.7 1.1-1l.4-.4c.5-.4 1-.7 1.6-.7h.2c.5 0 1-.1 1.4-.1 1.6.1 2.9 1.1 3.3 2.6.4 1.5.4 3.1.3 4.8 0 1.2-.1 2.4-.2 3.5-.1.9-.1 1.7-.2 2.6v.1c0 .8-.1 1.5-.2 2.2v1.4c.1.1.1.2 0 .2zm-48.2-23.8h-.5c-.3 0-.7 0-1 .1-.3 0-.6.1-.9.1-.1 0-.2 0-.2.1-.1.1-.1.2-.1.2 0 .1 0 .3.1.4.4.5 1 .8 1.6.8 1-.1 1.7.1 2.5.5h.4c.1 0 .2-.1.3-.2l.2-.4c.1-.1 0-.2 0-.3-.6-.7-1.4-1.2-2.4-1.3zm35 33.1c0 .5.1 1 .2 1.4.1 0 .1.1.2.1.4.4.9.5 1.4.5l.3-.3c0-.1.1-.2.1-.4.1-.9.5-1.5 1-1.9.8-.6 1.1-1.5 1.2-2.7v-1.1c.1-1.9-.6-3.5-2-4.8l-.1-.1c-.3-.3-.6-.6-.9-.8-.6-.5-.8-1.1-.7-2 0-.2.1-.5.1-.7 0-.2.1-.4.1-.6.4-2-.3-3.4-2.2-4.4h-.2c-1.1.3-1.4 1.3-1.5 2-.2 1.1-.1 2 .3 2.9.4 1 .9 1.9 1.5 2.8.9 1.2 1.5 2.6 1.8 4.4.3 1.4.2 2.5-.2 3.7-.2.7-.3 1.4-.4 2zm-96.6-26.3c.2-.2.2-.5.1-.7l-.3-.6c-.3-.5-.7-.7-1.2-1-.3-.1-.5-.3-.8-.5.1-.1.3-.2.4-.2.3-.1.6-.2.7-.7-.2-.4-.6-.5-1-.6h-.2c-.4-.1-.7-.2-1-.3-.2-.1-.5-.1-.8-.2-.7-.2-1.3-.4-2-.6-.5-.1-.9-.3-1.4-.4-.6-.2-1.3-.4-1.9-.6l-.6-.2c-1.3-.4-2.5-.7-3.7-.8-2.4-.3-4.8.2-7.4 1.4-.9.4-1.7.8-2.5 1.2-.7.3-1.3.7-2 1l-.6.3c-.8.4-1.6.8-2.4 1-.2.1-.3.1-.5.2-.1 0-.1.1-.2.1l-.7.9c-.7.3-1.3.4-1.9.4h-.2c-.5 0-.9 0-1.3.4-.1.1-.1.2-.1.2v.1c.1.3.4.3.6.4.2 0 .4.1.4.2l-.4.9h.1c.2.1.5.1.7.1.3 0 .6-.1.9-.2.6-.2 1.2-.2 1.8.2 1.4.8 2.9.9 4.2.9h.9c.1 0 .2-.1.3-.1.1 0 .1-.1.2-.1l.1-.1-.1-.1c-.1-.1-.2-.2-.3-.2-.2-.1-.3-.3-.5-.4-.2-.1-.5-.2-.7-.3-.3-.1-.6-.3-.9-.4-.1-.1-.2-.2-.3-.4 0-.1-.1-.1-.1-.1l.1-.1c0-.1.1-.1.1-.1 1.2-.6 2.2-1.3 3-2 .4-.3.9-.7 1.6-.7h.2c0 .1.1.2.1.3l.3.9.2.3c.3.7.6 1.3 1 1.9.4.7 1 1.1 1.6 1.2.1 0 .2 0 .3-.1.1-.1.1-.2.1-.3v-.4h-.1c-.2-.3-.4-.7-.7-1.1-.6-.8-1.2-1.7-1-2.4.1-.1.2-.1.3-.2.3-.2.5-.3.9-.3.1.1.2.3.4.6.3.4.5.8.7.9.3.3.7.6 1 .8.5.3 1.1.5 1.7.5.8 0 1.6-.4 2.3-1 .3-.3.6-.6.8-.9l.3-.3c.5 0 1 .2 1.1.5.1.7-.6 1.2-1.1 1.7-.4.4-.9.6-1.3.8-.2.1-.4.3-.3.6v.1h.1c.1 0 .2 0 .3.1.2.1.5.1.8.2.7-.1 1.4-.2 2-.4.9-.6 1.1-1.5 1.3-2.3.1-.2.1-.4.2-.7.2-.1.3-.1.5-.1.4 0 .7.2 1 .3.1 0 .1.1.2.1.7.3 1.1.8 1.3 1.4-.1.4-.3.7-.7.8-.4.1-.7.2-1.1.3-.2 0-.3.1-.5.1-.1 0-.2.1-.4.1-.3.1-.6.1-.9.2-.2.1-.3.2-.4.3-.1.1 0 .3 0 .4v.1h2.9c.3 0 .7 0 1.1-.1.7-.3 1.5-.3 2.2-.4.3 0 .7-.1 1-.1 0 .1 0 .2.1.2l-.1.1s-.1 0-.1.1c-.1.1-.3.1-.4.2-.2.1-.5.2-.7.3-.2.1-.3.3-.4.4-.1.1-.1.2-.2.2l-.1.1.1.1.2.2.3.3c.8.4 1.1 1 1 2 0 .3-.1.6-.1 1-.1.7-.1 1.5-.2 2.3v.4c.1 0 .1-.1.2-.2s.1-.2.1-.2v-.1c.4-.7.7-1.5.9-2.2l.3-.9c.1-.6.3-1.2.6-1.8 0-.1.2-1 .3-1.4v-.4c0-.3-.1-.6-.4-.8-.1 0-.2-.2-.2-.3-.1-.1-.1-.2-.2-.3.1-.2.3-.4.4-.6.5-.2.6-.2.7-.3zm-12.8-3.8c-.4.3-.6.5-.9.5-.2 0-.5-.1-.8-.3-.1 0-.1-.1-.2-.2v-.3c.3-.4.5-.6.7-.6.3 0 .6.2 1.1.4.1 0 .1.1.2.2 0 .1 0 .2-.1.3zm-10.8 15.6c-.3 0-.5 0-.8.1-.3.1-.7.1-.9 0 .1-.1.2-.1.4-.2.3-.1.7-.3.9-.7 0-.1 0-.2-.1-.3l-1.7-1H49s.1-.1.2-.1c.2-.1.5-.3.5-.7 0-.1-.1-.2-.2-.2h-1.2c-.9 0-1.8-.1-2.7-.2-1.5-.2-2.3-.2-2.7-.2s-.5 0-.7-.2c0-.1.2-.2.3-.3.3-.2.6-.4.5-.9-.3-.3-.7-.4-1.1-.4-.4 0-.6 0-.8-.2.1-.1.2-.2.4-.2.3-.1.6-.2.7-.7v-.1l-.1-.1c-.5-.5-1.2-.6-1.8-.6-.3 0-.6 0-.9-.1h-.3c-.2.1-.4.1-.5.2-.1 0-.3.1-.5.1-.2.1-.3.2-.3.4v.9c.3 1.5.8 2.8 1.8 4 .8 1 1.5 1.5 2.4 2.1.1.1.3.2.4.3.4.3.8.5 1.1.5 1.8.4 3.5.6 5.2.6 1.2 0 2.4-.1 3.6-.3.5-.1 1-.3 1.5-.5l.2-.1c.1-.1.2-.2.3-.4 0-.1.1-.1.1-.2l.2-.2-.3-.1h-.4zm48.3-9.7h-.1l-.1.1c0 .1-.1.1-.1.1-.1.1-.2.2-.2.4.1.4.1.7.2 1 .1.2.2.3.3.4l.1.1.1.1h.1c.5-.1.7-.5.6-.9-.1-.5-.2-1.2-.9-1.3zm20.1 13.6c-1.1-.2-2.2-.6-3.2-.9l-.5-.2c-3.2-1-5.8-2.2-8.2-3.7-.8-.5-1.2-1-1.5-1.6-.1-.4-.2-.5-.3-.6-.1-.1-.1-.2-.2-.3-.1-.2-.3-.5-.5-.6-.6-.5-1.2-1.1-2-1.5-.1-.1-.2-.1-.3-.1-.2 0-.4.1-.6.3-.2.3-.3.7-.2 1.1.2.9.4 1.1.8 1.6.1.1.2.2.3.4 1.9 2.1 3.9 3.6 6.3 4.6 2.4 1.1 5.1 1.9 8.6 2.6.3.1.6.1 1 .1s.7-.1 1-.2l.1-.1v-.1c0-.5-.2-.7-.6-.8zm-17.2-12.7c.2 1.3.9 2 2.3 2.4 1.2.3 2.2.4 3.3.4h.9c.4 0 .7-.1 1-.1 1.1-.1 2.2-.2 3.3-.2h.2c.7 0 1.6 0 2.4-.3.1 0 .2-.1.2-.2v-.3c-.4-.4-.8-.5-1.2-.5h-4.3c-1.3 0-2.4-.1-3.4-.3-1.2-.2-2.2-.5-2.8-1.5-.2-.3-.5-.6-.8-.7-.5-.3-.9-.2-1.2.2l-.1.1v.1c0 .1 0 .2.1.3 0 .2.1.4.1.6z"></path></svg>