<svg xmlns="http://www.w3.org/2000/svg" viewBox="0 0 29.7 29.7"><path d="M10.6 10c0 2.4 1.9 5.4 4.3 5.4s4.3-3 4.3-5.4c0-2.4-1.9-4.3-4.3-4.3s-4.3 2-4.3 4.3z"/><path d="M29.7 14.9c0 8.2-6.7 14.9-14.9 14.9C6.7 29.7 0 23.1 0 14.9S6.7 0 14.9 0s14.8 6.7 14.8 14.9zM14.9 27.7c7.1 0 12.9-5.8 12.9-12.9C27.7 7.8 22 2 14.9 2 7.8 2 2 7.8 2 14.9 2 22 7.8 27.7 14.9 27.7z"/><path d="M12.9 21.5v-.3c.1-.6.2-2.2.2-2.6 0-.4.2-.9.4-1.2h-.4c-1.1.1-1.8.1-1.9.1-.1 0-.1-.1-.1-.4v-.2-.3-.5c0-.1.1-.1.5-.1s1.5.1 1.9.1c.4.1.5.2.5.2s.1-.2.3-.2h1c.2 0 .3.2.3.2s.1-.1.5-.2c.3-.1 1.4-.1 1.7-.2.4 0 .4 0 .5.1v1.5h-.1c-.1 0-.4 0-1.9-.2H16c.1.3.4.8.4 1.2 0 .3.1 1.4.2 2.1v.6c-.4.1-.8.2-1.3.2-.1-.9-.2-2.7-.2-3.2V18c0-.1.1-.2.1-.4h-.4c-.1 0-.3 0-.4-.1.1.2.1.3.1.5v.2c0 .4-.1 1.7-.2 3.2-.5.2-1 .1-1.4.1z"/><path d="M14.9 28.8c-5.3 0-9.6-1.6-9.6-7.5 0-1.7 1.8-3.9 4.4-5.2L11 27.7h7.7l1.4-11.6c2.7 1.3 4.4 3.5 4.4 5.2 0 5.9-4.3 7.5-9.6 7.5z"/></svg>